<?xml version="1.0" standalone="no"?>
<!DOCTYPE svg PUBLIC "-//W3C//DTD SVG 20010904//EN"
 "http://www.w3.org/TR/2001/REC-SVG-20010904/DTD/svg10.dtd">
<svg version="1.0" xmlns="http://www.w3.org/2000/svg"
 width="512.000000pt" height="512.000000pt" viewBox="0 0 512.000000 512.000000"
 preserveAspectRatio="xMidYMid meet">

<g transform="translate(0.000000,512.000000) scale(0.100000,-0.100000)"
fill="#000000" stroke="none">
<path d="M2420 5104 c-235 -50 -436 -253 -490 -494 -14 -65 -12 -206 5 -275
70 -298 353 -510 655 -492 283 18 513 205 587 478 28 101 23 253 -11 354 -108
318 -422 499 -746 429z m255 -159 c156 -41 280 -155 336 -311 17 -45 22 -82
22 -154 0 -147 -50 -260 -155 -355 -307 -276 -798 -58 -798 355 0 311 296 542
595 465z"/>
<path d="M3212 5004 c-12 -8 -22 -19 -22 -24 0 -5 19 -36 42 -69 33 -48 47
-61 68 -61 60 0 98 67 65 116 -31 48 -111 68 -153 38z"/>
<path d="M1672 4963 c-76 -27 -90 -108 -27 -149 22 -15 32 -15 68 -4 58 17 87
46 87 87 0 31 -28 73 -49 73 -5 0 -15 2 -23 4 -7 3 -33 -3 -56 -11z"/>
<path d="M3579 4851 c-47 -48 -36 -97 31 -131 52 -27 82 -25 110 5 26 28 31
75 10 100 -17 20 -83 55 -105 55 -9 0 -30 -13 -46 -29z"/>
<path d="M1305 4792 c-43 -27 -58 -49 -58 -84 0 -35 41 -78 75 -78 33 0 96 41
108 70 33 79 -48 139 -125 92z"/>
<path d="M3943 4665 c-40 -17 -55 -62 -37 -109 9 -24 73 -59 106 -58 81 2 100
98 30 149 -38 28 -64 32 -99 18z"/>
<path d="M969 4567 c-47 -31 -62 -65 -48 -106 21 -61 89 -70 145 -18 44 40 49
85 14 122 -29 31 -67 32 -111 2z"/>
<path d="M4232 4397 c-34 -36 -29 -86 11 -124 42 -40 69 -48 105 -29 56 29 58
86 4 139 -45 44 -87 49 -120 14z"/>
<path d="M693 4307 c-66 -37 -86 -114 -39 -154 40 -34 72 -30 117 16 55 55 52
108 -8 139 -27 15 -42 15 -70 -1z"/>
<path d="M4495 4095 c-41 -40 -26 -103 35 -152 42 -34 120 7 120 63 0 31 -34
90 -60 104 -32 17 -70 11 -95 -15z"/>
<path d="M429 3979 c-33 -33 -50 -84 -39 -113 14 -37 53 -59 90 -51 38 8 80
67 80 111 0 64 -85 99 -131 53z"/>
<path d="M1750 3906 c-141 -39 -254 -150 -294 -285 -14 -48 -16 -157 -16 -894
0 -608 3 -850 12 -878 15 -51 70 -114 122 -141 26 -13 67 -23 114 -26 l72 -5
0 82 0 81 -46 0 c-48 0 -81 13 -101 39 -10 12 -12 210 -12 851 -1 793 0 837
18 876 23 51 75 104 127 130 34 17 66 19 248 22 l209 3 -64 41 c-35 22 -85 58
-110 79 l-47 39 -93 -1 c-52 0 -114 -6 -139 -13z"/>
<path d="M3077 3875 c-27 -24 -76 -60 -110 -79 l-61 -35 215 -3 c186 -3 219
-5 249 -22 49 -26 98 -74 123 -121 22 -40 22 -41 25 -878 l2 -838 -29 -30
c-25 -24 -37 -29 -80 -29 l-51 0 0 -80 0 -80 53 0 c77 0 144 26 192 75 79 79
76 32 73 991 l-3 849 -23 55 c-46 113 -131 198 -242 241 -42 17 -83 23 -170
26 l-115 4 -48 -46z"/>
<path d="M4705 3755 c-14 -13 -25 -33 -25 -45 0 -30 37 -97 59 -110 46 -24
104 2 117 54 6 24 -15 76 -44 109 -23 26 -78 22 -107 -8z"/>
<path d="M238 3633 c-47 -54 -52 -121 -12 -152 48 -38 96 -24 127 36 24 45 21
85 -6 111 -29 27 -87 30 -109 5z"/>
<path d="M4862 3387 c-28 -29 -29 -81 -2 -124 34 -56 107 -57 136 -1 31 61
-15 148 -79 148 -22 0 -41 -8 -55 -23z"/>
<path d="M101 3246 c-15 -15 -25 -42 -28 -70 -5 -38 -2 -48 20 -70 50 -50 116
-24 137 53 17 65 -11 111 -70 111 -26 0 -43 -7 -59 -24z"/>
<path d="M1945 3135 c-16 -15 -25 -36 -25 -55 0 -39 39 -80 75 -80 32 0 85 50
85 80 0 30 -53 80 -85 80 -14 0 -37 -11 -50 -25z"/>
<path d="M3065 3135 c-16 -15 -25 -36 -25 -55 0 -36 38 -80 69 -80 35 0 69 22
81 51 33 78 -65 144 -125 84z"/>
<path d="M4973 3020 c-41 -17 -55 -74 -32 -139 13 -37 35 -51 82 -51 49 0 72
30 70 88 -2 55 -17 86 -50 101 -28 13 -40 13 -70 1z"/>
<path d="M53 2880 c-30 -12 -43 -41 -46 -101 -2 -43 2 -54 22 -70 27 -22 79
-25 105 -6 16 12 35 70 36 110 0 24 -53 77 -77 76 -10 0 -28 -4 -40 -9z"/>
<path d="M1944 2815 l-24 -24 2 -1308 3 -1308 22 -40 c25 -47 64 -85 113 -111
33 -18 65 -19 500 -19 435 0 467 1 500 19 49 26 88 64 113 111 l22 40 3 1308
2 1308 -24 24 c-33 33 -79 33 -111 0 l-25 -24 0 -1286 0 -1287 -29 -29 -29
-29 -171 0 -171 0 0 695 0 696 -25 24 c-32 33 -78 33 -110 0 l-25 -24 0 -696
0 -695 -171 0 -171 0 -29 29 -29 29 0 1287 0 1286 -25 24 c-32 33 -78 33 -111
0z"/>
<path d="M845 2775 c-16 -15 -25 -36 -25 -55 0 -19 9 -40 25 -55 l24 -25 -248
0 c-236 0 -250 -1 -275 -21 -37 -29 -37 -89 0 -118 25 -20 39 -21 275 -21
l248 0 -24 -25 c-16 -15 -25 -36 -25 -55 0 -38 39 -80 75 -80 35 0 339 165
365 197 25 32 25 54 0 86 -26 32 -330 197 -365 197 -14 0 -37 -11 -50 -25z"/>
<path d="M4035 2714 c-88 -47 -168 -94 -177 -106 -10 -11 -18 -33 -18 -48 0
-15 8 -37 18 -48 22 -27 332 -192 359 -192 11 0 32 9 47 21 37 29 37 89 0 118
l-27 21 257 0 257 0 24 25 c33 32 33 78 0 110 l-24 25 -257 0 -257 0 27 21
c37 29 37 89 0 118 -15 12 -36 21 -48 21 -11 0 -93 -39 -181 -86z"/>
<path d="M4985 2615 c-20 -19 -25 -34 -25 -75 0 -62 30 -100 80 -100 50 0 80
38 80 100 0 62 -30 100 -80 100 -19 0 -40 -9 -55 -25z"/>
<path d="M45 2478 c-37 -22 -46 -41 -42 -97 5 -63 29 -91 81 -91 48 0 76 34
76 94 0 39 -5 53 -29 77 -31 31 -54 35 -86 17z"/>
<path d="M4956 2217 c-50 -51 -38 -159 19 -173 65 -16 108 26 109 108 1 41 -3
53 -23 69 -32 26 -77 24 -105 -4z"/>
<path d="M86 2069 c-30 -24 -35 -69 -11 -124 35 -86 151 -58 148 35 -4 94 -73
139 -137 89z"/>
<path d="M4867 1839 c-20 -12 -47 -71 -47 -106 0 -53 71 -89 122 -62 23 13 48
67 48 107 0 55 -72 91 -123 61z"/>
<path d="M231 1699 c-54 -21 -67 -83 -28 -140 57 -84 161 -44 143 55 -12 65
-66 105 -115 85z"/>
<path d="M4724 1480 c-30 -12 -64 -71 -64 -109 0 -38 38 -81 72 -81 34 0 68
27 88 72 19 43 16 79 -9 102 -22 20 -61 27 -87 16z"/>
<path d="M382 1327 c-26 -27 -28 -66 -7 -107 29 -57 99 -69 134 -24 34 43 23
101 -27 142 -26 20 -76 15 -100 -11z"/>
<path d="M4505 1139 c-30 -15 -65 -71 -65 -105 0 -56 67 -92 120 -64 26 14 60
73 60 104 0 55 -63 90 -115 65z"/>
<path d="M625 995 c-37 -36 -33 -79 9 -121 38 -38 77 -44 113 -19 30 21 39 69
19 100 -45 69 -98 84 -141 40z"/>
<path d="M4210 814 c-49 -44 -54 -87 -15 -124 37 -35 79 -31 122 13 46 46 49
89 9 124 -38 32 -69 29 -116 -13z"/>
<path d="M912 735 c-55 -40 -48 -104 17 -149 45 -31 70 -33 105 -5 39 31 36
85 -7 127 -40 39 -83 49 -115 27z"/>
<path d="M3903 571 c-47 -34 -60 -69 -39 -110 25 -47 76 -55 131 -21 44 27 62
70 45 110 -24 58 -76 66 -137 21z"/>
<path d="M1221 486 c-69 -74 73 -200 149 -131 23 21 28 82 8 106 -43 52 -120
64 -157 25z"/>
<path d="M3575 386 c-71 -32 -91 -100 -41 -143 15 -12 36 -23 47 -23 29 0 97
37 109 59 39 73 -36 143 -115 107z"/>
<path d="M1600 327 c-67 -34 -57 -116 17 -148 57 -24 74 -24 107 2 20 16 26
29 26 58 0 43 -25 72 -79 90 -42 14 -40 14 -71 -2z"/>
</g>
</svg>
