<?xml version="1.0" standalone="no"?>
<!DOCTYPE svg PUBLIC "-//W3C//DTD SVG 20010904//EN"
 "http://www.w3.org/TR/2001/REC-SVG-20010904/DTD/svg10.dtd">
<svg version="1.0" xmlns="http://www.w3.org/2000/svg"
 width="512.000000pt" height="512.000000pt" viewBox="0 0 512.000000 512.000000"
 preserveAspectRatio="xMidYMid meet">

<g transform="translate(0.000000,512.000000) scale(0.100000,-0.100000)"
fill="#000000" stroke="none">
<path d="M1626 5040 c-505 -58 -927 -346 -1155 -788 -57 -112 -111 -264 -138
-392 -14 -66 -18 -128 -18 -280 1 -170 4 -207 24 -290 53 -213 136 -397 259
-569 97 -137 207 -243 356 -347 219 -150 355 -294 414 -438 36 -89 42 -223 13
-335 -44 -178 -135 -338 -301 -536 -208 -248 -317 -468 -405 -817 -30 -115
-25 -147 25 -168 22 -9 34 -9 57 4 27 13 33 26 58 123 88 343 188 544 385 773
178 208 296 431 336 638 45 232 -25 441 -216 646 -57 62 -153 140 -304 246
-139 99 -230 193 -326 337 -164 244 -234 466 -233 738 0 359 132 676 387 930
522 520 1367 511 1875 -21 120 -126 189 -232 240 -374 73 -198 103 -233 349
-389 89 -57 162 -106 162 -110 0 -3 -45 -47 -101 -96 -55 -50 -105 -98 -110
-107 -12 -23 -11 -60 4 -78 10 -12 161 -147 176 -156 2 -2 -5 -23 -14 -48 -28
-73 0 -149 65 -176 21 -9 29 -18 26 -29 -40 -132 -32 -172 55 -266 38 -41 69
-83 69 -94 0 -26 -94 -99 -265 -206 -175 -110 -280 -182 -371 -257 -118 -97
-156 -155 -198 -299 -66 -231 -62 -467 14 -702 34 -107 75 -179 181 -314 151
-194 230 -376 259 -595 9 -68 15 -87 36 -106 31 -27 54 -28 88 -1 31 25 34 63
11 191 -36 209 -121 392 -276 598 -159 211 -197 314 -206 553 -9 224 31 403
109 492 57 65 190 163 439 322 227 147 288 195 314 249 33 71 2 166 -86 259
-27 29 -49 60 -49 69 0 10 11 51 25 92 14 41 25 85 25 98 0 30 -25 52 -77 65
-24 7 -43 14 -43 16 0 3 10 24 21 48 14 29 20 54 16 69 -4 15 -43 56 -91 98
l-84 72 66 61 c181 167 195 188 155 235 -10 11 -106 75 -213 142 -268 168
-284 185 -345 356 -43 118 -78 184 -152 282 -217 291 -538 492 -897 561 -123
24 -310 33 -420 21z"/>
<path d="M1756 4469 c-132 -31 -257 -142 -308 -272 l-14 -39 -110 -1 c-100 -2
-114 -5 -177 -34 -93 -44 -169 -119 -215 -212 -36 -73 -37 -77 -37 -191 0
-114 1 -118 37 -191 110 -223 359 -369 705 -414 63 -8 145 -15 183 -15 l69 0
-25 -61 c-54 -133 -69 -220 -68 -409 0 -173 0 -176 33 -261 17 -48 86 -183
152 -300 267 -473 352 -685 380 -942 13 -114 1 -247 -31 -349 -11 -34 -20 -77
-20 -94 0 -79 105 -91 137 -16 39 91 55 178 60 324 7 179 -9 281 -72 473 -54
165 -128 321 -294 618 -166 295 -192 357 -200 462 -13 170 14 331 80 490 l30
72 55 12 c87 20 198 82 344 193 236 179 341 235 475 253 62 8 85 28 85 72 0
70 -58 89 -185 58 -122 -28 -214 -80 -433 -244 -169 -125 -212 -155 -217 -149
-2 2 14 43 36 91 145 321 161 623 47 840 -97 185 -305 282 -502 236z m220
-158 c89 -41 146 -113 190 -241 29 -85 25 -265 -9 -391 -31 -117 -90 -261
-147 -359 l-42 -73 -172 6 c-138 4 -191 10 -276 32 -219 54 -384 165 -452 303
-28 57 -33 77 -33 137 2 207 204 343 402 270 90 -33 120 -7 138 117 11 74 101
175 181 203 58 21 170 18 220 -4z"/>
<path d="M4321 4371 c-13 -13 -21 -40 -26 -88 -17 -185 -63 -328 -140 -431
-59 -81 -120 -127 -228 -172 -55 -23 -74 -53 -60 -97 14 -41 54 -58 101 -42
129 41 272 155 341 272 73 125 119 278 128 433 5 94 4 103 -16 123 -26 26 -75
27 -100 2z"/>
<path d="M4650 3870 c-99 -135 -248 -245 -363 -265 -39 -8 -77 -44 -77 -75 0
-10 10 -30 22 -45 20 -25 26 -27 73 -22 64 6 156 44 232 93 119 78 273 256
273 316 0 39 -32 68 -75 68 -32 0 -39 -6 -85 -70z"/>
<path d="M4100 3290 c-27 -27 -26 -71 3 -97 12 -11 43 -27 69 -37 160 -59 286
-205 324 -375 24 -104 70 -136 129 -89 26 20 27 25 22 78 -23 215 -202 441
-413 520 -69 25 -109 25 -134 0z"/>
</g>
</svg>
