<?xml version="1.0" encoding="UTF-8"?>
<svg version="1.1" xmlns="http://www.w3.org/2000/svg" width="512" height="512">
<path d="M0 0 C0.78181641 0.18272461 1.56363281 0.36544922 2.36914062 0.55371094 C39.55121681 9.66227264 71.3712921 32.86468755 92 65 C95.62768592 71.10935288 98.16911416 77.39690916 100.44287109 84.10205078 C106.56536705 101.86450818 117.43113303 108.64506618 133.04296875 118.18017578 C137.84395123 121.13480949 142.58048766 124.18653804 147.3125 127.25 C148.17206299 127.79889893 149.03162598 128.34779785 149.91723633 128.91333008 C150.70380615 129.4214624 151.49037598 129.92959473 152.30078125 130.453125 C152.99341064 130.89817383 153.68604004 131.34322266 154.3996582 131.80175781 C156 133 156 133 157 135 C157.90827276 141.6985116 157.90827276 141.6985116 155.71875 144.8359375 C153.8908862 146.67210977 151.99025958 148.34145035 150 150 C149.34 150.5878125 148.68 151.175625 148 151.78125 C146.01964882 153.54500027 144.01511154 155.27613505 142 157 C141.319375 157.58523437 140.63875 158.17046875 139.9375 158.7734375 C138.29398963 160.18500084 136.64733469 161.59290162 135 163 C139.09793983 167.23453782 143.46789108 171.1189278 147.890625 175.01171875 C150.6505296 177.61318438 150.95599944 178.42799269 151.25 182.25 C150.98328301 186.25075479 150.00671475 188.57186231 148 192 C148.61488281 192.17015625 149.22976563 192.3403125 149.86328125 192.515625 C156.30302743 194.44652178 156.30302743 194.44652178 159.125 196.6875 C161.03272241 201.7293378 159.14932569 206.76800175 157.4375 211.625 C155.66757529 216.7013546 155.66757529 216.7013546 156 222 C157.58651009 223.86648245 159.3043423 225.48165119 161.11328125 227.1328125 C166.46624129 232.43035888 169.13356592 238.32552121 169.3125 245.8125 C169.22923398 252.1104389 167.89652874 254.95513152 163.55078125 259.5234375 C155.82951634 266.91503042 146.05522009 272.20007625 137.05029297 277.85107422 C120.88559443 287.97660647 120.88559443 287.97660647 105.375 299.0625 C104.71951172 299.56185059 104.06402344 300.06120117 103.38867188 300.57568359 C89.52439346 311.42393704 84.95927716 323.5435756 82.4375 340.86328125 C79.73360999 363.86824017 83.73784991 389.03077575 98.22802734 407.57128906 C99.58542098 409.28000218 100.9484786 410.98407422 102.3125 412.6875 C119.74343401 434.52181782 129.8511321 459.28114784 132.34765625 487.1875 C131.89203783 490.87340179 130.65118832 492.44563769 128 495 C126 495.6640625 126 495.6640625 124 495.625 C123.34 495.63789063 122.68 495.65078125 122 495.6640625 C118.76219159 494.58900893 117.76165888 492.8837346 116 490 C115.22567416 487.09352575 114.89973166 484.172225 114.5625 481.1875 C111.44643005 458.572682 101.85447055 438.92103158 87.5625 421.1875 C75.85543483 406.53373143 68.25423161 389.73647049 66 371 C65.89042969 370.113125 65.78085937 369.22625 65.66796875 368.3125 C63.91271348 351.8365039 65.38225636 335.93563796 69.75 320 C69.97768066 319.14027588 70.20536133 318.28055176 70.43994141 317.39477539 C72.26297339 311.11875367 75.12247007 306.23348403 79 301 C79.66249756 300.09133179 79.66249756 300.09133179 80.33837891 299.16430664 C93.44060451 281.8020678 117.55628725 270.34261575 135.6484375 259.11254883 C141.85931712 255.20563952 147.51133161 250.88429816 153 246 C151.134955 241.90272926 149.30609656 238.98687316 146 235.9375 C142.1142179 232.3387359 139.27446914 229.33151209 138.63671875 223.9140625 C138.72921192 217.92335092 138.90095229 212.64119071 141 207 C140.443125 206.938125 139.88625 206.87625 139.3125 206.8125 C135.51666774 205.47882921 132.78829587 202.57659173 131 199 C130.87817266 197.39924548 130.82453402 195.79283863 130.8125 194.1875 C130.79832031 193.33542969 130.78414063 192.48335937 130.76953125 191.60546875 C131.02224336 188.74853695 131.81918527 186.5996593 133 184 C132.28714844 183.43152344 131.57429688 182.86304688 130.83984375 182.27734375 C115.76456311 170.12378641 115.76456311 170.12378641 113.875 164.875 C114.08269689 160.0979716 116.61823407 157.23227849 119.9609375 154.02734375 C121.09326131 152.9911358 122.23144051 151.96129481 123.375 150.9375 C123.93960937 150.42123047 124.50421875 149.90496094 125.0859375 149.37304688 C127.6347273 147.05730615 130.18372161 144.85839152 132.9140625 142.75390625 C133.94660156 141.88572266 133.94660156 141.88572266 135 141 C135 140.34 135 139.68 135 139 C133.48517846 137.80522339 133.48517846 137.80522339 131.484375 136.6796875 C130.73349609 136.23093262 129.98261719 135.78217773 129.20898438 135.31982422 C128.39751953 134.84303223 127.58605469 134.36624023 126.75 133.875 C125.08759298 132.8765779 123.42613572 131.87657273 121.765625 130.875 C120.94900391 130.38386719 120.13238281 129.89273438 119.29101562 129.38671875 C100.91275461 118.26262214 90.82329705 107.38991372 83.69018555 87.07861328 C74.01328125 60.189093 49.76198721 38.53973395 24.59375 26.0703125 C8.14392476 18.3836795 -9.87456925 13.82740911 -28 13 C-28.76957031 12.95875 -29.53914062 12.9175 -30.33203125 12.875 C-64.8933719 11.93295324 -97.77572881 25.96023945 -123 49 C-124.19689453 50.07314453 -124.19689453 50.07314453 -125.41796875 51.16796875 C-148.56549061 73.00448052 -161.97071068 105.70071444 -163.3125 137.19921875 C-163.6754965 150.93224833 -162.56521252 163.73381426 -159 177 C-158.67257813 178.26328125 -158.34515625 179.5265625 -158.0078125 180.828125 C-149.22566772 210.44382493 -129.37505826 235.68591915 -104.0690918 252.80834961 C-98.08654341 256.87776444 -92.47380196 261.26452481 -87 266 C-86.13761719 266.73992187 -85.27523437 267.47984375 -84.38671875 268.2421875 C-68.25375024 282.3921963 -56.70114713 299.23536856 -54.0625 320.9375 C-52.69586637 352.5836099 -69.42267581 381.82843218 -89.59375 404.9765625 C-109.7250515 428.12309354 -121.50863374 455.12755202 -128.2277832 484.96142578 C-129.27698448 489.34341228 -130.18490957 492.23387982 -134 495 C-137.90614682 495.55802097 -140.05111671 495.58392818 -143.4375 493.5 C-146.04277534 489.33155945 -145.36995875 484.98188327 -144.4987793 480.31494141 C-143.77347503 477.20962647 -142.96943794 474.13758089 -142.125 471.0625 C-141.81546387 469.93021973 -141.50592773 468.79793945 -141.18701172 467.63134766 C-132.84613015 438.20804241 -119.44604917 414.1592761 -99.48828125 391.09765625 C-83.59542862 372.57627669 -69.29256454 347.1605112 -71 322 C-72.84028432 308.40890936 -78.73428493 297.66001988 -88.27734375 287.92578125 C-90 286 -90 286 -90 284 C-90.87591797 283.60941406 -90.87591797 283.60941406 -91.76953125 283.2109375 C-94.14859004 281.9193294 -95.73866101 280.49873161 -97.6875 278.625 C-101.987556 274.71521311 -106.5532521 271.37834364 -111.3125 268.0625 C-112.05000488 267.54800293 -112.78750977 267.03350586 -113.54736328 266.50341797 C-115.01253198 265.48202478 -116.47786097 264.46086148 -117.94335938 263.43994141 C-137.09915545 250.02815541 -150.74631698 233.42690059 -162 213 C-162.61359375 211.90816406 -163.2271875 210.81632813 -163.859375 209.69140625 C-171.75808687 194.85510895 -176.63074932 178.60370879 -179 162 C-179.13019531 161.13890625 -179.26039063 160.2778125 -179.39453125 159.390625 C-184.01916429 122.64020776 -172.78495553 83.9621659 -150.37695312 54.75585938 C-143.3060017 45.73914259 -135.93715122 37.22933353 -127 30 C-126.48695312 29.58186035 -125.97390625 29.1637207 -125.4453125 28.73291016 C-105.08981029 12.36130465 -80.79609854 1.9406496 -55 -2 C-53.81664062 -2.18304688 -52.63328125 -2.36609375 -51.4140625 -2.5546875 C-34.54331441 -4.57651379 -16.5504658 -3.88370913 0 0 Z " fill="#000000" transform="translate(210,10)"/>
<path d="M0 0 C12.11371818 12.41049079 15.58864184 30.80465684 15.48852539 47.484375 C14.92528313 67.07412559 8.60075785 85.81278301 0.06640625 103.296875 C6.58658128 98.90851372 12.96341784 94.42213988 19.14770508 89.57104492 C35.33187231 76.8987313 54.43624337 62.73718729 76.00390625 63.421875 C79.54890468 64.43473169 81.00140324 65.24067054 83.06640625 68.296875 C83.62890625 71.234375 83.62890625 71.234375 83.06640625 74.296875 C80.43075721 77.60503486 78.82514593 79.1115607 74.67578125 80.125 C72.76539063 80.33382812 72.76539063 80.33382812 70.81640625 80.546875 C52.11365316 83.3646846 36.79623937 96.6676363 22.46875 108.171875 C12.62570917 116.04425795 0.21213582 124.92286212 -12.93359375 124.296875 C-13.20300781 125.13476562 -13.47242188 125.97265625 -13.75 126.8359375 C-14.77514353 129.83355191 -15.90945004 132.76002112 -17.09130859 135.69824219 C-24.14916788 153.56165312 -28.12752965 175.84393668 -20.93359375 194.296875 C-13.69644399 210.89173721 -4.04367552 226.63066521 4.94140625 242.33203125 C24.7702054 277.11171475 40.76200459 318.97416683 30.06640625 359.296875 C26.47069463 371.36068275 26.47069463 371.36068275 22.06640625 374.296875 C18.08761407 374.90234338 16.51890124 374.59532914 13.12890625 372.359375 C10.62081112 368.63523375 10.72957549 367.11189064 11.47265625 362.83203125 C12.32786342 359.1805217 13.28221872 355.56850792 14.34765625 351.97265625 C25.10591043 311.92154696 1.47081989 269.21303514 -17.78515625 235.75390625 C-18.57841309 234.38032959 -18.57841309 234.38032959 -19.38769531 232.97900391 C-36.84538062 202.68997504 -46.32922558 176.45611593 -36.99609375 141.296875 C-35.58237163 136.16855507 -33.84232694 131.2563185 -31.93359375 126.296875 C-33.78597656 126.24080078 -33.78597656 126.24080078 -35.67578125 126.18359375 C-66.37579489 125.07178349 -96.33677246 119.06901105 -118.24609375 95.921875 C-127.14866339 85.41392395 -131.65749621 73.40669538 -131.28125 59.6328125 C-129.96283499 46.98195386 -124.35616496 36.86049006 -115.265625 28.15234375 C-104.76498078 19.79755982 -93.019761 17.48254042 -79.93359375 18.296875 C-78.5905531 18.58864668 -77.2511145 18.90568713 -75.93359375 19.296875 C-75.60359375 18.03875 -75.27359375 16.780625 -74.93359375 15.484375 C-71.27040585 4.69832173 -63.67195217 -3.08535089 -53.93359375 -8.703125 C-34.78676869 -17.56787308 -15.58818923 -13.73020304 0 0 Z M-55.93359375 13.296875 C-60.88708939 19.88863613 -62.41651365 27.316787 -63.93359375 35.296875 C-68.29836091 37.06135534 -70.68765207 37.66127274 -75.12109375 35.921875 C-82.43125028 33.1494857 -89.90580975 33.25572321 -97.24609375 35.921875 C-105.53096498 39.76605525 -109.97804531 44.68192168 -113.828125 53.01171875 C-116.51502781 60.99647233 -115.89640686 69.2496496 -112.39453125 76.88671875 C-109.53640156 81.60186853 -105.83595972 85.43487834 -101.93359375 89.296875 C-101.4128125 89.85117188 -100.89203125 90.40546875 -100.35546875 90.9765625 C-81.77337752 109.06965132 -50.37960714 110.65199764 -26.18359375 110.3671875 C-24.76690398 110.34519094 -23.35022542 110.32233989 -21.93359375 110.296875 C-8.12768111 85.51293076 5.66184564 56.02992751 -2.55859375 26.984375 C-6.08165475 17.53616595 -11.89398793 8.87396223 -21.09375 4.19921875 C-34.07902612 -0.72465138 -46.79787511 3.03958376 -55.93359375 13.296875 Z " fill="#000000" transform="translate(218.93359375,76.703125)"/>
<path d="M0 0 C3.19085187 0.94543759 4.47687442 1.36371447 6.375 4 C11.23107532 13.71215065 5.16719714 32.21278733 2.0625 41.9375 C-5.06110818 61.61726029 -15.97705151 75.74081213 -35.05859375 84.87109375 C-39.46866886 86.8109898 -42.7965572 87.42354761 -47.625 87 C-50.0625 85.4375 -50.0625 85.4375 -51.625 83 C-52.125 79.5 -52.125 79.5 -51.625 76 C-48.64647439 72.27864597 -45.2275615 70.69445032 -40.9375 68.75 C-27.75104846 62.42433285 -20.05800146 52.91708123 -14.875 39.25 C-11.73717705 29.81588757 -9.71271276 20.31114761 -9.25 10.375 C-8.9734288 6.43386046 -8.70529924 5.12517235 -6.5 1.6875 C-3.625 0 -3.625 0 0 0 Z " fill="#000000" transform="translate(437.625,72)"/>
<path d="M0 0 C17.6434313 5.25955947 31.8035534 17.03305873 40.66796875 33.09375 C44.87770427 41.74077431 49.76975107 52.16750981 46.8828125 61.859375 C45.8203125 63.796875 45.8203125 63.796875 43.8828125 64.859375 C38.30888933 65.56717477 38.30888933 65.56717477 35.8828125 64.859375 C32.1152364 61.18822681 31.10898992 57.73204741 30.0078125 52.671875 C27.08102782 40.60273537 20.25346698 29.99917805 9.953125 22.81640625 C5.37375211 20.08393057 0.73239073 17.74053884 -4.1796875 15.671875 C-7.43274755 14.2726459 -9.70184299 13.29664025 -11.1171875 9.859375 C-11.0447844 6.38402637 -10.43654864 4.37833685 -8.6171875 1.421875 C-5.58583195 -0.47272222 -3.50141858 -0.57779185 0 0 Z " fill="#000000" transform="translate(418.1171875,180.140625)"/>
<path d="M0 0 C4.11289267 0.85685264 5.59686932 2.20235933 8 5.625 C8.47775412 13.90607139 2.36540326 20.17401341 -2.74414062 26.07885742 C-13.78624867 38.44266051 -28.26558892 48.97687067 -45.125 51 C-48.97332299 50.49804483 -50.48371887 49.58533074 -53 46.625 C-53.63008105 43.67075205 -53.39281877 41.71844778 -53 38.625 C-50.73483991 35.50760146 -48.04699247 34.81355319 -44.4375 33.75 C-28.14720443 28.48938834 -18.25473553 18.97777038 -8 5.625 C-5.58215167 2.60098688 -3.93572649 0.81994302 0 0 Z " fill="#000000" transform="translate(474,116.375)"/>
</svg>
