<?xml version="1.0" standalone="no"?>
<!DOCTYPE svg PUBLIC "-//W3C//DTD SVG 20010904//EN"
 "http://www.w3.org/TR/2001/REC-SVG-20010904/DTD/svg10.dtd">
<svg version="1.0" xmlns="http://www.w3.org/2000/svg"
 width="512.000000pt" height="512.000000pt" viewBox="0 0 512.000000 512.000000"
 preserveAspectRatio="xMidYMid meet">

<g transform="translate(0.000000,512.000000) scale(0.100000,-0.100000)"
fill="#000000" stroke="none">
<path d="M1844 5106 c-19 -8 -38 -28 -48 -51 -34 -71 -28 -78 329 -435 l325
-325 0 -735 0 -735 -500 500 -500 500 0 485 c0 547 1 537 -73 574 -34 16 -42
17 -74 5 -20 -8 -45 -27 -57 -42 -20 -28 -21 -40 -24 -409 l-3 -381 -198 196
c-195 194 -199 197 -241 197 -34 0 -48 -6 -76 -34 -28 -28 -34 -42 -34 -76 0
-42 3 -46 197 -241 l196 -198 -381 -3 c-369 -3 -381 -4 -409 -24 -15 -12 -34
-37 -42 -57 -12 -32 -11 -40 5 -74 37 -74 27 -73 574 -73 l485 0 500 -500 500
-500 -735 0 -735 0 -325 325 c-359 360 -366 365 -437 328 -44 -23 -70 -75 -59
-120 5 -18 94 -115 259 -280 l251 -253 -214 0 c-194 0 -218 -2 -246 -19 -66
-40 -66 -142 0 -182 28 -17 52 -19 246 -19 l214 0 -251 -252 c-165 -166 -254
-263 -259 -281 -11 -45 15 -97 59 -120 71 -37 78 -32 437 328 l325 325 735 0
735 0 -500 -500 -500 -500 -485 0 c-547 0 -537 1 -574 -73 -16 -34 -17 -42 -5
-74 8 -20 27 -45 42 -57 28 -20 40 -21 409 -24 l381 -3 -196 -198 c-194 -195
-197 -199 -197 -241 0 -34 6 -48 34 -76 28 -28 42 -34 76 -34 42 0 46 3 241
197 l198 196 3 -381 c3 -369 4 -381 24 -409 12 -15 37 -34 57 -42 32 -12 40
-11 74 5 74 37 73 27 73 574 l0 485 500 500 500 500 0 -735 0 -735 -325 -325
c-360 -359 -365 -366 -328 -437 23 -44 75 -70 120 -59 18 5 115 94 280 259
l253 251 0 -214 c0 -194 2 -218 19 -246 40 -66 142 -66 182 0 17 28 19 52 19
246 l0 214 253 -251 c165 -165 262 -254 280 -259 45 -11 97 15 120 59 37 71
32 78 -328 437 l-325 325 0 735 0 735 500 -500 500 -500 0 -485 c0 -547 -1
-537 73 -574 34 -16 42 -17 74 -5 20 8 45 27 57 42 20 28 21 40 24 409 l3 381
198 -196 c195 -194 199 -197 241 -197 34 0 48 6 76 34 28 28 34 42 34 76 0 42
-3 46 -197 241 l-196 198 381 3 c369 3 381 4 409 24 15 12 34 37 42 57 12 32
11 40 -5 74 -37 74 -27 73 -574 73 l-485 0 -500 500 -500 500 735 0 735 0 325
-325 c359 -360 366 -365 437 -328 44 23 70 75 59 120 -5 18 -94 115 -259 281
l-251 252 214 0 c194 0 218 2 246 19 42 26 60 78 44 127 -23 68 -46 74 -290
74 l-214 0 251 253 c165 165 254 262 259 280 11 45 -15 97 -59 120 -71 37 -78
32 -437 -328 l-325 -325 -735 0 -735 0 500 500 500 500 485 0 c547 0 537 -1
574 73 16 34 17 42 5 74 -8 20 -27 45 -42 57 -28 20 -40 21 -409 24 l-381 3
196 198 c194 195 197 199 197 241 0 34 -6 48 -34 76 -28 28 -42 34 -76 34 -42
0 -46 -3 -241 -197 l-198 -196 -3 381 c-3 369 -4 381 -24 409 -12 15 -37 34
-57 42 -32 12 -40 11 -74 -5 -74 -37 -73 -27 -73 -574 l0 -485 -500 -500 -500
-500 0 735 0 735 325 325 c360 359 365 366 328 437 -23 44 -75 70 -120 59 -18
-5 -115 -94 -280 -259 l-253 -251 0 214 c0 244 -6 267 -74 290 -49 16 -101 -2
-127 -44 -17 -28 -19 -52 -19 -246 l0 -215 -247 247 c-137 135 -258 251 -270
257 -28 14 -51 13 -89 -3z"/>
</g>
</svg>
