<?xml version="1.0" standalone="no"?>
<!DOCTYPE svg PUBLIC "-//W3C//DTD SVG 20010904//EN"
 "http://www.w3.org/TR/2001/REC-SVG-20010904/DTD/svg10.dtd">
<svg version="1.0" xmlns="http://www.w3.org/2000/svg"
 width="512.000000pt" height="512.000000pt" viewBox="0 0 512.000000 512.000000"
 preserveAspectRatio="xMidYMid meet">

<g transform="translate(0.000000,512.000000) scale(0.100000,-0.100000)"
fill="#000000" stroke="none">
<path d="M3901 5105 c-138 -39 -172 -77 -468 -525 -141 -212 -256 -386 -258
-388 -1 -2 -48 41 -103 96 -259 253 -565 408 -942 473 -43 8 -151 13 -255 13
-200 0 -325 -19 -505 -76 -526 -168 -954 -606 -1119 -1145 -78 -254 -83 -332
-79 -1178 l3 -710 28 -80 c42 -118 81 -181 171 -271 89 -88 169 -139 281 -175
63 -20 96 -23 333 -28 l263 -6 -45 -44 c-42 -41 -65 -51 -424 -181 -416 -151
-429 -157 -520 -224 -145 -107 -227 -277 -257 -534 -7 -60 -6 -63 23 -92 l30
-30 1822 0 1821 0 24 25 c30 29 31 57 10 191 -30 182 -75 275 -190 389 -102
102 -132 116 -588 281 -341 122 -361 131 -410 176 l-52 47 238 1 c249 0 328
10 425 51 24 11 48 19 52 19 5 0 26 -26 47 -57 21 -32 74 -94 118 -138 357
-360 922 -403 1331 -102 215 158 361 401 404 670 19 116 8 309 -24 422 -34
122 -111 273 -190 372 -293 368 -829 489 -1243 279 -29 -14 -57 -26 -63 -26
-7 0 -10 106 -10 320 l0 319 608 3 c606 3 607 3 663 26 112 45 197 130 240
239 35 87 34 227 -3 305 -14 31 -195 310 -401 620 -405 610 -408 614 -529 660
-70 27 -187 32 -257 13z m175 -166 c28 -7 61 -27 90 -53 54 -50 758 -1109 774
-1164 23 -86 -1 -173 -66 -238 -75 -76 -53 -74 -858 -74 -449 0 -728 4 -756
11 -25 5 -62 21 -82 35 -43 28 -94 110 -103 166 -15 86 -2 109 377 680 198
299 372 556 386 571 62 66 146 89 238 66z m-1904 -359 c215 -44 423 -133 593
-255 83 -60 276 -239 295 -276 6 -11 -8 -41 -51 -105 -84 -127 -103 -179 -102
-289 0 -104 19 -165 77 -244 75 -102 187 -159 331 -169 44 -2 83 -10 87 -16 4
-6 8 -180 8 -386 l0 -376 -50 -49 c-251 -246 -353 -676 -241 -1010 24 -70 21
-74 -64 -102 -41 -14 -104 -18 -352 -21 l-301 -3 -7 55 c-4 31 -4 81 0 111 6
52 9 57 68 104 108 85 197 194 257 311 13 25 53 135 90 244 l66 199 66 22 c86
29 124 53 182 115 106 113 144 279 96 419 -49 145 -176 262 -313 287 -32 5
-44 15 -79 68 -23 33 -71 90 -108 126 -120 117 -221 160 -381 160 -319 0 -636
80 -821 208 -44 30 -121 109 -170 174 -31 40 -63 50 -106 33 -34 -15 -39 -26
-52 -118 -18 -125 -93 -224 -208 -273 -134 -58 -132 -54 -132 -237 0 -122 -2
-138 -17 -143 -175 -59 -283 -178 -314 -347 -24 -127 22 -267 118 -365 52 -52
147 -106 208 -118 30 -5 32 -10 99 -209 88 -264 129 -338 261 -471 55 -56 111
-109 125 -118 23 -15 25 -24 29 -101 1 -47 0 -97 -3 -111 l-7 -26 -302 4
c-281 4 -306 6 -361 26 -167 62 -290 202 -331 374 -12 52 -15 178 -15 738 0
805 6 878 85 1116 195 588 706 1001 1320 1068 89 9 326 -4 427 -24z m-802
-975 c192 -160 504 -254 907 -274 146 -7 174 -11 213 -31 70 -35 113 -74 176
-156 l59 -77 5 -104 c5 -95 8 -107 29 -124 33 -27 86 -25 116 6 20 19 25 34
25 75 l0 50 38 -19 c105 -54 156 -182 120 -303 -15 -52 -87 -132 -135 -151
-21 -8 -62 -18 -91 -22 -28 -4 -61 -14 -72 -23 -13 -11 -48 -100 -100 -256
-93 -278 -128 -346 -240 -456 -74 -73 -214 -177 -295 -218 -59 -29 -156 -59
-217 -67 -102 -12 -249 41 -408 148 -97 65 -245 215 -292 295 -20 36 -69 163
-113 295 -43 128 -86 241 -97 253 -13 14 -40 25 -84 32 -119 20 -199 89 -224
193 -7 27 -9 69 -6 92 10 66 60 144 114 178 l47 30 7 -51 c8 -66 38 -100 87
-100 22 0 43 8 58 22 23 21 23 23 23 265 l0 243 59 30 c79 39 168 124 211 199
19 33 36 61 37 61 0 0 20 -16 43 -35z m2896 -1064 c415 -86 707 -464 680 -882
-24 -375 -282 -687 -646 -780 -166 -42 -387 -24 -543 45 -250 110 -440 344
-498 611 -20 94 -15 285 10 380 117 444 553 718 997 626z m-2665 -1191 c185
-86 350 -88 542 -5 l77 33 0 -28 c0 -49 39 -180 72 -243 18 -34 64 -95 102
-135 l70 -73 -19 -32 c-60 -103 -178 -199 -348 -282 -61 -30 -117 -55 -124
-55 -9 0 -13 16 -13 50 0 63 -31 100 -82 100 -57 -1 -88 -40 -88 -109 0 -26
-5 -41 -12 -41 -19 0 -219 103 -275 141 -71 48 -148 124 -184 181 l-32 50 46
39 c100 86 197 280 197 395 0 24 2 44 4 44 2 0 32 -13 67 -30z m-321 -714 c92
-88 172 -141 315 -211 233 -114 344 -111 595 15 179 90 307 194 380 308 25 39
50 71 56 71 18 1 640 -227 692 -253 129 -66 225 -204 245 -353 l5 -43 -1689 0
-1689 0 0 23 c0 43 31 141 60 192 30 53 125 151 170 175 14 8 180 71 370 140
l345 127 35 -60 c19 -32 69 -91 110 -131z"/>
<path d="M3952 4667 c-22 -23 -22 -28 -22 -358 l0 -336 23 -21 c33 -31 87 -29
118 4 l24 26 0 328 0 328 -24 26 c-32 34 -88 36 -119 3z"/>
<path d="M3952 3727 c-60 -63 6 -164 89 -135 58 20 70 95 24 141 -25 26 -87
22 -113 -6z"/>
<path d="M1423 3111 c-109 -28 -190 -54 -202 -65 -25 -23 -28 -81 -6 -113 27
-38 61 -37 256 12 183 46 214 60 230 102 17 46 -34 115 -83 112 -7 0 -95 -22
-195 -48z"/>
<path d="M2104 3150 c-30 -12 -54 -49 -54 -83 0 -55 30 -70 242 -122 191 -48
196 -48 222 -31 48 31 58 83 24 129 -10 13 -73 33 -208 67 -107 27 -197 49
-200 49 -3 0 -15 -4 -26 -9z"/>
<path d="M1343 2813 c-31 -6 -63 -50 -63 -85 0 -31 38 -78 64 -78 9 0 22 -15
30 -34 24 -58 81 -73 130 -35 14 11 26 29 26 40 0 12 12 24 34 33 60 25 74 84
32 133 -23 27 -28 28 -128 30 -56 0 -113 -1 -125 -4z"/>
<path d="M2184 2806 c-40 -18 -59 -62 -44 -101 12 -33 37 -54 63 -55 10 0 17
-8 17 -18 0 -25 35 -60 67 -68 36 -9 74 13 93 53 8 18 22 33 31 33 8 0 25 10
37 23 31 33 29 87 -4 118 -23 22 -35 24 -127 27 -70 1 -112 -2 -133 -12z"/>
<path d="M1755 2378 c-52 -28 -62 -92 -20 -133 23 -24 30 -25 140 -25 115 0
117 0 146 29 17 18 29 40 29 56 0 16 -12 38 -29 56 -29 29 -31 29 -138 29 -59
0 -117 -6 -128 -12z"/>
<path d="M1670 2037 c-55 -28 -64 -94 -18 -137 20 -19 35 -20 225 -20 203 0
204 0 228 25 42 41 31 105 -22 133 -31 17 -380 16 -413 -1z"/>
<path d="M1735 1765 c-25 -24 -32 -65 -19 -100 13 -32 59 -45 168 -45 95 0
107 2 130 23 40 34 43 77 11 115 l-27 32 -119 0 c-114 0 -121 -1 -144 -25z"/>
<path d="M3975 2287 c-141 -47 -243 -149 -285 -286 -30 -94 -27 -146 9 -182
38 -38 74 -38 112 0 21 21 29 39 29 64 0 132 118 247 254 247 136 0 239 -93
253 -226 8 -73 -12 -135 -60 -190 -47 -53 -100 -82 -164 -90 -96 -11 -118 -41
-111 -150 5 -77 27 -104 85 -104 38 0 83 36 83 67 0 13 15 24 53 37 129 46
229 149 268 278 62 202 -29 411 -219 505 -68 34 -83 38 -171 40 -60 2 -111 -2
-136 -10z"/>
<path d="M4035 1165 c-52 -51 -15 -136 59 -138 30 -1 44 5 62 27 49 56 13 136
-61 136 -25 0 -44 -8 -60 -25z"/>
</g>
</svg>
