<?xml version="1.0" standalone="no"?>
<!DOCTYPE svg PUBLIC "-//W3C//DTD SVG 20010904//EN"
 "http://www.w3.org/TR/2001/REC-SVG-20010904/DTD/svg10.dtd">
<svg version="1.0" xmlns="http://www.w3.org/2000/svg"
 width="512.000000pt" height="512.000000pt" viewBox="0 0 512.000000 512.000000"
 preserveAspectRatio="xMidYMid meet">

<g transform="translate(0.000000,512.000000) scale(0.100000,-0.100000)"
fill="#000000" stroke="none">
<path d="M363 5106 c-171 -42 -316 -192 -352 -364 -16 -75 -16 -3819 0 -3894
37 -177 190 -330 367 -367 29 -6 108 -11 176 -11 l123 0 6 -131 c5 -114 9
-138 32 -185 28 -57 63 -92 129 -127 39 -21 52 -22 291 -22 239 0 252 1 291
22 66 35 101 70 129 127 23 47 27 71 32 185 l6 131 967 0 967 0 6 -131 c5
-114 9 -138 32 -185 28 -57 63 -92 129 -127 39 -21 52 -22 291 -22 239 0 252
1 291 22 66 35 101 70 129 127 23 47 27 71 32 185 l6 131 123 0 c68 0 147 5
176 11 178 37 330 189 367 367 16 75 16 3819 0 3894 -37 178 -189 330 -367
367 -81 17 -4309 14 -4379 -3z m4414 -165 c66 -29 143 -111 169 -176 19 -49
19 -98 19 -1970 0 -1872 0 -1921 -19 -1970 -26 -65 -103 -147 -169 -176 l-52
-24 -2165 0 -2165 0 -52 24 c-66 29 -143 111 -169 176 -19 49 -19 98 -19 1970
0 1868 1 1921 19 1970 21 54 93 138 141 163 81 42 9 41 2260 39 l2150 -2 52
-24z m-3347 -4586 c0 -198 -10 -205 -295 -205 -285 0 -295 7 -295 205 l0 115
295 0 295 0 0 -115z m2850 0 c0 -198 -10 -205 -295 -205 -285 0 -295 7 -295
205 l0 115 295 0 295 0 0 -115z"/>
<path d="M884 4459 c-54 -15 -127 -72 -157 -120 -19 -31 -32 -70 -38 -116 -6
-42 -8 -614 -7 -1479 l3 -1409 28 -57 c30 -61 64 -95 131 -131 l41 -22 1675 0
1675 0 41 22 c110 59 150 127 160 274 l7 97 96 4 c79 3 105 9 147 31 96 49
144 130 144 242 0 112 -48 193 -144 242 -42 22 -68 28 -148 31 l-98 4 0 723 0
723 98 4 c80 3 106 9 148 31 96 49 144 130 144 242 0 112 -48 193 -144 242
-42 22 -68 28 -147 31 l-96 4 -7 96 c-10 144 -51 218 -150 270 l-51 27 -1660
2 c-979 1 -1673 -2 -1691 -8z m3332 -155 c49 -24 64 -59 64 -152 l0 -80 -97
-4 c-104 -4 -148 -20 -211 -73 -109 -92 -109 -308 0 -400 63 -53 107 -69 211
-73 l97 -4 0 -723 0 -723 -97 -4 c-104 -4 -148 -20 -211 -73 -109 -92 -109
-308 0 -400 63 -53 107 -69 211 -73 l97 -4 0 -80 c0 -93 -15 -128 -64 -152
-31 -15 -175 -16 -1656 -16 -1789 0 -1672 -4 -1705 61 -22 42 -22 2886 -1
2928 34 65 -86 61 1704 61 1483 0 1627 -1 1658 -16z m400 -400 c86 -41 86
-177 0 -218 -50 -24 -462 -24 -512 0 -85 41 -86 176 -2 217 49 24 464 25 514
1z m0 -2000 c86 -41 86 -177 0 -218 -50 -24 -462 -24 -512 0 -85 41 -86 176
-2 217 49 24 464 25 514 1z"/>
<path d="M2410 3759 c-36 -6 -105 -24 -155 -40 -308 -103 -534 -338 -632 -656
-25 -82 -27 -101 -27 -268 0 -167 2 -186 27 -268 106 -343 356 -584 705 -679
112 -30 354 -30 464 0 350 96 599 336 705 679 25 82 27 101 27 268 0 167 -2
186 -27 268 -106 343 -360 588 -705 678 -91 24 -284 33 -382 18z m317 -158
c165 -34 356 -145 454 -263 83 -100 125 -176 165 -295 38 -113 45 -311 15
-435 -59 -248 -216 -444 -446 -555 -370 -179 -807 -57 -1044 290 -144 212
-173 525 -71 770 74 178 216 329 389 416 72 37 190 75 256 84 77 10 198 5 282
-12z"/>
<path d="M2443 3255 c-114 -31 -221 -108 -283 -205 -94 -147 -94 -363 0 -510
158 -247 499 -292 717 -96 170 153 205 415 81 609 -106 166 -326 253 -515 202z
m248 -164 c67 -32 120 -81 154 -142 28 -50 30 -62 30 -154 0 -92 -2 -104 -30
-154 -34 -61 -86 -110 -154 -142 -67 -33 -197 -33 -262 -1 -117 58 -180 149
-187 272 -2 41 1 93 7 115 25 95 106 179 209 218 63 23 170 18 233 -12z"/>
</g>
</svg>
