<?xml version="1.0" standalone="no"?>
<!DOCTYPE svg PUBLIC "-//W3C//DTD SVG 20010904//EN"
 "http://www.w3.org/TR/2001/REC-SVG-20010904/DTD/svg10.dtd">
<svg version="1.0" xmlns="http://www.w3.org/2000/svg"
 width="512.000000pt" height="512.000000pt" viewBox="0 0 512.000000 512.000000"
 preserveAspectRatio="xMidYMid meet">

<g transform="translate(0.000000,512.000000) scale(0.100000,-0.100000)"
fill="#000000" stroke="none">
<path d="M2391 5089 c-470 -52 -936 -251 -1324 -562 -58 -48 -99 -88 -103
-103 -9 -36 3 -72 31 -90 23 -15 33 -15 133 1 156 26 462 31 634 11 161 -18
305 -47 440 -87 123 -36 150 -37 177 -3 27 34 27 66 -1 99 -18 20 -52 35 -142
61 -237 69 -491 104 -755 104 l-156 0 76 50 c500 324 1112 441 1689 324 687
-140 1303 -625 1623 -1276 169 -346 242 -662 242 -1058 0 -267 -26 -451 -94
-680 -194 -650 -645 -1182 -1261 -1489 -326 -162 -658 -241 -1015 -241 -420 0
-806 108 -1179 328 l-78 47 147 7 c470 23 937 157 1275 367 438 272 756 757
855 1301 23 125 31 448 16 578 -46 371 -196 733 -420 1012 -79 99 -227 245
-314 311 -103 78 -209 139 -242 139 -36 0 -75 -41 -75 -80 0 -38 18 -55 135
-129 118 -75 209 -154 307 -265 238 -272 387 -594 444 -961 25 -163 15 -465
-20 -631 -76 -359 -247 -675 -501 -927 -114 -114 -244 -204 -420 -292 -237
-118 -480 -192 -770 -237 -171 -26 -477 -30 -627 -9 -88 12 -100 12 -123 -3
-27 -18 -40 -54 -31 -89 13 -54 321 -265 551 -378 237 -115 464 -188 703 -224
159 -24 600 -21 757 5 252 41 470 113 710 234 259 131 471 284 677 490 211
211 358 416 494 691 127 257 202 506 246 810 19 136 16 522 -6 665 -72 474
-251 891 -535 1245 -396 495 -956 824 -1566 921 -120 19 -483 27 -604 13z"/>
<path d="M1625 4215 c-24 -23 -25 -31 -25 -135 0 -104 1 -112 25 -135 15 -16
36 -25 55 -25 19 0 40 9 55 25 24 23 25 31 25 135 0 104 -1 112 -25 135 -15
16 -36 25 -55 25 -19 0 -40 -9 -55 -25z"/>
<path d="M495 3745 c-46 -45 -36 -78 53 -167 89 -89 122 -99 167 -53 46 45 36
78 -53 167 -89 89 -122 99 -167 53z"/>
<path d="M2698 3692 c-89 -89 -99 -122 -53 -167 45 -46 78 -36 167 53 89 89
99 122 53 167 -45 46 -78 36 -167 -53z"/>
<path d="M1625 3575 l-25 -24 0 -424 0 -425 -30 -12 c-68 -28 -130 -129 -130
-210 0 -81 62 -182 130 -210 l30 -12 0 -185 c0 -182 0 -184 25 -208 32 -33 78
-33 110 0 25 24 25 26 25 208 l0 185 30 12 c68 28 130 129 130 210 0 81 -62
182 -130 210 l-30 12 0 425 0 424 -25 24 c-15 16 -36 25 -55 25 -19 0 -40 -9
-55 -25z m110 -1040 c50 -49 15 -135 -55 -135 -19 0 -40 9 -55 25 -16 15 -25
36 -25 55 0 19 9 40 25 55 15 16 36 25 55 25 19 0 40 -9 55 -25z"/>
<path d="M25 2615 c-16 -15 -25 -36 -25 -55 0 -19 9 -40 25 -55 23 -24 31 -25
135 -25 104 0 112 1 135 25 33 32 33 78 0 110 -23 24 -31 25 -135 25 -104 0
-112 -1 -135 -25z"/>
<path d="M3065 2615 c-16 -15 -25 -36 -25 -55 0 -19 9 -40 25 -55 23 -24 31
-25 135 -25 104 0 112 1 135 25 16 15 25 36 25 55 0 19 -9 40 -25 55 -23 24
-31 25 -135 25 -104 0 -112 -1 -135 -25z"/>
<path d="M548 1542 c-89 -89 -99 -122 -53 -167 45 -46 78 -36 167 53 89 89 99
122 53 167 -45 46 -78 36 -167 -53z"/>
<path d="M2645 1595 c-46 -45 -36 -78 53 -167 89 -89 122 -99 167 -53 46 45
36 78 -53 167 -89 89 -122 99 -167 53z"/>
<path d="M1625 1175 c-24 -23 -25 -31 -25 -135 0 -104 1 -112 25 -135 15 -16
36 -25 55 -25 19 0 40 9 55 25 24 23 25 31 25 135 0 104 -1 112 -25 135 -15
16 -36 25 -55 25 -19 0 -40 -9 -55 -25z"/>
</g>
</svg>
