<?xml version="1.0" standalone="no"?>
<!DOCTYPE svg PUBLIC "-//W3C//DTD SVG 20010904//EN"
 "http://www.w3.org/TR/2001/REC-SVG-20010904/DTD/svg10.dtd">
<svg version="1.0" xmlns="http://www.w3.org/2000/svg"
 width="512.000000pt" height="512.000000pt" viewBox="0 0 512.000000 512.000000"
 preserveAspectRatio="xMidYMid meet">

<g transform="translate(0.000000,512.000000) scale(0.100000,-0.100000)"
fill="#000000" stroke="none">
<path d="M1225 5096 c-13 -13 -27 -39 -30 -57 -3 -19 -5 -150 -3 -292 l3 -259
28 -24 c16 -13 41 -24 57 -24 16 0 41 11 57 24 l28 24 3 259 c2 142 0 273 -3
292 -9 45 -46 81 -85 81 -19 0 -40 -9 -55 -24z"/>
<path d="M3785 5096 c-13 -13 -27 -39 -30 -57 -3 -19 -5 -150 -3 -292 l3 -259
28 -24 c16 -13 41 -24 57 -24 16 0 41 11 57 24 l28 24 3 259 c2 142 0 273 -3
292 -9 45 -46 81 -85 81 -19 0 -40 -9 -55 -24z"/>
<path d="M2410 4679 c-75 -13 -177 -44 -247 -75 -134 -60 -295 -185 -383 -299
-26 -34 -71 -74 -114 -102 -260 -168 -363 -456 -290 -812 15 -74 65 -228 98
-304 l16 -38 -43 -18 c-24 -10 -68 -39 -98 -63 l-54 -44 -179 26 c-129 18
-181 29 -187 40 -4 8 -17 36 -29 62 -29 64 -91 125 -158 156 -49 23 -71 27
-147 27 -78 0 -97 -4 -147 -28 -70 -34 -142 -111 -165 -177 -15 -43 -22 -50
-70 -70 -72 -30 -146 -99 -180 -168 -25 -50 -28 -68 -28 -147 1 -70 6 -100 22
-137 38 -83 116 -154 201 -183 29 -10 38 -21 54 -63 26 -69 96 -145 166 -179
50 -24 69 -28 147 -28 76 0 98 4 147 27 67 31 129 92 158 156 12 26 25 54 29
62 6 11 58 22 188 40 l180 26 44 -39 c38 -34 122 -81 182 -101 14 -5 17 -18
17 -94 0 -174 44 -252 243 -425 74 -64 140 -123 146 -131 16 -20 -15 -151 -71
-293 l-39 -102 -57 -16 c-144 -41 -412 -133 -562 -192 -302 -119 -510 -237
-593 -336 -107 -127 -196 -293 -241 -451 -33 -111 -32 -121 3 -157 l29 -29
2162 0 2162 0 29 29 c35 36 36 46 3 157 -45 158 -134 324 -241 451 -117 139
-466 307 -986 475 l-227 73 -39 100 c-55 140 -86 272 -70 291 6 8 72 67 146
131 199 173 243 251 243 425 0 87 0 89 28 99 78 31 131 61 172 96 l45 40 178
-26 178 -26 30 -61 c36 -77 98 -139 169 -173 46 -22 69 -26 145 -26 80 0 97 3
148 30 72 36 139 109 165 177 16 42 25 53 54 63 84 28 150 88 195 175 25 48
28 66 28 145 0 78 -4 98 -28 147 -34 69 -108 138 -180 168 -49 20 -55 26 -71
73 -26 72 -112 157 -191 186 -49 19 -74 22 -140 19 -135 -8 -239 -78 -295
-202 l-28 -61 -181 -26 -181 -25 -22 24 c-13 13 -49 40 -80 59 -32 20 -58 38
-58 41 0 2 12 37 26 76 80 222 92 503 29 671 -77 206 -281 387 -565 502 -25
10 -25 10 17 32 69 35 94 117 56 182 -27 46 -191 113 -374 154 -88 20 -359 28
-439 14z m448 -194 c57 -15 116 -32 133 -39 l29 -12 -40 -39 c-24 -23 -45 -56
-51 -78 -9 -33 -7 -45 13 -85 22 -45 27 -49 123 -87 253 -102 393 -213 473
-374 36 -74 37 -77 40 -211 4 -124 -15 -301 -34 -332 -3 -5 -18 10 -33 34 -36
56 -122 135 -156 144 -14 3 -80 1 -145 -5 -217 -20 -362 -10 -495 34 -38 13
-137 55 -220 93 -185 86 -362 152 -435 162 -66 9 -158 -4 -220 -31 -87 -39
-201 -174 -236 -282 -28 -88 -32 -85 -64 58 -15 64 -15 256 -1 319 29 125 136
264 250 325 45 24 70 46 104 94 103 144 249 251 417 305 107 35 158 41 305 37
111 -2 162 -9 243 -30z m-685 -1006 c61 -23 175 -71 252 -106 182 -85 222
-100 319 -124 104 -25 309 -34 451 -20 l110 11 37 -40 c58 -64 68 -109 68
-300 0 -173 8 -223 40 -240 32 -17 82 -11 107 12 21 19 23 30 23 115 0 108 4
111 72 60 63 -48 101 -123 100 -201 0 -71 -17 -118 -62 -170 -43 -48 -95 -74
-170 -85 -99 -13 -104 -22 -110 -204 -6 -156 -11 -177 -57 -233 -10 -12 -135
-124 -277 -248 -306 -267 -283 -256 -516 -256 -232 0 -209 -12 -515 256 -143
124 -268 236 -278 247 -46 57 -51 78 -57 234 -6 182 -11 191 -110 204 -75 11
-127 37 -170 85 -45 52 -62 99 -62 170 -1 78 37 153 100 201 68 51 72 48 72
-59 0 -80 3 -95 22 -115 23 -25 74 -31 108 -13 32 17 40 67 40 245 0 256 35
417 114 526 74 101 169 114 349 48z m-1504 -423 c49 -26 89 -81 97 -133 8 -59
18 -79 46 -94 12 -6 105 -24 207 -38 185 -27 186 -27 184 -51 -3 -32 -3 -158
0 -190 2 -24 1 -24 -193 -52 -224 -32 -232 -36 -244 -127 -5 -37 -15 -61 -39
-88 -100 -114 -268 -67 -296 83 -18 90 -24 97 -104 109 -26 4 -62 17 -80 29
-37 25 -77 97 -77 141 0 44 40 116 78 142 19 12 55 25 80 29 57 8 90 36 98 83
15 90 36 122 99 155 38 20 107 20 144 2z m3955 -19 c44 -34 54 -52 66 -119 13
-68 38 -94 99 -102 27 -3 64 -16 82 -29 39 -26 79 -97 79 -142 0 -44 -40 -116
-77 -141 -18 -12 -54 -25 -80 -29 -80 -12 -86 -19 -104 -108 -11 -61 -40 -102
-89 -127 -106 -54 -230 13 -246 131 -12 91 -20 95 -244 127 -194 28 -195 28
-193 52 5 63 4 149 -2 181 l-7 35 174 23 c95 12 188 27 206 33 40 12 58 39 67
100 7 52 39 98 90 130 45 28 131 21 179 -15z m-2403 -1700 c77 -45 146 -57
339 -57 237 0 315 22 420 116 21 19 42 34 47 34 5 0 15 -23 21 -51 7 -28 30
-97 52 -153 22 -56 40 -107 40 -112 0 -20 -109 -120 -171 -157 -229 -135 -589
-136 -817 0 -67 40 -172 135 -172 157 0 7 13 46 30 86 16 40 39 105 50 144 12
39 23 77 26 85 3 9 17 1 47 -26 24 -22 63 -52 88 -66z m-344 -373 c86 -103
266 -211 413 -248 232 -58 488 -38 689 55 101 47 176 101 251 180 l55 59 83
-26 83 -25 -31 -38 c-176 -224 -400 -356 -670 -397 -263 -39 -533 6 -735 122
-134 78 -207 142 -333 296 -12 15 -6 19 65 41 43 14 81 25 85 26 4 1 24 -20
45 -45z m-331 -121 c59 -88 209 -232 305 -296 139 -92 273 -148 439 -184 120
-26 420 -26 540 0 307 66 570 236 744 480 48 68 29 69 236 -10 185 -70 428
-188 505 -245 95 -70 196 -221 246 -365 l18 -53 -2019 0 -2019 0 18 53 c49
143 151 295 243 363 60 44 226 132 338 179 97 41 343 134 356 135 6 0 28 -26
50 -57z"/>
<path d="M1925 3148 c-32 -17 -45 -39 -45 -79 0 -58 26 -71 245 -125 l194 -48
28 20 c15 12 32 33 37 47 12 32 -7 80 -37 95 -21 11 -377 102 -394 102 -4 0
-17 -6 -28 -12z"/>
<path d="M2963 3112 c-100 -26 -191 -55 -202 -64 -44 -37 -37 -101 15 -134 26
-17 31 -17 220 30 215 53 244 68 244 121 0 18 -3 41 -6 50 -7 17 -55 46 -76
44 -7 0 -95 -22 -195 -47z"/>
<path d="M2014 2806 c-67 -30 -66 -124 2 -152 20 -8 34 -23 38 -38 7 -27 51
-56 86 -56 25 0 80 51 80 74 0 9 8 16 18 16 30 0 62 42 62 81 0 25 -8 43 -26
60 -23 22 -35 24 -127 27 -70 1 -112 -2 -133 -12z"/>
<path d="M2880 2813 c-60 -22 -81 -100 -37 -141 13 -12 31 -22 40 -22 9 0 17
-7 17 -16 0 -23 55 -74 80 -74 35 0 79 29 86 56 4 15 18 30 38 38 70 29 69
123 0 152 -33 14 -192 19 -224 7z"/>
<path d="M2419 2361 c-37 -38 -38 -79 -3 -115 26 -25 31 -26 144 -26 113 0
118 1 144 26 35 36 34 77 -3 115 -29 29 -31 29 -141 29 -110 0 -112 0 -141
-29z"/>
<path d="M2490 2037 c-80 -22 -169 -92 -184 -144 -10 -30 19 -82 52 -94 35
-13 64 -5 104 30 68 58 129 59 194 2 41 -37 71 -46 106 -32 34 13 61 62 52 96
-8 32 -84 102 -137 125 -57 26 -133 32 -187 17z"/>
<path d="M1245 4258 c-51 -27 -62 -98 -22 -136 51 -48 137 -13 137 55 0 45 -9
62 -41 78 -33 18 -47 18 -74 3z"/>
<path d="M3805 4258 c-51 -27 -62 -98 -22 -136 51 -48 137 -13 137 55 0 45 -9
62 -41 78 -33 18 -47 18 -74 3z"/>
</g>
</svg>
