<?xml version="1.0" encoding="UTF-8"?>
<svg version="1.1" xmlns="http://www.w3.org/2000/svg" width="512" height="512">
<path d="M0 0 C1.79824219 -0.05994141 1.79824219 -0.05994141 3.6328125 -0.12109375 C13.48422345 0.56683364 22.75208979 6.84924927 31 11.8125 C33.10894686 13.06192088 35.21833737 14.31059314 37.328125 15.55859375 C38.94557617 16.51934814 38.94557617 16.51934814 40.59570312 17.49951172 C45.95591953 20.66727511 51.35302537 23.7704158 56.75 26.875 C58.93494605 28.13402744 61.11984166 29.39314242 63.3046875 30.65234375 C64.38975586 31.27737793 65.47482422 31.90241211 66.59277344 32.54638672 C72.02159942 35.67430148 77.44819281 38.80608448 82.875 41.9375 C85.04165583 43.18751879 87.2083225 44.43751878 89.375 45.6875 C93.70833333 48.1875 98.04166667 50.6875 102.375 53.1875 C103.4489502 53.8069751 104.52290039 54.4264502 105.62939453 55.06469727 C107.78180362 56.30669592 109.9338262 57.54936466 112.08544922 58.79272461 C117.12022538 61.70110395 122.15839178 64.60297373 127.21099854 67.48025513 C128.99319143 68.49557658 130.77411912 69.51308275 132.5546875 70.53125 C134.7839786 71.80513063 137.01560369 73.07493911 139.25 74.33984375 C154.75164043 83.21482873 154.75164043 83.21482873 159.1875 89.3125 C159.86232422 90.20582031 159.86232422 90.20582031 160.55078125 91.1171875 C165.47720678 99.74933136 165.32133517 107.9931811 165.31079102 117.66894531 C165.31977749 119.3156655 165.32998778 120.96237939 165.34132385 122.60908508 C165.36773933 127.06592059 165.37485378 131.5225831 165.37677121 135.97948933 C165.37890885 138.76901594 165.3853234 141.55849906 165.39326286 144.34801483 C165.42098963 154.09418004 165.43327189 163.84022244 165.4309082 173.58642578 C165.42910718 182.64790794 165.46074447 191.70885356 165.50813919 200.77020001 C165.54746673 208.56923589 165.56345566 216.36809714 165.56154197 224.16723132 C165.5607799 228.81672987 165.56917252 233.46575135 165.60107613 238.11515045 C165.63029133 242.49196836 165.63024213 246.86785878 165.60852623 251.24471092 C165.60540967 252.84257309 165.61235209 254.44049477 165.6306076 256.03825569 C165.74763121 266.99831596 164.38015546 276.24262747 156.79140568 284.78213882 C150.99826347 290.43976326 143.85462656 294.18965434 136.8125 298.0625 C135.56778749 298.75837179 134.32382175 299.45558086 133.08056641 300.15405273 C131.18212504 301.22048098 129.28332358 302.28617967 127.38220215 303.3478241 C121.46004274 306.65586781 115.60008943 310.0662412 109.75 313.5 C98.24737484 320.23144903 86.70575116 326.89406612 75.15722656 333.54638672 C70.80918415 336.05158878 66.46259335 338.55930212 62.11621094 341.06738281 C59.9660368 342.30799247 57.81564826 343.54823062 55.66503906 344.78808594 C50.61978488 347.69710268 45.57627294 350.60901405 40.53900146 353.53182983 C38.75819999 354.5649294 36.97684142 355.59706171 35.1953125 356.62890625 C32.96242917 357.92256088 30.7305909 359.21802164 28.5 360.515625 C5.23609256 373.98264521 5.23609256 373.98264521 -8.3203125 370.49609375 C-21.49589956 365.5231354 -33.66388797 357.28372182 -45.75390625 350.17578125 C-52.14966753 346.41629036 -58.57136557 342.70293211 -65 339 C-66.07950928 338.37786621 -67.15901855 337.75573242 -68.27124023 337.11474609 C-70.4616475 335.85252167 -72.65215872 334.59047763 -74.84277344 333.32861328 C-81.35229589 329.57803601 -87.8589478 325.82248011 -94.36572266 322.06713867 C-99.83034663 318.91364838 -105.29647902 315.7628296 -110.765625 312.6171875 C-116.17600758 309.50483376 -121.57988197 306.38140304 -126.98095703 303.25292969 C-130.11593198 301.44273605 -133.25882722 299.64687177 -136.40234375 297.8515625 C-138.37272775 296.71411645 -140.34279492 295.57612134 -142.3125 294.4375 C-143.20291992 293.93395996 -144.09333984 293.43041992 -145.01074219 292.91162109 C-154.5992755 287.32971171 -160.74838405 281.23839816 -164.125 270.4375 C-164.81987126 264.89348213 -164.80062705 259.41349348 -164.75610352 253.83374023 C-164.76125123 252.18333164 -164.7685389 250.53292856 -164.77778625 248.88253784 C-164.79619875 244.42997066 -164.78342698 239.97800728 -164.76369596 235.52546573 C-164.74722649 230.84965823 -164.75613371 226.1738865 -164.76121521 221.49806213 C-164.76572649 213.64940829 -164.74992529 205.80099353 -164.72192383 197.95239258 C-164.68986515 188.89714714 -164.68989518 179.84233244 -164.7071386 170.78705639 C-164.72303812 162.05021897 -164.71624884 153.31353845 -164.69920158 144.57670784 C-164.6923552 140.86999359 -164.69333859 137.16340601 -164.70074654 133.45669365 C-164.70844472 129.08733723 -164.69616884 124.71846723 -164.66889763 120.34919357 C-164.66205001 118.75212993 -164.66187664 117.15502053 -164.66911316 115.5579586 C-164.7152395 104.04604765 -163.69815183 94.07993442 -155.4375 85.40625 C-150.90981455 81.55159887 -145.76433761 78.74048678 -140.6015625 75.83642578 C-137.81659409 74.26329201 -135.04842179 72.66282237 -132.28125 71.05859375 C-126.7113214 67.83092229 -121.13294738 64.61818139 -115.55224609 61.40917969 C-110.07344203 58.25724768 -104.59938887 55.09709203 -99.125 51.9375 C-96.95835774 50.6874577 -94.79169103 49.43745776 -92.625 48.1875 C-91.5525 47.56875 -90.48 46.95 -89.375 46.3125 C-86.125 44.4375 -82.875 42.5625 -79.625 40.6875 C-78.55209717 40.0685083 -77.47919434 39.4495166 -76.3737793 38.81176758 C-74.21121417 37.5641526 -72.04861661 36.31659384 -69.88598633 35.0690918 C-64.40629629 31.90806551 -58.92720642 28.74600691 -53.44921875 25.58203125 C-48.04373755 22.45998179 -42.63523736 19.34320359 -37.22607422 16.22753906 C-34.15895713 14.45710114 -31.09673282 12.67843544 -28.03515625 10.8984375 C-26.14852926 9.80713301 -24.2618151 8.71597922 -22.375 7.625 C-21.52381592 7.12718018 -20.67263184 6.62936035 -19.7956543 6.11645508 C-13.18453058 2.3065526 -7.75521509 0.13995611 0 0 Z M-17.80761719 20.05517578 C-20.36174477 21.5787188 -22.93321453 23.06991442 -25.5078125 24.55859375 C-29.57377548 26.91469022 -33.63137527 29.28440715 -37.68359375 31.6640625 C-44.10476754 35.43180219 -50.54903933 39.15854311 -57 42.875 C-58.07934814 43.49705322 -59.15869629 44.11910645 -60.27075195 44.76000977 C-62.46132735 46.02230624 -64.65200131 47.2844317 -66.84277344 48.54638672 C-72.27159941 51.67430148 -77.69819975 54.80607247 -83.125 57.9375 C-90.82839987 62.38205991 -98.53210691 66.82608609 -106.23657227 71.26879883 C-108.42888927 72.53352902 -110.62079379 73.79897454 -112.81225586 75.06518555 C-117.84896402 77.97506876 -122.8898082 80.87678295 -127.9453125 83.75390625 C-128.83549072 84.26276367 -129.72566895 84.77162109 -130.64282227 85.29589844 C-132.29447813 86.23970179 -133.94848652 87.17940449 -135.60522461 88.11425781 C-139.50079768 90.11604068 -139.50079768 90.11604068 -142.125 93.4375 C-141.47764893 93.82381592 -140.83029785 94.21013184 -140.16333008 94.6081543 C-126.34206633 102.86240166 -112.58521208 111.20674025 -98.91357422 119.70703125 C-93.70013839 122.94226441 -88.47523937 126.15887707 -83.25 129.375 C-81.60620361 130.38675293 -81.60620361 130.38675293 -79.92919922 131.41894531 C-72.73629057 135.84192058 -65.52909568 140.24080001 -58.3125 144.625 C-50.28271437 149.50343217 -42.27863848 154.421077 -34.29492188 159.37451172 C-26.81138791 164.01696939 -19.31367296 168.63612176 -11.8125 173.25 C-10.93239761 173.79137604 -10.93239761 173.79137604 -10.03451538 174.34368896 C-6.73157956 176.37534318 -3.4284007 178.40660177 -0.125 180.4375 C6.87746519 176.69635514 13.71444614 172.7836566 20.4375 168.5625 C22.27450221 167.41758779 24.11175354 166.27307523 25.94921875 165.12890625 C26.91005371 164.52965332 27.87088867 163.93040039 28.86083984 163.31298828 C34.14628849 160.02424565 39.44801932 156.76200073 44.75 153.5 C45.84473633 152.82622314 46.93947266 152.15244629 48.06738281 151.45825195 C55.26135268 147.03441661 62.46974696 142.63490311 69.6875 138.25 C77.72824085 133.36491207 85.74248829 128.4393767 93.73803711 123.48071289 C126.42220834 103.21143564 126.42220834 103.21143564 142.875 93.4375 C139.46001433 89.54723282 135.62467408 87.45530162 131.125 85.0625 C123.80038522 81.08045542 116.56639093 76.96785742 109.375 72.75 C100.93258857 67.80535184 92.47696113 62.88521204 84 58 C82.92041016 57.37778564 81.84082031 56.75557129 80.72851562 56.11450195 C78.5381748 54.85238483 76.34774498 53.59042215 74.15722656 52.32861328 C69.80959527 49.82364809 65.46341932 47.31616505 61.11743164 44.80834961 C58.96315604 43.56535481 56.80869762 42.32267682 54.65405273 41.08032227 C49.65605376 38.19824239 44.6593506 35.31400861 39.66793823 32.42053223 C37.92546706 31.41059602 36.18252899 30.40147025 34.43945312 29.39257812 C32.27186469 28.13765851 30.10512265 26.88127514 27.93945312 25.62304688 C22.63582974 22.55469333 17.30885253 19.52806954 11.94921875 16.55859375 C10.91498779 15.98294678 9.88075684 15.4072998 8.81518555 14.81420898 C-1.20167413 10.12392652 -9.06590643 14.83783074 -17.80761719 20.05517578 Z M-151.125 103.4375 C-151.19508054 124.71679608 -151.24798351 145.99607313 -151.28043652 167.2754612 C-151.29590551 177.15584801 -151.31699568 187.03616312 -151.35131836 196.91650391 C-151.38121969 205.52819122 -151.40057477 214.1398266 -151.40726548 222.75156438 C-151.41117649 227.31143775 -151.42036862 231.87116256 -151.44219017 236.43098831 C-151.46256689 240.72371989 -151.4688314 245.01624183 -151.46432304 249.30901718 C-151.46514771 250.88358957 -151.47110637 252.45816905 -151.48261642 254.03269958 C-151.49757951 256.18535558 -151.49394028 258.33722381 -151.48576355 260.48989868 C-151.48852893 261.69376032 -151.49129431 262.89762196 -151.49414349 264.13796425 C-150.74961172 270.79285392 -147.45453988 274.57871825 -142.51171875 278.68310547 C-138.13286252 281.90185147 -133.40441365 284.43111644 -128.625 287 C-126.38308453 288.22989507 -124.14222438 289.46171547 -121.90234375 290.6953125 C-120.20440674 291.62778809 -120.20440674 291.62778809 -118.47216797 292.57910156 C-113.33143976 295.43331185 -108.25750143 298.39746047 -103.1875 301.375 C-101.19673184 302.54186674 -99.20584539 303.70853168 -97.21484375 304.875 C-96.2182373 305.45894531 -95.22163086 306.04289063 -94.19482422 306.64453125 C-88.8917275 309.74187038 -83.57105065 312.80863858 -78.25 315.875 C-77.16984619 316.49753662 -76.08969238 317.12007324 -74.97680664 317.76147461 C-72.78703666 319.02326826 -70.59717645 320.28490534 -68.40722656 321.54638672 C-62.97840061 324.67430147 -57.55178636 327.80604843 -52.125 330.9375 C-45.98788313 334.47870203 -39.85062239 338.0196511 -33.7116394 341.55761719 C-31.32073403 342.93556938 -28.93001328 344.31384172 -26.53930664 345.69213867 C-24.85516037 346.66290982 -23.17074769 347.63321874 -21.48632812 348.60351562 C-20.46345703 349.19326172 -19.44058594 349.78300781 -18.38671875 350.390625 C-17.48912842 350.90786133 -16.59153809 351.42509766 -15.66674805 351.95800781 C-13.9010795 352.98576225 -12.15345695 354.04490082 -10.42114258 355.12792969 C-8.27600594 356.60264087 -8.27600594 356.60264087 -6.125 356.4375 C-5.63348426 335.14988781 -5.26367169 313.8632161 -5.03694439 292.57107258 C-4.92884776 282.68338699 -4.78162713 272.79923474 -4.54077148 262.91381836 C-4.33082555 254.29288389 -4.19583962 245.67450781 -4.14914161 237.05108804 C-4.12185297 232.48727374 -4.05824376 227.93077431 -3.90466881 223.36931801 C-2.50250835 205.19478878 -2.50250835 205.19478878 -8.18419266 188.65633774 C-13.0911832 184.24114381 -18.51238086 181.60764188 -24.67600918 179.36778259 C-27.92447152 178.13380983 -30.57624868 176.47600623 -33.46875 174.5625 C-35.18711567 173.52019945 -36.90585593 172.47851617 -38.625 171.4375 C-46.7763034 166.48797605 -54.90027349 161.49680227 -63.00439453 156.47045898 C-79.21154741 146.41924186 -95.46050536 136.43716639 -111.75952148 126.53564453 C-120.05267703 121.49267581 -128.31086358 116.39419813 -136.55859375 111.27734375 C-137.32284668 110.80409668 -138.08709961 110.33084961 -138.87451172 109.84326172 C-140.39816362 108.89151648 -141.9152878 107.92925423 -143.42626953 106.95751953 C-144.14282715 106.49845215 -144.85938477 106.03938477 -145.59765625 105.56640625 C-146.2306665 105.15592041 -146.86367676 104.74543457 -147.51586914 104.32250977 C-149.1109981 103.27686212 -149.1109981 103.27686212 -151.125 103.4375 Z M144.90625 106.375 C143.35744141 107.3340625 143.35744141 107.3340625 141.77734375 108.3125 C140.64320735 109.02079841 139.5090934 109.72913275 138.375 110.4375 C137.19951045 111.16713683 136.02372451 111.89629635 134.84765625 112.625 C132.40118612 114.14137426 129.95601319 115.65980887 127.51171875 117.1796875 C121.97802675 120.61824061 116.42567637 124.02646035 110.875 127.4375 C108.71213861 128.76806505 106.5493786 130.09879491 104.38671875 131.4296875 C103.31470215 132.08936523 102.24268555 132.74904297 101.13818359 133.42871094 C97.84803058 135.45410216 94.5586873 137.48080271 91.26953125 139.5078125 C80.88324352 145.90688518 70.48872325 152.29116435 60.0625 158.625 C47.98298089 165.88452678 47.98298089 165.88452678 36.08039093 173.4258337 C31.60538332 176.31318469 27.34323327 178.74721988 22.34016418 180.59635925 C16.13823853 183.13459514 10.8862311 185.9264874 6.875 191.4375 C3.24152935 202.42366074 4.36166803 214.66666001 4.7457273 226.07392144 C4.87782146 230.6629849 4.88940122 235.25239227 4.91426086 239.84306335 C4.97930651 248.51869447 5.15128066 257.18870886 5.36260015 265.86187571 C5.59806972 275.74269107 5.71296691 285.62378798 5.81820428 295.50671446 C6.03718758 315.82010108 6.40607846 336.12844563 6.875 356.4375 C10.80695472 355.1657356 14.24155837 353.82017032 17.796875 351.70703125 C18.72612793 351.15926025 19.65538086 350.61148926 20.61279297 350.04711914 C21.60682129 349.45406982 22.60084961 348.86102051 23.625 348.25 C25.78867549 346.97330222 27.95275166 345.69728329 30.1171875 344.421875 C31.79119629 343.4328418 31.79119629 343.4328418 33.49902344 342.42382812 C38.8962633 339.24824644 44.32264 336.1237344 49.75 333 C51.93491376 331.74091652 54.11980949 330.48180177 56.3046875 329.22265625 C57.38975586 328.59762207 58.47482422 327.97258789 59.59277344 327.32861328 C65.02159942 324.20069852 70.44819281 321.06891552 75.875 317.9375 C78.04165583 316.68748121 80.2083225 315.43748122 82.375 314.1875 C83.98375 313.259375 83.98375 313.259375 85.625 312.3125 C95.375 306.6875 95.375 306.6875 98.62915039 304.81079102 C100.78277524 303.56786033 102.93561576 302.32356959 105.08764648 301.07788086 C110.10608643 298.17515099 115.13061149 295.28557578 120.18521118 292.44631958 C121.9607238 291.44811475 123.73363775 290.44544056 125.50585938 289.44140625 C127.71959604 288.18901339 129.93803887 286.94488576 132.16210938 285.7109375 C144.48863756 278.86101397 144.48863756 278.86101397 151.875 267.4375 C152.16890861 264.18535331 152.16890861 264.18535331 152.11550903 260.6101532 C152.11721788 259.93617849 152.11892673 259.26220378 152.12068737 258.56780559 C152.12397305 256.31682295 152.112994 254.06614057 152.10205078 251.81518555 C152.10148647 250.19870511 152.10180362 248.58222416 152.10293579 246.96574402 C152.10350952 242.58183742 152.09175196 238.19804031 152.07778788 233.81415915 C152.06528386 229.23107696 152.06411028 224.64799225 152.06173706 220.06489563 C152.05552133 211.38812595 152.03910924 202.71140669 152.01903808 194.03465921 C151.99668199 184.15565728 151.98568638 174.27665293 151.97564721 164.397632 C151.95474311 144.07755987 151.9195653 123.75753311 151.875 103.4375 C148.9539831 103.4375 147.37944443 104.83558046 144.90625 106.375 Z " fill="#000000" transform="translate(342.125,11.5625)"/>
<path d="M0 0 C0.77827131 -0.00235223 1.55654261 -0.00470446 2.3583979 -0.00712797 C4.98189819 -0.01381662 7.60534894 -0.01335979 10.22885704 -0.01294994 C12.12259127 -0.01624865 14.0163248 -0.01997423 15.91005743 -0.02409142 C21.1264389 -0.03411874 26.34280887 -0.03782939 31.55919862 -0.04048073 C37.1803723 -0.04438159 42.80153684 -0.05396006 48.4227047 -0.0626936 C62.00370135 -0.08246378 75.58469876 -0.09252475 89.16570622 -0.10142139 C95.55900405 -0.10580322 101.95230105 -0.11117029 108.34559822 -0.11641026 C129.59433466 -0.1334228 150.84307015 -0.14794242 172.09181213 -0.155159 C173.46599907 -0.15563375 174.84018602 -0.15610964 176.21437296 -0.15658666 C176.8958441 -0.15682303 177.57731525 -0.15705941 178.27943704 -0.15730295 C181.73208998 -0.15850414 185.18474292 -0.1597196 188.63739586 -0.16094494 C189.32258436 -0.16118509 190.00777286 -0.16142524 190.71372466 -0.16167267 C212.92795257 -0.16956516 235.14212709 -0.19299604 257.35633169 -0.22550088 C280.84368857 -0.2598059 304.33100267 -0.27950962 327.81838834 -0.28280324 C340.62115527 -0.28496965 353.4238437 -0.29373755 366.2265873 -0.31926441 C377.12871577 -0.34095133 388.0307467 -0.34903167 398.9328943 -0.33929763 C404.49561918 -0.3347472 410.0581427 -0.33668256 415.62084007 -0.35605907 C420.71491633 -0.37365005 425.80864372 -0.3727259 430.90272348 -0.35716178 C432.74395827 -0.35477955 434.58521696 -0.35914107 436.42641516 -0.37099043 C456.89220365 -0.49452587 456.89220365 -0.49452587 465.22675133 6.57172108 C465.92800133 7.41734608 466.62925133 8.26297108 467.35175133 9.13422108 C468.07362633 9.95922108 468.79550133 10.78422108 469.53925133 11.63422108 C474.80298258 18.89454005 474.50774995 27.68404437 474.51972008 36.31390858 C474.52304848 37.16671406 474.52637688 38.01951954 474.52980614 38.89816761 C474.534839 40.69152765 474.5372156 42.48489695 474.53705406 44.27826405 C474.53923967 46.9947323 474.55743197 49.71079322 474.5763607 52.42718983 C474.65906539 76.95060807 474.65906539 76.95060807 466.35175133 86.13422108 C459.96299543 91.32372245 454.97311805 93.28463727 446.764081 93.27123547 C445.58827456 93.27521321 445.58827456 93.27521321 444.38871446 93.2792713 C441.74014595 93.28698158 439.09162366 93.28752414 436.44304466 93.28812122 C434.53367414 93.29213471 432.62430447 93.29657275 430.71493584 93.30140078 C425.45069039 93.31338488 420.18645412 93.31901899 414.9221977 93.32358193 C409.25124341 93.3295311 403.58030013 93.34114268 397.90935326 93.35187244 C384.20484054 93.37641256 370.50032418 93.39102615 356.79579625 93.40393251 C352.92624289 93.40764333 349.05668989 93.41161665 345.18713689 93.41568518 C321.16783324 93.44092104 297.1485299 93.46299458 273.12921619 93.47541332 C267.56366473 93.47833466 261.99811329 93.48130218 256.43256187 93.48431873 C255.74111111 93.48468964 255.04966035 93.48506055 254.33725654 93.4854427 C231.92232543 93.4975963 209.50747287 93.52853688 187.09257864 93.57024026 C163.39568552 93.61424839 139.69885346 93.63994831 116.00191647 93.64533389 C103.0839783 93.64874979 90.16616405 93.66052624 77.24826431 93.69343662 C66.24728484 93.72141705 55.24645468 93.73244523 44.24544238 93.72124116 C38.63204973 93.7160494 33.01896984 93.71897531 27.40562248 93.7437067 C22.2651846 93.76616556 17.12528476 93.76548516 11.98483766 93.74650283 C10.12674626 93.74369813 8.26861864 93.74932741 6.41058557 93.76431577 C-4.03437609 93.84341064 -13.4166014 93.89214014 -21.53331667 86.39245546 C-25.91292858 81.78488956 -28.38674565 76.74925134 -29.02324867 70.38422108 C-28.64824867 67.13422108 -28.64824867 67.13422108 -27.58574867 65.19672108 C-24.49331109 63.50086821 -22.09310127 63.7036145 -18.64824867 64.13422108 C-16.16057188 66.35536107 -15.51268537 68.49572323 -14.33574867 71.63422108 C-12.30193789 75.8524953 -10.74708113 76.9403294 -6.64824867 79.13422108 C-3.88476462 79.51125592 -1.5281458 79.67354201 1.22603416 79.63758564 C2.0044348 79.6433994 2.78283543 79.64921317 3.58482397 79.6552031 C6.19698228 79.66981814 8.80820316 79.65591118 11.42035484 79.64215565 C13.31042048 79.64676397 15.20048253 79.65311642 17.09053707 79.66106462 C22.28741539 79.67779045 27.48400058 79.66949674 32.68088007 79.65711975 C38.28423409 79.64808492 43.88753703 79.6620312 49.49088097 79.67303944 C60.46905892 79.69084598 71.44712762 79.68697514 82.4253099 79.67538887 C91.34579666 79.66636323 100.26625276 79.66512679 109.18674278 79.66948414 C110.45531295 79.67009707 111.72388312 79.67071 113.03089482 79.67134151 C115.60779723 79.67262038 118.18469964 79.67391723 120.76160204 79.67523187 C144.24797981 79.68631847 167.73428415 79.67481221 191.22064878 79.65386149 C212.66379564 79.63487885 234.10684749 79.63657736 255.54999352 79.65570545 C279.63806263 79.67712106 303.72606689 79.68554524 327.8141489 79.6732564 C330.38168588 79.67198217 332.94922287 79.67072469 335.51675987 79.66948414 C336.78010818 79.66886704 338.04345648 79.66824993 339.34508806 79.66761413 C348.25708163 79.66415732 357.16904154 79.66999672 366.08102989 79.67940235 C376.9385918 79.69060919 387.79603801 79.68760993 398.65358663 79.66627938 C404.19556565 79.65575132 409.73735161 79.65167711 415.2793293 79.66487598 C420.34969811 79.67676923 425.41969435 79.67028794 430.49002922 79.64896578 C432.32708742 79.6444867 434.16417691 79.64679513 436.0012151 79.65646893 C438.49375034 79.66859069 440.98500087 79.65620152 443.47746849 79.63758564 C444.55343806 79.65163264 444.55343806 79.65163264 445.65114439 79.66596341 C450.64966879 79.5910805 453.49540726 78.2612334 457.35175133 75.13422108 C460.63925091 69.68667705 460.78780142 63.17003253 460.71503258 56.97015858 C460.71553108 56.13384907 460.71602959 55.29753956 460.7165432 54.43588734 C460.71422059 52.68296376 460.70460054 50.9300357 460.68793297 49.17718983 C460.66424861 46.50891533 460.66739755 43.8416373 460.67401695 41.17328358 C460.66844159 39.45973602 460.66133261 37.74619261 460.65253258 36.03265858 C460.65389969 34.84958622 460.65389969 34.84958622 460.65529442 33.64261341 C460.57689543 27.46387831 460.04527297 22.13170814 455.91425133 17.25922108 C451.74906996 13.80516824 448.04088278 13.9893919 442.88064003 14 C441.72374589 13.99647165 441.72374589 13.99647165 440.54348016 13.99287203 C437.9378289 13.98617156 435.33222739 13.98664057 432.72656822 13.98705006 C430.84805816 13.98375209 428.96954881 13.98002667 427.09104037 13.97590858 C421.91221399 13.96587293 416.7333992 13.96216928 411.55456448 13.95951927 C405.97569408 13.95562089 400.3968329 13.94604229 394.81796837 13.9373064 C381.33742375 13.91752964 367.85687837 13.90747463 354.37632287 13.89857861 C348.03244612 13.89419804 341.68857022 13.88883066 335.34469414 13.88358974 C314.26412823 13.86657689 293.18356268 13.85205668 272.1029911 13.844841 C270.73949168 13.84436624 269.37599225 13.84389036 268.01249282 13.84341334 C267.33631387 13.84317697 266.66013492 13.84294059 265.9634657 13.84269705 C262.5375557 13.84149584 259.1116457 13.84028039 255.6857357 13.83905506 C255.00585141 13.83881491 254.32596711 13.83857476 253.62548026 13.83832733 C231.57760701 13.83043285 209.52978753 13.80699793 187.48193777 13.77449912 C164.1770855 13.74021011 140.87226915 13.7204919 117.56738734 13.71719676 C104.86139298 13.71502896 92.15547765 13.70624069 79.44950676 13.68073559 C68.63107704 13.65906989 57.81274554 13.65095782 46.99429658 13.66070237 C41.47245516 13.66525894 35.95081659 13.66328209 30.42900276 13.64394093 C25.37575177 13.62639347 20.32285287 13.62723831 15.26959857 13.64283822 C13.43982728 13.64522712 11.61003214 13.64082477 9.78029743 13.62900957 C7.29517758 13.61395409 4.81131555 13.62351838 2.32622719 13.63923645 C1.6138923 13.62901424 0.90155742 13.61879204 0.16763663 13.60826007 C-5.2477848 13.68314442 -8.2844707 15.14765776 -12.64824867 18.13422108 C-14.39047425 20.57009019 -14.39047425 20.57009019 -15.39824867 23.25922108 C-17.37589654 27.95265299 -17.37589654 27.95265299 -20.64824867 30.13422108 C-26.09269312 29.68977663 -26.09269312 29.68977663 -28.64824867 27.13422108 C-29.44829877 19.40040348 -26.98517488 14.85599244 -22.96074867 8.44672108 C-16.33953715 1.82550956 -9.07381226 -0.01857787 0 0 Z " fill="#000000" transform="translate(33.64824867248535,406.86577892303467)"/>
<path d="M0 0 C0.87195007 -0.00817749 1.74390015 -0.01635498 2.64227295 -0.02478027 C5.53226032 -0.04961998 8.42219846 -0.06615033 11.31225586 -0.08056641 C12.79535153 -0.08855192 12.79535153 -0.08855192 14.30840874 -0.09669876 C19.54592997 -0.12342938 24.78342742 -0.14280103 30.02099609 -0.15722656 C34.34608206 -0.17054401 38.67069381 -0.19835644 42.99560547 -0.23925781 C48.22516536 -0.28871205 53.45429639 -0.3133639 58.68408012 -0.32045364 C60.67148963 -0.32714596 62.65889034 -0.34231505 64.64616585 -0.36634445 C86.10624666 -0.61094101 86.10624666 -0.61094101 94.58070374 7.12442017 C100.51583778 13.04995791 102.77440069 20.39329605 102.8711853 28.68145752 C102.86207626 29.82031403 102.86207626 29.82031403 102.8527832 30.98217773 C102.86066864 32.22308418 102.86066864 32.22308418 102.86871338 33.48905945 C102.88179971 36.19391372 102.87321685 38.89816823 102.86303711 41.60302734 C102.86506092 43.49914156 102.86797492 45.39525501 102.87173462 47.29136658 C102.87614241 51.25283262 102.86977613 55.21409487 102.85571289 59.17553711 C102.83861025 64.23822506 102.84847889 69.30043618 102.86643028 74.36310673 C102.87729995 78.27432309 102.87380739 82.18542743 102.86604691 86.09664726 C102.8640543 87.96285497 102.86647093 89.82907304 102.87348557 91.69526863 C102.88115398 94.30810406 102.86942156 96.92017975 102.8527832 99.53295898 C102.8588559 100.29422089 102.86492859 101.05548279 102.8711853 101.83981323 C102.78099314 109.53336556 100.33072422 116.14309455 95.46459961 122.19287109 C88.23329277 128.79262275 81.39924766 130.49460961 71.84228516 130.48339844 C71.00876526 130.49011566 70.17524536 130.49683289 69.31646729 130.50375366 C66.57802262 130.52265415 63.83982408 130.52665384 61.10131836 130.52880859 C59.18471682 130.53524211 57.26811624 130.54197088 55.35151672 130.54898071 C51.33946457 130.56093366 47.32749838 130.56466358 43.31542969 130.56347656 C38.19452486 130.56327351 33.07417579 130.59057105 27.95340252 130.62502098 C23.99578865 130.64734548 20.03830735 130.6513124 16.08063698 130.65025711 C14.19373472 130.65260489 12.30682835 130.66138162 10.41998863 130.67692184 C-0.77418182 130.7604875 -9.5948948 130.51140791 -19.34790039 124.44287109 C-29.83760439 113.65346126 -28.84117984 99.74375656 -28.80102539 85.62646484 C-28.80237597 83.93978317 -28.80431976 82.25310187 -28.80682373 80.56642151 C-28.80975572 77.04904435 -28.80553928 73.53176947 -28.79614258 70.0144043 C-28.78474038 65.53049053 -28.79132466 61.04681608 -28.80328751 56.56291103 C-28.81055087 53.0857008 -28.80819787 49.60854632 -28.80303192 46.1313343 C-28.80170824 44.47890252 -28.80329763 42.82646549 -28.80799103 41.17403984 C-28.86294584 16.39884961 -28.86294584 16.39884961 -20.53540039 7.19287109 C-13.80722932 1.72766729 -8.62359379 0.04455984 0 0 Z M-11.53540039 17.19287109 C-15.5888242 22.64402725 -15.6620429 27.9675208 -15.6965332 34.59423828 C-15.70149811 35.32178314 -15.70646301 36.049328 -15.71157837 36.79891968 C-15.72613252 39.1958716 -15.73299116 41.59275732 -15.73852539 43.98974609 C-15.74428298 45.66497803 -15.75004063 47.34020996 -15.75579834 49.01544189 C-15.76628956 52.52575994 -15.77214431 56.03605521 -15.77563477 59.54638672 C-15.78111148 64.02613834 -15.80512978 68.50558481 -15.83360672 72.98524094 C-15.85230848 76.44611466 -15.85744272 79.90691603 -15.85897064 83.367836 C-15.86198138 85.01831986 -15.86995605 86.66880293 -15.88315582 88.31923676 C-16.02262441 100.55818912 -16.02262441 100.55818912 -12.53540039 112.19287109 C-7.64727415 117.08099734 -3.28412495 117.34422396 3.32910156 117.35400391 C4.52962158 117.36145126 4.52962158 117.36145126 5.75439453 117.36904907 C8.40389871 117.38366174 11.05334299 117.39047143 13.70288086 117.39599609 C15.54509991 117.40174857 17.38731894 117.40750629 19.22953796 117.41326904 C23.09394612 117.42377668 26.95833348 117.42962081 30.82275391 117.43310547 C35.76918302 117.43858774 40.71533654 117.46261105 45.66167927 117.49107742 C49.46814267 117.5097222 53.27453995 117.5149104 57.08104515 117.51644135 C58.90426324 117.51946457 60.72748025 117.52748195 62.55065346 117.54062653 C65.10461881 117.55772451 67.65791433 117.55579767 70.21191406 117.54931641 C70.96174057 117.55853119 71.71156708 117.56774597 72.4841156 117.57723999 C77.22297639 117.53966073 80.44011154 116.69441384 84.46459961 114.19287109 C89.16287887 109.11365027 89.6157253 105.10329762 89.62573242 98.42016602 C89.63069733 97.62957291 89.63566223 96.8389798 89.64077759 96.02442932 C89.65538942 93.40739065 89.66219981 90.79041261 89.66772461 88.17333984 C89.67347716 86.35354104 89.67923489 84.53374225 89.68499756 82.71394348 C89.69550496 78.89661375 89.70134924 75.07930505 89.70483398 71.26196289 C89.71031611 66.37606643 89.7343392 61.49044901 89.76280594 56.60464001 C89.78145181 52.84449965 89.78663897 49.08442622 89.78816986 45.32424355 C89.79119285 43.52335396 89.79920946 41.72246546 89.81235504 39.92162132 C89.82945531 37.39878642 89.82752565 34.87662949 89.82104492 32.35375977 C89.8302597 31.613284 89.83947449 30.87280823 89.84896851 30.1098938 C89.79731788 23.67462759 88.17478508 20.01766138 83.80712891 15.35731506 C79.76695829 12.74111573 76.64482422 12.49128622 71.98413086 12.56176758 C70.73906265 12.55103462 70.73906265 12.55103462 69.46884155 12.54008484 C66.73769312 12.52323972 64.00819593 12.54257508 61.27709961 12.56396484 C59.37190617 12.56313576 57.46671281 12.56067487 55.56152344 12.55665588 C51.57359216 12.55380075 47.5862234 12.56847127 43.59838867 12.59594727 C38.49378587 12.6300295 33.39018866 12.6240091 28.28553772 12.60528469 C24.35290182 12.59470198 20.42049878 12.60366408 16.48788452 12.61866951 C14.60607597 12.62384244 12.72424301 12.62338033 10.84243774 12.61712456 C8.2094518 12.61165695 5.5778917 12.63209608 2.94506836 12.65942383 C1.78531998 12.64963501 1.78531998 12.64963501 0.60214233 12.63964844 C-4.58328593 12.730885 -7.54063244 13.91602214 -11.53540039 17.19287109 Z " fill="#000000" transform="translate(32.535400390625,43.80712890625)"/>
<path d="M0 0 C1.84744888 -0.00202459 3.69489697 -0.00493922 5.54234314 -0.00869751 C9.39948189 -0.01310164 13.25641114 -0.00675096 17.11352539 0.00732422 C22.0382073 0.02442699 26.962399 0.01455582 31.88706303 -0.00339317 C35.69709416 -0.01427256 39.50701048 -0.01076587 43.31704521 -0.0030098 C45.13218686 -0.00101989 46.94733919 -0.00342419 48.76246834 -0.01044846 C60.41658258 -0.04566499 70.64143239 -0.0383149 80.171875 7.58984375 C87.00457996 14.48209298 88.11231618 22.30572131 88.12597656 31.62597656 C88.13094147 32.44130356 88.13590637 33.25663055 88.14102173 34.09666443 C88.15558948 36.78580581 88.1624367 39.47488819 88.16796875 42.1640625 C88.17372506 44.04107666 88.17948273 45.91809082 88.1852417 47.79510498 C88.19573667 51.72912875 88.20158903 55.66313218 88.20507812 59.59716797 C88.21055668 64.62171245 88.23457746 69.64598511 88.26305008 74.67044449 C88.28173605 78.54822559 88.28688525 82.42594203 88.288414 86.30376434 C88.2914281 88.15520461 88.29941435 90.00664408 88.31259918 91.85803986 C88.32978319 94.45667297 88.32774949 97.0546524 88.32128906 99.65332031 C88.33050385 100.40792038 88.33971863 101.16252045 88.34921265 101.93998718 C88.28490184 110.25835099 85.81281504 118.30743363 79.96484375 124.3984375 C69.79946518 132.78431873 57.11971622 131.69733014 44.68359375 131.6640625 C42.901977 131.66541205 41.12036061 131.66735499 39.33874512 131.66986084 C35.61690746 131.67279847 31.89516623 131.66855844 28.17333984 131.65917969 C23.42247591 131.647786 18.67183802 131.65435278 13.92098236 131.66632462 C10.24564944 131.67358008 6.57036938 131.67123841 2.89503479 131.66606903 C1.14408847 131.66474272 -0.60686278 131.66634423 -2.35780334 131.67102814 C-25.9267014 131.72025307 -25.9267014 131.72025307 -35.03515625 123.3984375 C-42.25100292 115.79254506 -43.18713215 106.75281942 -43.18041992 96.6940918 C-43.18545784 95.59011551 -43.18545784 95.59011551 -43.19059753 94.46383667 C-43.2000339 92.05009231 -43.20204697 89.63641787 -43.203125 87.22265625 C-43.20634275 85.5302579 -43.2097072 83.83785982 -43.21321106 82.14546204 C-43.21918411 78.60421098 -43.22105285 75.06298425 -43.22045898 71.52172852 C-43.22035749 67.00632939 -43.23400507 62.49108795 -43.25123119 57.97572613 C-43.26240446 54.48136187 -43.26437656 50.98703509 -43.26384926 47.4926548 C-43.26502153 45.82905344 -43.26940054 44.16545087 -43.27718163 42.50186729 C-43.38331689 17.46664414 -43.38331689 17.46664414 -35.34765625 8.51953125 C-25.43078001 -1.05745206 -12.91732883 -0.05005261 0 0 Z M-25.6796875 17.828125 C-30.11863858 23.32114139 -30.18490308 28.08726621 -30.18041992 34.92333984 C-30.18377853 35.66385086 -30.18713715 36.40436188 -30.19059753 37.16731262 C-30.20006775 39.60635065 -30.20204865 42.04531975 -30.203125 44.484375 C-30.20634025 46.18681872 -30.20970453 47.88926217 -30.21321106 49.59170532 C-30.21919245 53.15749756 -30.22105197 56.7232656 -30.22045898 60.2890625 C-30.22035741 64.84741217 -30.23400965 69.40560594 -30.25123119 73.96391869 C-30.2623756 77.47961127 -30.26437744 80.99526645 -30.26384926 84.51097488 C-30.26502569 86.19101117 -30.26942849 87.87104854 -30.27718163 89.55106735 C-30.28703116 91.90573656 -30.28408409 94.26007095 -30.27807617 96.61474609 C-30.28369568 97.3017308 -30.28931519 97.98871552 -30.29510498 98.69651794 C-30.26148954 103.9080412 -29.81557125 109.19703767 -26.44921875 113.359375 C-25.85882812 113.82601562 -25.2684375 114.29265625 -24.66015625 114.7734375 C-24.07492188 115.25554687 -23.4896875 115.73765625 -22.88671875 116.234375 C-18.73089448 118.8471084 -14.22428588 118.55208153 -9.45605469 118.55957031 C-8.69778885 118.56453522 -7.93952301 118.56950012 -7.15827942 118.57461548 C-4.65368739 118.58920051 -2.14915874 118.59603359 0.35546875 118.6015625 C2.1017863 118.6073177 3.84810385 118.61307539 5.59442139 118.61883545 C9.25614719 118.62933555 12.91785111 118.63518445 16.57958984 118.63867188 C21.25788058 118.64414937 25.93587922 118.66816561 30.61407852 118.69664383 C34.22246122 118.71532492 37.83077439 118.72047875 41.43920135 118.72200775 C43.16307926 118.72502332 44.88695627 118.73301461 46.61078644 118.74619293 C49.03013416 118.76336564 51.4487791 118.76134601 53.86816406 118.75488281 C54.923657 118.76870499 54.923657 118.76870499 56.00047302 118.7828064 C61.58113452 118.73641449 67.34962732 117.76094773 71.60229969 113.91920757 C77.22646375 107.37349316 75.65999448 96.79981914 75.59375 88.70703125 C75.5945796 86.87435261 75.59704244 85.04167406 75.60105896 83.20899963 C75.60390955 79.37844296 75.58928691 75.54847339 75.56176758 71.71801758 C75.52766184 66.81982214 75.53371804 61.92267418 75.55243015 57.02442837 C75.56302145 53.24358968 75.55404342 49.46299281 75.53904533 45.68217659 C75.53388031 43.87655417 75.53432483 42.07090633 75.54059029 40.2652874 C75.54606939 37.73807729 75.52558374 35.21234427 75.49829102 32.68530273 C75.50481689 31.94692673 75.51134277 31.20855072 75.51806641 30.44779968 C75.41717048 24.92555468 73.97802721 21.86313838 70.96484375 17.3984375 C66.29012556 13.01588919 61.30858781 13.246658 55.17041016 13.23730469 C53.99893181 13.22985733 53.99893181 13.22985733 52.80378723 13.22225952 C50.22465122 13.20767535 47.64557669 13.20084255 45.06640625 13.1953125 C43.27045694 13.18955846 41.47450764 13.18380076 39.67855835 13.17803955 C35.91428339 13.16754057 32.15002972 13.16169052 28.38574219 13.15820312 C23.56825413 13.15271728 18.75104853 13.12868269 13.93364906 13.10023117 C10.22412295 13.08158617 6.51466468 13.07639822 2.80509567 13.07486725 C1.02932565 13.07184497 -0.74644329 13.06383079 -2.52216721 13.05068207 C-5.00897345 13.03358063 -7.49509201 13.03551151 -9.98193359 13.04199219 C-10.71148758 13.0327774 -11.44104156 13.02356262 -12.19270325 13.0140686 C-17.56065319 13.05777376 -21.59757089 14.27930153 -25.6796875 17.828125 Z " fill="#000000" transform="translate(47.03515625,219.6015625)"/>
<path d="M0 0 C3 2 3 2 3.67578125 3.84765625 C4.50194087 9.33216166 4.8413324 15.06505425 2 20 C-1 22 -1 22 -4.0625 21.75 C-7 21 -7 21 -9 19 C-9.22507384 16.12373171 -9.32430406 13.37546976 -9.3125 10.5 C-9.32861328 9.71496094 -9.34472656 8.92992187 -9.36132812 8.12109375 C-9.36328125 5.84375 -9.36328125 5.84375 -9 2 C-5.53001271 -0.31332486 -4.07490752 -0.33957563 0 0 Z " fill="#000000" transform="translate(14,443)"/>
</svg>
