<?xml version="1.0" standalone="no"?>
<!DOCTYPE svg PUBLIC "-//W3C//DTD SVG 20010904//EN"
 "http://www.w3.org/TR/2001/REC-SVG-20010904/DTD/svg10.dtd">
<svg version="1.0" xmlns="http://www.w3.org/2000/svg"
 width="512.000000pt" height="512.000000pt" viewBox="0 0 512.000000 512.000000"
 preserveAspectRatio="xMidYMid meet">

<g transform="translate(0.000000,512.000000) scale(0.100000,-0.100000)"
fill="#000000" stroke="none">
<path d="M1460 4949 c-446 -50 -857 -298 -1138 -687 -74 -104 -190 -332 -231
-457 -37 -115 -67 -254 -80 -377 -7 -63 -11 -479 -11 -1176 0 -940 2 -1091 16
-1173 27 -161 85 -310 175 -449 62 -96 238 -265 337 -324 286 -170 630 -191
943 -57 120 52 219 121 319 221 198 198 290 414 310 726 5 82 16 176 25 208
57 215 179 372 387 500 624 383 922 1137 728 1845 -155 564 -618 1019 -1181
1160 -183 46 -410 61 -599 40z m447 -314 c273 -53 515 -186 711 -389 190 -198
299 -407 359 -686 25 -118 25 -381 0 -500 -39 -185 -114 -362 -218 -517 -65
-97 -251 -283 -344 -344 -38 -26 -104 -68 -145 -95 -100 -65 -214 -181 -288
-294 -114 -173 -166 -340 -182 -584 -13 -209 -42 -307 -129 -435 -193 -284
-564 -405 -871 -284 -226 90 -399 287 -472 539 l-23 79 0 1150 0 1150 23 105
c44 200 116 373 223 535 66 100 270 305 364 367 178 117 367 190 567 218 89
13 328 4 425 -15z"/>
<path d="M1490 4349 c-171 -26 -374 -120 -515 -237 -189 -156 -331 -413 -364
-655 -17 -124 -14 -786 4 -871 25 -117 78 -209 178 -311 49 -49 93 -100 98
-113 35 -92 -42 -202 -141 -202 -76 0 -150 -74 -150 -150 0 -50 35 -107 80
-130 98 -50 273 2 385 115 104 103 150 242 128 382 -16 107 -55 175 -153 273
-130 130 -134 142 -138 385 -5 291 18 376 133 490 177 178 453 178 630 0 206
-205 171 -528 -75 -695 -88 -60 -111 -129 -70 -210 26 -52 87 -84 142 -77 88
12 242 141 323 272 24 38 58 113 76 165 30 88 33 105 33 225 0 220 -61 375
-210 527 -215 221 -531 286 -823 169 -29 -12 -55 -20 -57 -18 -9 9 71 109 134
169 258 243 626 276 922 83 201 -131 340 -379 340 -605 0 -69 29 -124 80 -150
77 -39 163 -13 201 62 19 38 21 53 15 138 -16 248 -125 488 -303 669 -135 136
-303 231 -498 282 -94 24 -305 33 -405 18z"/>
<path d="M4052 3602 c-41 -23 -155 -152 -233 -265 -70 -102 -167 -298 -203
-412 -181 -565 -56 -1168 333 -1610 39 -43 85 -87 103 -97 87 -46 196 4 214
98 12 63 -3 98 -73 176 -177 197 -290 423 -339 678 -24 129 -24 351 0 480 49
255 162 481 339 678 70 78 85 113 73 176 -18 94 -127 144 -214 98z"/>
<path d="M4495 3185 c-100 -35 -268 -292 -324 -494 -49 -177 -49 -383 0 -562
46 -170 206 -429 298 -483 99 -58 223 13 223 128 0 54 -8 68 -77 148 -68 77
-127 188 -156 294 -32 111 -32 277 0 388 29 106 88 217 156 294 69 80 77 94
77 148 0 104 -99 174 -197 139z"/>
<path d="M4904 2756 c-68 -30 -143 -157 -165 -278 -23 -126 24 -278 112 -371
48 -50 92 -64 156 -52 71 13 126 100 109 172 -4 16 -24 52 -44 82 -52 77 -52
126 3 205 34 50 40 66 40 110 0 110 -107 177 -211 132z"/>
</g>
</svg>
