<?xml version="1.0" standalone="no"?>
<!DOCTYPE svg PUBLIC "-//W3C//DTD SVG 20010904//EN"
 "http://www.w3.org/TR/2001/REC-SVG-20010904/DTD/svg10.dtd">
<svg version="1.0" xmlns="http://www.w3.org/2000/svg"
 width="512.000000pt" height="512.000000pt" viewBox="0 0 512.000000 512.000000"
 preserveAspectRatio="xMidYMid meet">

<g transform="translate(0.000000,512.000000) scale(0.100000,-0.100000)"
fill="#000000" stroke="none">
<path d="M2509 5101 c-23 -18 -24 -25 -27 -178 -3 -149 -2 -160 18 -186 28
-35 87 -38 116 -6 16 18 19 40 22 161 2 77 1 151 -2 164 -15 58 -82 82 -127
45z"/>
<path d="M1425 4805 c-14 -13 -25 -36 -25 -50 0 -31 135 -270 164 -290 11 -8
31 -15 44 -15 31 0 72 43 72 76 0 32 -134 268 -164 289 -30 22 -64 18 -91 -10z"/>
<path d="M3596 4808 c-38 -34 -157 -247 -158 -281 -2 -54 64 -93 112 -67 24
13 170 269 170 298 0 30 -43 72 -74 72 -14 0 -36 -10 -50 -22z"/>
<path d="M2540 4419 c-801 -58 -1423 -522 -1600 -1193 -39 -151 -51 -244 -51
-421 0 -434 141 -867 415 -1280 123 -185 182 -299 232 -451 65 -200 75 -286
81 -682 l5 -352 25 -20 c25 -20 43 -20 924 -20 493 0 905 3 914 6 43 17 45 39
45 512 0 443 0 449 21 468 19 17 43 20 223 24 183 5 205 7 247 28 74 36 125
87 161 160 l33 67 3 256 4 256 93 10 c106 13 148 31 175 76 42 68 35 92 -151
508 l-171 382 1 151 c7 774 -420 1340 -1122 1486 -82 17 -330 42 -382 39 -11
-1 -67 -5 -125 -10z m465 -179 c337 -72 594 -234 773 -489 166 -237 255 -579
236 -907 l-7 -113 172 -385 c95 -212 170 -390 166 -396 -3 -5 -18 -10 -32 -10
-15 0 -67 -5 -117 -12 -144 -18 -136 1 -136 -340 0 -326 -4 -344 -81 -395 -42
-28 -43 -28 -248 -33 -223 -5 -237 -9 -295 -66 -62 -63 -61 -49 -64 -511 l-3
-423 -799 0 -800 0 0 259 c0 292 -13 424 -59 604 -55 211 -114 337 -273 580
-202 308 -310 567 -370 887 -30 155 -32 460 -5 593 125 617 621 1052 1322
1161 153 24 158 24 345 21 129 -3 201 -9 275 -25z"/>
<path d="M2542 3999 c-31 -12 -76 -43 -111 -75 l-59 -54 -58 27 c-50 23 -72
28 -144 28 -96 0 -166 -25 -232 -84 -41 -36 -93 -113 -103 -152 -6 -23 -14
-28 -49 -33 -63 -10 -175 -67 -223 -114 -51 -49 -88 -112 -103 -174 -8 -31
-19 -49 -31 -53 -33 -11 -116 -100 -145 -156 -26 -49 -29 -64 -29 -155 0 -93
2 -105 32 -162 28 -55 30 -65 21 -104 -21 -96 20 -207 108 -287 31 -28 59 -51
62 -51 4 0 7 -42 7 -93 0 -80 3 -99 28 -149 53 -107 188 -206 327 -239 181
-42 403 15 518 134 l34 35 56 -26 c43 -19 74 -26 122 -26 80 0 127 15 187 61
l47 36 50 -19 c36 -13 77 -19 141 -19 78 0 97 4 147 28 63 31 118 87 150 151
l21 44 86 4 c107 6 163 30 236 99 71 67 107 142 110 227 2 60 4 63 41 90 57
42 96 119 96 191 0 71 -19 117 -71 174 l-40 43 15 50 c20 63 13 172 -15 237
-42 97 -181 207 -263 207 -31 0 -52 19 -88 80 -70 118 -257 188 -395 146 l-40
-12 -60 62 c-44 45 -75 67 -118 82 -77 29 -191 29 -265 1z m191 -140 c38 -10
100 -58 117 -89 7 -13 3 -33 -15 -73 -21 -45 -24 -59 -15 -83 14 -35 38 -53
71 -54 35 0 57 18 83 71 31 62 75 89 144 89 69 0 133 -29 170 -78 23 -30 27
-45 26 -96 -1 -34 -4 -82 -9 -107 -7 -42 -5 -47 20 -67 32 -26 62 -28 91 -7
20 13 29 29 54 98 l10 27 37 -15 c81 -34 126 -100 126 -186 0 -76 -31 -131
-103 -178 -45 -30 -56 -42 -58 -68 -4 -43 11 -69 47 -81 26 -9 39 -6 92 20
l62 31 24 -27 c28 -33 29 -69 2 -107 -20 -29 -52 -38 -64 -19 -11 18 -103 60
-132 60 -38 0 -73 -36 -73 -75 0 -35 22 -58 83 -90 85 -43 89 -135 10 -217
-32 -33 -97 -67 -108 -56 -2 1 1 26 6 53 33 170 -95 345 -251 345 -62 0 -90
-23 -90 -75 0 -43 29 -75 68 -75 66 0 122 -67 122 -147 0 -40 -15 -71 -73
-146 -20 -26 -39 -57 -42 -69 -11 -36 -53 -87 -87 -104 -22 -12 -51 -15 -103
-12 -59 3 -81 9 -121 33 -54 34 -94 93 -94 141 0 34 -30 80 -59 89 -27 8 -67
-10 -87 -39 -14 -22 -15 -35 -5 -88 6 -36 23 -83 41 -111 l30 -48 -33 -19
c-63 -39 -159 -17 -200 46 -15 22 -41 41 -79 58 -94 40 -108 77 -83 218 6 31
3 41 -19 62 -55 56 -122 17 -146 -84 -25 -105 16 -223 101 -290 l49 -39 -42
-35 c-68 -58 -136 -80 -253 -81 -111 0 -167 15 -243 67 -62 43 -94 96 -96 160
-1 51 0 53 24 51 87 -5 228 40 284 92 50 46 24 135 -39 135 -14 0 -50 -14 -80
-31 -125 -70 -277 -40 -342 69 -26 43 -30 109 -9 150 27 52 93 100 158 116 38
9 68 44 68 78 0 33 -39 78 -68 78 -36 0 -118 -30 -166 -60 -26 -17 -50 -29
-53 -26 -3 2 -7 22 -10 44 -6 41 21 118 55 156 23 26 111 66 145 66 42 0 86
27 93 57 10 37 -7 76 -39 91 -15 7 -27 17 -27 21 0 17 71 80 117 102 40 20 63
24 133 23 47 0 105 -4 130 -8 61 -11 94 14 94 69 0 44 -26 71 -80 81 -19 3
-34 9 -34 12 0 3 12 21 26 40 54 70 171 93 248 49 67 -38 97 -85 106 -167 9
-86 27 -110 81 -110 77 0 100 85 58 214 l-21 65 20 28 c30 42 57 63 99 79 46
16 77 17 126 3z"/>
<path d="M2903 3460 c-44 -18 -57 -81 -25 -120 16 -20 29 -23 90 -24 64 -1 74
-4 102 -31 19 -18 33 -43 37 -68 9 -56 33 -81 78 -81 74 0 98 81 51 179 -47
100 -135 155 -246 154 -36 0 -75 -4 -87 -9z"/>
<path d="M2203 3260 c-47 -19 -57 -94 -22 -170 36 -80 98 -131 184 -150 33 -7
62 -22 85 -45 94 -91 241 -100 326 -19 52 48 44 112 -16 133 -27 9 -39 7 -78
-14 -57 -29 -94 -24 -125 17 -60 81 -71 88 -125 81 -47 -5 -53 -3 -81 24 -16
17 -33 43 -36 59 -11 50 -27 73 -58 84 -16 5 -30 10 -31 9 -1 0 -11 -4 -23 -9z"/>
<path d="M653 4030 c-27 -11 -43 -40 -43 -79 0 -22 8 -36 33 -54 58 -44 245
-147 266 -147 11 0 32 11 47 23 30 26 37 74 15 101 -15 18 -246 151 -276 159
-11 3 -30 2 -42 -3z"/>
<path d="M4385 4019 c-87 -47 -223 -129 -233 -141 -6 -7 -13 -25 -17 -40 -6
-22 -1 -33 23 -58 17 -16 39 -30 49 -30 24 0 262 135 286 162 35 41 11 110
-43 123 -16 3 -40 -2 -65 -16z"/>
</g>
</svg>
