<?xml version="1.0" encoding="UTF-8"?>
<svg version="1.1" xmlns="http://www.w3.org/2000/svg" width="512" height="512">
<path d="M0 0 C0.804375 0.69351563 1.60875 1.38703125 2.4375 2.1015625 C39.95425814 35.16921791 62.86065491 77.9524857 72 127 C72.13422363 127.70318359 72.26844727 128.40636719 72.40673828 129.13085938 C76.49783321 151.70956052 75.45444805 177.58869408 71 200 C70.82839355 200.86834473 70.65678711 201.73668945 70.47998047 202.63134766 C66.80945209 220.56412574 61.20423787 237.6909604 52.66894531 253.91064453 C52.2922168 254.65169434 51.91548828 255.39274414 51.52734375 256.15625 C51.01288696 257.12788086 51.01288696 257.12788086 50.48803711 258.11914062 C49.80287719 260.04336316 49.80287719 260.04336316 50.71191406 262.04418945 C52.01986148 264.03015738 53.34641722 265.51569892 55.08203125 267.13671875 C55.98272339 267.99632202 55.98272339 267.99632202 56.90161133 268.87329102 C57.53220459 269.47197998 58.16279785 270.07066895 58.8125 270.6875 C66.32223169 278.00328495 71.71518935 284.45251776 72.125 295.3125 C72 299 72 299 71.05099487 302.72938538 C70.71971028 305.40930493 70.77164323 306.6128585 72.15607071 308.95992851 C74.0240528 311.10605118 75.99347952 313.06040939 78.05908203 315.01733398 C78.82143661 315.77457764 79.5837912 316.53182129 80.36924744 317.31201172 C82.89532414 319.81142063 85.45129494 322.27786331 88.0078125 324.74609375 C89.770703 326.48202699 91.53132397 328.22026777 93.2897644 329.96070862 C97.92811322 334.54199935 102.59102646 339.09739307 107.2612915 343.64611816 C114.72063014 350.91706156 122.1477753 358.22065366 129.56429672 365.53523445 C132.15412508 368.08061324 134.75763552 370.61133987 137.36306763 373.14073181 C138.96399999 374.711132 140.56451621 376.28195658 142.16455078 377.85327148 C142.88685379 378.54705399 143.6091568 379.24083649 144.35334778 379.9556427 C152.96111316 388.46738772 158.22223314 398.94688095 158.9921875 411.08203125 C159.02399993 422.96397329 155.02867663 434.62161978 146.8203125 443.41015625 C135.393082 453.39059147 123.97890949 456.2436236 109.18896484 455.24560547 C91.91811833 453.30778798 80.04475838 438.24653163 68.74558067 426.49856186 C64.77508013 422.38107146 60.76825586 418.29907433 56.76757812 414.2109375 C51.70427313 409.03363569 46.65262079 403.84641363 41.64086914 398.61914062 C37.56305934 394.36790309 33.44929885 390.15457167 29.30924416 385.96396255 C27.74677831 384.36889075 26.1978215 382.76046323 24.66330528 381.13848495 C16.73525108 371.86956446 16.73525108 371.86956446 6.02334595 367.30426025 C2.3278395 367.49513144 2.3278395 367.49513144 -1.00846863 368.33206177 C-5.81914678 369.40617247 -9.67598636 368.18484492 -14 366 C-18.17925383 363.15578559 -21.53368247 359.49822809 -24.98828125 355.83984375 C-25.51631348 355.28997803 -26.0443457 354.7401123 -26.58837891 354.17358398 C-27.64121483 353.07172287 -28.67924667 351.95549251 -29.70068359 350.82446289 C-32.49047335 347.8123704 -32.49047335 347.8123704 -36.33203125 346.8984375 C-40.1452311 348.47284798 -43.814603 350.2739635 -47.5 352.125 C-74.84114891 365.38805056 -104.95967751 371.45401425 -135.25 371.375 C-136.49006805 371.37368576 -136.49006805 371.37368576 -137.75518799 371.37234497 C-180.09285157 371.22534979 -222.43173102 358.92244889 -257 334 C-258.48886719 332.93845703 -258.48886719 332.93845703 -260.0078125 331.85546875 C-266.17316637 327.35365666 -271.89114242 322.53725992 -277.4765625 317.3359375 C-279.64802889 315.32581845 -281.8621479 313.40508892 -284.125 311.5 C-318.77415144 281.12074399 -341.78838658 230.48390508 -346 185 C-346.16619809 181.43639493 -346.21078667 177.87571158 -346.23828125 174.30859375 C-346.25038887 172.77598656 -346.25038887 172.77598656 -346.26274109 171.2124176 C-346.27652391 169.04991315 -346.28727179 166.88738748 -346.29516602 164.72485352 C-346.30658075 162.56007293 -346.32686124 160.39531807 -346.35668945 158.23071289 C-346.62646944 138.58801703 -344.56849719 119.72820401 -338.8125 100.875 C-338.37248657 99.4046228 -338.37248657 99.4046228 -337.92358398 97.90454102 C-327.58552987 64.51480294 -308.99596477 36.10400354 -285 11 C-284.36449219 10.32324219 -283.72898437 9.64648438 -283.07421875 8.94921875 C-278.12770112 3.81381262 -272.60644245 -0.60898931 -267 -5 C-266.46407227 -5.42297363 -265.92814453 -5.84594727 -265.37597656 -6.28173828 C-193.76062471 -62.35476944 -88.60735667 -64.52677429 0 0 Z M-231 -7 C-231.70656738 -6.60200195 -232.41313477 -6.20400391 -233.14111328 -5.79394531 C-253.21945065 5.70764977 -271.93585125 21.6242144 -286 40 C-286.80953125 41.00546875 -287.6190625 42.0109375 -288.453125 43.046875 C-316.39110093 77.94515852 -331.52379073 124.33501002 -329 169 C-328.95746094 169.78584473 -328.91492188 170.57168945 -328.87109375 171.38134766 C-327.15594294 199.67583881 -319.63508144 227.12207556 -306 252 C-305.38640625 253.16402344 -304.7728125 254.32804687 -304.140625 255.52734375 C-297.32191515 268.05179221 -288.72760732 279.40387757 -279.015625 289.83203125 C-277.09090389 291.90222547 -275.26252513 294.02953109 -273.4375 296.1875 C-269.92491554 300.19503954 -266.12044958 303.62750885 -262 307 C-261.50612793 307.40621582 -261.01225586 307.81243164 -260.50341797 308.23095703 C-219.35365086 341.89671026 -169.00645652 357.76723566 -116 353 C-65.61416798 347.74672604 -18.3846291 321.89644412 13.62109375 282.65625 C20.06251355 274.4989495 25.88220943 266.05129902 31 257 C31.35513672 256.38253906 31.71027344 255.76507813 32.07617188 255.12890625 C48.42929824 226.5038497 56.46194077 194.52593489 56.375 161.625 C56.37445618 160.84341522 56.37391235 160.06183044 56.37335205 159.25656128 C56.20361486 105.83211985 33.76047344 58.3474109 -3.66772461 20.95947266 C-14.53831386 10.38385652 -26.79428981 1.44213814 -40 -6 C-40.67691895 -6.38752441 -41.35383789 -6.77504883 -42.05126953 -7.17431641 C-61.3148386 -18.11923494 -81.29933192 -24.77751237 -103 -29 C-104.73056641 -29.35191406 -104.73056641 -29.35191406 -106.49609375 -29.7109375 C-148.61142649 -37.26869552 -194.04251651 -27.90211652 -231 -7 Z M38 278 C36.40315893 280.09491059 34.91135475 282.19591819 33.4375 284.375 C29.63392731 289.85496983 25.62593679 294.89660511 21.06640625 299.78125 C19.22067316 301.76305793 17.48389326 303.79603216 15.75 305.875 C6.33162125 316.60807236 -6.14515528 328.57257764 -19 335 C-17.39017849 338.91754252 -14.73165159 341.70514621 -11.8125 344.6875 C-11.35552734 345.18572266 -10.89855469 345.68394531 -10.42773438 346.19726562 C-7.98985117 348.68924888 -5.90024432 350.03765458 -2.63671875 351.26953125 C1.33321836 350.9753039 1.79922077 350.65843892 4.57910156 348.11206055 C5.28065872 347.47141159 5.98221588 346.83076263 6.70503235 346.17070007 C14.02823608 339.24403213 21.19209354 332.15675472 28.34741211 325.05761719 C30.41202729 323.01091819 32.4848619 320.97311116 34.56518555 318.94238281 C37.09705847 316.47074733 39.61384645 313.9846568 42.12062263 311.48757935 C43.53175122 310.08910188 44.95746572 308.7053916 46.38340759 307.32202148 C51.56800056 302.42443624 51.56800056 302.42443624 54.16430664 296.0078125 C53.97335743 292.51227873 53.44756674 291.44756674 51 289 C50.35675781 288.34 49.71351563 287.68 49.05078125 287 C48.37402344 286.34 47.69726562 285.68 47 285 C46.35417969 284.319375 45.70835937 283.63875 45.04296875 282.9375 C42.60751285 280.37736263 42.60751285 280.37736263 40 278 C39.34 278 38.68 278 38 278 Z M55.50668335 322.25280762 C54.92488312 322.83904907 54.34308289 323.42529053 53.74365234 324.02929688 C53.08311859 324.68998169 52.42258484 325.3506665 51.74203491 326.03137207 C51.03052277 326.75320679 50.31901062 327.4750415 49.5859375 328.21875 C48.85629791 328.95121948 48.12665833 329.68368896 47.37490845 330.43835449 C45.0368896 332.78760224 42.70590539 335.14369618 40.375 337.5 C38.79472806 339.09029823 37.21400471 340.68014803 35.6328125 342.26953125 C31.74994808 346.17449196 27.87284291 350.08510139 24 354 C25.3172982 356.90867117 26.73838112 358.99287654 28.98254395 361.25669861 C29.59348907 361.87761887 30.2044342 362.49853912 30.83389282 363.13827515 C31.50294647 363.80799347 32.17200012 364.47771179 32.86132812 365.16772461 C33.56732147 365.88204147 34.27331482 366.59635834 35.0007019 367.33232117 C37.33875455 369.6944866 39.68441277 372.04890757 42.03125 374.40234375 C43.66360958 376.04367131 45.29589201 377.68507562 46.92810059 379.32655334 C50.35426171 382.76921237 53.78480077 386.20744467 57.21777344 389.64331055 C61.60308696 394.03399698 65.97203897 398.44058227 70.3371048 402.85138607 C73.7053683 406.2494875 77.08492414 409.63618635 80.46763611 413.01989937 C82.08236908 414.63882408 83.69300233 416.26184917 85.29933167 417.88911247 C87.55563957 420.17246072 89.82743521 422.43926405 92.10351562 424.70288086 C92.75637543 425.37057495 93.40923523 426.03826904 94.08187866 426.72619629 C99.52272004 432.08318272 105.68380926 436.11808603 113.25 437.6640625 C121.37662125 437.54862754 127.58765958 435.75935135 133.84765625 430.42578125 C138.38477129 425.64341675 140.84763679 420.08841273 141.09375 413.484375 C140.47113171 403.33569685 135.50438563 396.90663127 128.50927734 390.0234375 C127.76088089 389.27124435 127.01248444 388.51905121 126.2414093 387.74406433 C123.78256191 385.27784904 121.30968781 382.82625927 118.8359375 380.375 C117.11935711 378.66080513 115.40351682 376.94586884 113.68838501 375.23022461 C110.10179624 371.64675681 106.50860871 368.07008875 102.91015625 364.49853516 C98.28826645 359.91075222 93.67978084 355.30978432 89.07567406 350.7041626 C85.53850625 347.16753717 81.99616186 343.63613663 78.45201492 340.10650635 C76.74988153 338.41075273 75.04897035 336.71377141 73.34928513 335.01556396 C70.98182894 332.65242091 68.60792086 330.29596753 66.23193359 327.94140625 C65.52540146 327.23396774 64.81886932 326.52652924 64.09092712 325.7976532 C63.44606857 325.16132462 62.80121002 324.52499603 62.1368103 323.86938477 C61.57602468 323.31195084 61.01523907 322.75451691 60.43745995 322.18019104 C58.38856222 320.49799409 57.52792917 320.5570975 55.50668335 322.25280762 Z " fill="#000000" transform="translate(346,53)"/>
<path d="M0 0 C0.474375 0.4125 0.94875 0.825 1.4375 1.25 C4.62166946 -0.27840134 7.6333838 -2.02706638 10.65625 -3.84765625 C18.76862046 -7.95721234 31.5153884 -6.6635424 40 -4.25 C53.16621655 0.43350489 64.99213294 7.62101104 76.69091797 15.14404297 C79.0497849 16.63770626 81.45962264 18.03755176 83.875 19.4375 C94.12120335 25.60244252 102.36872601 32.6267856 105.98046875 44.43359375 C107.03959263 50.96033153 106.6417118 57.6622785 106.4375 64.25 C106.994375 64.46914062 107.55125 64.68828125 108.125 64.9140625 C113.91639023 67.32061992 118.65440202 70.20200929 123.4375 74.25 C124.0459375 74.75144531 124.654375 75.25289063 125.28125 75.76953125 C132.42186607 82.20548126 137.85797801 92.5939639 138.58911133 102.25292969 C138.62372429 103.65253988 138.64822883 105.05243328 138.66308594 106.45239258 C138.74311715 113.57437008 139.20600486 118.36975663 143.80859375 124.0703125 C151.03936911 133.74602629 152.16636249 145.5882001 151.4375 157.25 C150.40541676 163.75131176 148.52772995 169.20282444 145.4375 175 C143.59520862 178.5811115 143.59520862 178.5811115 144.125 182.36328125 C145.42415947 184.34307898 145.42415947 184.34307898 146.94921875 186.2421875 C152.20085822 193.32707645 152.18535538 202.82624012 151.4375 211.25 C149.64110542 221.59423882 143.88624248 231.87519431 135.4375 238.25 C133.81376984 238.83685871 132.18873616 239.42012181 130.5625 240 C128.11799987 241.04422029 128.11799987 241.04422029 126.4375 243.25 C125.38123387 247.91006834 125.62099872 252.7471551 125.5859375 257.5 C125.45057236 267.9354216 120.41204682 276.8771008 113.4375 284.41015625 C106.03857713 291.47877007 97.6945378 295.66941295 87.4375 296.25 C87.19 296.97316406 86.9425 297.69632812 86.6875 298.44140625 C81.53711037 310.01368795 70.04915052 316.03865575 58.859375 320.48828125 C45.93794122 324.55228058 32.49772984 322.57362974 20.375 317.125 C13.7193908 313.62148732 6.40760665 308.36857084 3.4375 301.25 C2.798125 301.91 2.15875 302.57 1.5 303.25 C0.48383699 304.25474545 -0.53776633 305.25399718 -1.5625 306.25 C-2.21734375 306.889375 -2.8721875 307.52875 -3.546875 308.1875 C-14.83745338 318.75740317 -27.53678374 322.89358305 -42.91796875 322.53515625 C-56.80121272 321.44890029 -68.05300224 315.25999764 -77.5625 305.25 C-78.5472005 303.83043177 -79.50820416 302.39394027 -80.4375 300.9375 C-83.55612444 296.47099551 -87.38281889 295.67257989 -92.46484375 294.23046875 C-103.53119727 290.72775156 -111.66667094 282.92300935 -117.2734375 272.96875 C-121.8568638 263.30188725 -121.9484503 253.71354152 -121.5625 243.25 C-122.14257812 242.94707031 -122.72265625 242.64414062 -123.3203125 242.33203125 C-134.11203731 236.54439006 -140.75260163 229.6352017 -145.5 218.125 C-148.53252043 207.5869915 -147.70456208 194.93221054 -142.5625 185.25 C-142.00175781 184.59644531 -141.44101563 183.94289062 -140.86328125 183.26953125 C-139.32171968 181.31654789 -139.32171968 181.31654789 -139.71875 178.87890625 C-140.67608523 175.89609787 -141.81304078 173.06052978 -143.0625 170.1875 C-148.2048203 158.33325582 -148.61511018 144.02600299 -143.84375 131.91015625 C-141.32604581 126.68284969 -138.69393159 121.38143159 -134.5625 117.25 C-134.39493572 115.21404391 -134.39493572 115.21404391 -134.5625 112.875 C-134.80909927 98.63389232 -130.4754476 85.92585511 -120.8203125 75.33984375 C-115.46601269 70.2854736 -109.2186665 67.27855576 -102.5625 64.25 C-102.59730469 63.45078125 -102.63210937 62.6515625 -102.66796875 61.828125 C-102.99005657 48.76056189 -100.9332333 38.11541339 -91.81640625 28.38671875 C-87.30304242 24.1548537 -82.25521211 21.19759976 -76.875 18.19140625 C-73.91737771 16.45798847 -71.14099589 14.61219656 -68.33520508 12.65185547 C-49.28477634 -0.60260007 -21.7903974 -14.88124701 0 0 Z M-47.5625 21.25 C-44.9522821 23.3540205 -42.34211041 25.40943076 -39.625 27.375 C-34.7568258 31.45920849 -30.94337713 37.31180497 -30.125 43.625 C-30.50070028 45.87920171 -30.9934179 48.0395158 -31.5625 50.25 C-34.91926519 50.90831706 -38.13654303 51.35573941 -41.5625 51.25 C-44.25 49.3125 -44.25 49.3125 -46.5625 46.25 C-52.05000281 39.21999018 -56.12646268 35.92950467 -65.0625 34.8125 C-72.20348675 35.70512334 -76.97933822 38.90137446 -81.375 44.52734375 C-84.51957809 49.08905078 -84.86233539 52.75301788 -84.5625 58.25 C-84.25311521 59.58909295 -83.925102 60.92432708 -83.5625 62.25 C-82.66789062 62.48074219 -81.77328125 62.71148437 -80.8515625 62.94921875 C-65.49936941 67.09005548 -54.30704576 72.58777253 -45.91796875 86.6015625 C-44.11553698 90.1233168 -43.40409961 92.28999029 -43.5625 96.25 C-44.90812399 99.19755732 -45.64804544 100.79277272 -48.5625 102.25 C-54.75076739 102.82298772 -54.75076739 102.82298772 -57.6875 100.75 C-59.24030017 98.67959977 -60.5082655 96.6616085 -61.8125 94.4375 C-65.63231911 88.17626745 -71.12966013 82.92520547 -78.234375 80.6875 C-86.90560513 79.05800709 -95.04123944 79.44038936 -102.5625 84.25 C-110.04341329 89.36851962 -114.7333786 96.31236587 -116.5625 105.25 C-116.44780147 107.29818807 -116.33090753 109.34633521 -116.19262695 111.39306641 C-115.66501352 120.94950188 -116.97329762 125.42203669 -123.36328125 132.71484375 C-128.06759629 138.13775754 -129.73006087 145.14541914 -129.5625 152.25 C-128.13773617 162.59682862 -124.28179763 170.41080966 -116.25 177.125 C-110.46614136 181.31030475 -104.89521642 183.15594593 -97.8125 183.625 C-94.33732907 183.9353918 -93.51764905 184.28203639 -90.5 186.4375 C-88.5625 189.25 -88.5625 189.25 -87.9375 192.25 C-88.80804784 196.42862962 -90.05881491 197.81887157 -93.5625 200.25 C-104.26854516 202.56600161 -116.24941044 196.88821193 -125.5625 192.25 C-129.22081777 198.9569159 -129.98890679 206.16418054 -127.90625 213.58984375 C-125.66024512 218.63367368 -122.36509528 222.51345626 -117.5625 225.25 C-114.2990799 226.42579107 -111.06373128 227.51851724 -107.7175293 228.42651367 C-102.90729952 229.8013009 -102.90729952 229.8013009 -101.09765625 232.15625 C-99.96647772 236.58188279 -101.10919708 240.99675076 -102.625 245.1875 C-105.08008769 253.20745313 -103.34562518 259.93346088 -99.5625 267.25 C-95.80251522 273.11115274 -90.97719038 275.89216786 -84.5625 278.25 C-82.31719547 278.67165343 -80.0667986 279.06693037 -77.8125 279.4375 C-74.0432215 280.20375756 -72.14471607 280.6069722 -69.54296875 283.48046875 C-68.06079554 286.02080106 -66.77995477 288.57418067 -65.5625 291.25 C-61.16725875 298.15680767 -53.29122032 302.10094256 -45.5625 304.25 C-35.4046107 305.50324608 -26.47064356 303.67620058 -18.2109375 297.48828125 C-12.01637101 291.76932755 -7.89464999 284.59823437 -6.5625 276.25 C-6.46673555 273.67252902 -6.41892852 271.12228923 -6.42205811 268.54516602 C-6.41908698 267.77671388 -6.41611586 267.00826174 -6.4130547 266.21652317 C-6.40439392 263.64563977 -6.4028617 261.07480307 -6.40136719 258.50390625 C-6.39673732 256.65908713 -6.39171243 254.81426896 -6.38632202 252.9694519 C-6.37321604 247.96130788 -6.36675708 242.95317725 -6.36231136 237.94501877 C-6.35937894 234.81670705 -6.35527391 231.68839899 -6.35080719 228.56008911 C-6.33713969 218.77358359 -6.32746824 208.98708642 -6.3236053 199.20057201 C-6.3191202 187.9001382 -6.30154822 176.59982509 -6.2726047 165.29942799 C-6.25100796 156.56471158 -6.24090216 147.8300292 -6.23956418 139.09528637 C-6.23851511 133.87769619 -6.23258512 128.66021957 -6.21474457 123.44265747 C-6.19829764 118.53755871 -6.19609191 113.63265934 -6.20488358 108.72754288 C-6.20565565 106.92679435 -6.20128889 105.12603525 -6.19142532 103.32531357 C-6.17875488 100.86824809 -6.18455549 98.41189416 -6.19500732 95.95483398 C-6.18695092 95.24131051 -6.17889452 94.52778704 -6.17059398 93.79264164 C-6.22324635 88.50530693 -7.52896311 85.28353689 -11.25 81.5625 C-13.48090321 80.29631169 -15.14886815 79.80780992 -17.625 79.25 C-19.88286433 78.72022178 -21.53131431 78.26754195 -23.5625 77.125 C-25.24199078 73.97595478 -25.11415918 70.72690459 -24.5625 67.25 C-23.01911909 65.07523599 -21.92584727 64.43167363 -19.5625 63.25 C-14.96674688 63.09931957 -11.0633547 63.31404529 -6.5625 64.25 C-6.48806571 58.53917253 -6.43376366 52.8286306 -6.39770508 47.11743164 C-6.38266509 45.17662636 -6.36222786 43.2358548 -6.33618164 41.29516602 C-6.29958705 38.49747368 -6.28272552 35.70023267 -6.26953125 32.90234375 C-6.25404739 32.0416478 -6.23856354 31.18095184 -6.22261047 30.29417419 C-6.22080038 23.74119865 -7.13196405 18.74622611 -11.875 13.875 C-23.18971587 7.03354389 -37.34257591 15.65738787 -47.5625 21.25 Z M15.25 14.4375 C11.93765169 19.57735082 11.18929735 23.39533228 11.21044922 29.51879883 C11.21015717 30.23153961 11.20986511 30.9442804 11.20956421 31.67861938 C11.21095143 34.02154956 11.22648364 36.36415701 11.2421875 38.70703125 C11.2459198 40.33656134 11.24876575 41.96609369 11.25076294 43.59562683 C11.25838233 47.87493129 11.2780162 52.154099 11.3001709 56.43334961 C11.32066589 60.80385488 11.32977246 65.17438235 11.33984375 69.54492188 C11.36126375 78.11334385 11.39537915 86.68165489 11.4375 95.25 C12.40171875 95.19199219 13.3659375 95.13398438 14.359375 95.07421875 C16.25429687 95.00654297 16.25429687 95.00654297 18.1875 94.9375 C19.44046875 94.87949219 20.6934375 94.82148438 21.984375 94.76171875 C25.4375 95.25 25.4375 95.25 27.86669922 97.63623047 C29.90274663 101.02415766 29.88010324 102.68535074 29.171875 106.453125 C28.4375 108.25 28.4375 108.25 25.8125 110.125 C22.4375 111.25 22.4375 111.25 18.8125 112.125 C14.74683833 113.48022056 13.72564502 114.67768025 11.4375 118.25 C10.84031293 121.39430469 10.84031293 121.39430469 10.92956543 124.85820007 C10.92332547 125.50878492 10.9170855 126.15936976 10.91065645 126.8296693 C10.89474514 129.00229715 10.90732231 131.17380006 10.91992188 133.34643555 C10.91449961 134.90728915 10.90737636 136.46813764 10.89868164 138.02897644 C10.88045004 142.26488158 10.88751702 146.50039687 10.90019798 150.73630881 C10.91033552 155.17592645 10.90092937 159.61551103 10.89465332 164.05513 C10.88737531 171.51589942 10.89696465 178.97651049 10.91601562 186.43725586 C10.93774484 195.04589509 10.93076249 203.65415477 10.90871 212.26278466 C10.89051265 219.66428729 10.88802 227.06567611 10.89846468 234.4671939 C10.90468099 238.88291846 10.90558761 243.29846516 10.89231873 247.71417809 C10.88069903 251.87168403 10.88889663 256.02870515 10.91189575 260.18615913 C10.9171521 261.70582146 10.91572219 263.2255251 10.90684509 264.74517059 C10.84678028 276.0793041 12.37081368 285.36372324 19.6015625 294.4296875 C26.07415211 300.84719124 34.617934 304.51330584 43.6875 304.625 C54.12859673 304.39982311 60.65417295 300.80986595 68.2265625 293.76171875 C70.44972381 291.23611324 71.65517353 288.97176759 73.0625 285.9375 C75.04835108 282.23400187 76.04178535 281.39223649 80.078125 279.94140625 C82.20009235 279.431107 84.32743941 278.99706185 86.46875 278.57592773 C95.18893543 276.84097417 100.24082559 272.51353975 105.24609375 265.3125 C108.98011521 258.84835792 108.79957594 252.44775908 107.4375 245.25 C106.7775321 243.58066942 106.11191131 241.9135479 105.4375 240.25 C104.78865865 234.08600713 104.78865865 234.08600713 107.0625 231.15625 C109.91779244 228.86450212 112.27428155 228.20736411 115.8125 227.3125 C123.57490242 225.04629527 127.2526867 222.72885553 131.3125 215.5625 C133.99571334 209.74598592 134.69281261 204.23704402 132.75 198.06640625 C131.89109661 195.93741775 131.89109661 195.93741775 130.4375 193.25 C125.39529251 194.0641546 121.11483415 196.033222 116.47265625 198.09375 C111.97963649 199.80537657 107.6017051 200.39519253 102.8125 200.4375 C102.07773437 200.45167969 101.34296875 200.46585938 100.5859375 200.48046875 C98.11765684 200.21568955 96.53878208 199.55756636 94.4375 198.25 C92.84979528 195.07459056 93.02649698 191.70809441 93.4375 188.25 C94.98088091 186.07523599 96.07415273 185.43167363 98.4375 184.25 C100.45622883 183.98353938 102.47754747 183.73654416 104.5 183.5 C110.75961717 182.57316166 115.24667541 180.80161682 120.4375 177.25 C121.324375 176.693125 122.21125 176.13625 123.125 175.5625 C129.72784528 168.95965472 133.69754601 160.3342636 133.8125 151 C133.59955971 140.57775564 129.81108212 134.09805918 123.14453125 126.28125 C120.65512251 123.31902449 120.33274684 121.87246557 120.55078125 118.1015625 C121.03308222 106.50172066 120.71615925 97.57510246 112.796875 88.3359375 C111.09793347 86.72432474 109.42250978 85.48858048 107.4375 84.25 C106.79296875 83.84007812 106.1484375 83.43015625 105.484375 83.0078125 C98.83317345 79.43587093 91.81745187 79.27102679 84.4375 80.25 C76.3538688 82.96241206 70.15666442 87.51570776 65.8125 94.875 C62.75212334 100.04025111 62.75212334 100.04025111 59.4375 102.25 C55.56411246 102.67255137 53.32151391 102.81667558 50 100.6875 C47.72068348 97.13176622 47.77038249 95.4528403 48.4375 91.25 C53.38189694 79.15968631 61.20169101 72.08277744 72.87109375 66.7265625 C77.63131563 64.75573679 82.40413259 63.32857873 87.4375 62.25 C89.39206469 56.59204959 89.76259783 53.03785652 87.54296875 47.42578125 C84.94455962 42.31159791 81.87227674 38.55094864 76.5 36.3125 C69.46676736 34.19854161 64.30170407 35.08686798 57.875 38.4765625 C54.26020446 41.10655798 52.13510453 44.36639263 49.8125 48.140625 C48.4375 50.25 48.4375 50.25 46.4375 51.25 C42.63872401 51.60173852 40.29389847 51.77701444 37 49.75 C35.24507622 46.94212195 34.74674487 44.78010368 34.92578125 41.46484375 C36.47773468 34.74761022 41.56430564 29.67444246 46.82421875 25.5390625 C48.48694555 24.21049145 49.95844436 22.77820855 51.4375 21.25 C49.2316576 20.11988348 47.02304973 18.99584212 44.8125 17.875 C43.88630859 17.39933594 43.88630859 17.39933594 42.94140625 16.9140625 C34.58796489 12.69337634 23.69962483 8.63873786 15.25 14.4375 Z " fill="#000000" transform="translate(207.5625,51.75)"/>
<path d="M0 0 C2.51928987 3.27507683 2.9461424 5.31124065 2.875 9.4375 C1.36328125 12.5625 1.36328125 12.5625 -1.125 15.4375 C-3.92125741 16.27459617 -6.15206231 16.75941672 -9 17.0625 C-16.27333875 17.92612464 -20.65292148 19.85305428 -25.875 25.3125 C-30.15920773 31.26278852 -31.14378496 37.24233122 -30.125 44.4375 C-27.95947889 50.83738829 -24.36215265 55.47970542 -19.83203125 60.375 C-13.03909525 68.58248331 -10.62339805 78.57028258 -10.796875 89.0078125 C-11.125 91.4375 -11.125 91.4375 -13 94.0625 C-16.61559586 96.4020032 -18.77752609 96.86372293 -23.125 96.4375 C-26.54205456 94.34218468 -27.90964781 93.14260476 -29.09375 89.265625 C-29.2690625 88.08484375 -29.444375 86.9040625 -29.625 85.6875 C-31.02098545 78.22167727 -33.28443058 73.8439199 -38.0859375 68.0859375 C-47.26286123 57.06680603 -50.02448286 46.69596897 -49.125 32.4375 C-47.34693334 21.94992036 -41.8033792 12.98410055 -33.6953125 6.1953125 C-24.768632 0.09043982 -10.3762744 -5.1881372 0 0 Z " fill="#000000" transform="translate(186.125,237.5625)"/>
<path d="M0 0 C11.0915169 3.74980109 18.6366683 9.94342361 24.125 20.25 C29.12610714 30.89544349 29.76477647 41.46930589 26.33984375 52.72265625 C23.4768164 60.59308365 18.82990642 66.51255296 13.36328125 72.796875 C10.14141184 76.97454457 9.2221078 80.71411257 8.5625 85.875 C7.90869338 89.54027952 7.34772201 91.41798349 5.3125 94.625 C1.66619144 96.79726893 -0.4255614 96.65854973 -4.5390625 96.16015625 C-7.34105392 95.10547409 -8.19422316 93.99063891 -9.625 91.375 C-11.52710047 78.65703412 -6.94757336 68.44936845 0.375 58.375 C1.43985293 57.12978915 2.52136487 55.89847122 3.625 54.6875 C8.26062607 49.46932199 10.00622884 43.61928039 9.71875 36.671875 C8.69173904 29.80957448 5.63355197 24.71429866 0.14453125 20.51953125 C-5.01872939 17.17993883 -10.94522877 16.80898294 -16.91796875 16.03515625 C-19.84852954 15.32048847 -20.89143634 14.80538827 -22.625 12.375 C-23.34738405 9.38914591 -23.83427223 7.3571293 -23.625 4.375 C-18.2079686 -4.40432675 -8.87684 -2.51388771 0 0 Z " fill="#000000" transform="translate(250.625,237.625)"/>
<path d="M0 0 C2.69990662 1.79993774 4.5418865 3.083773 6 6 C6.59742694 9.13649143 6.50769557 11.16845876 4.82421875 13.92578125 C-0.88739401 20.94602128 -8.5563529 25.86030451 -17 29 C-15.51724615 32.8975244 -13.46326036 34.15990896 -9.9375 36.25 C-5.30061445 39.37252697 -5.30061445 39.37252697 -4.015625 42.0546875 C-3.47604035 45.45920968 -3.91771374 47.8158355 -5.3125 50.9375 C-7.70129799 53.85714199 -8.68346308 53.96043289 -12.5 54.4375 C-19.3786088 54.30042627 -24.65766222 50.37747285 -29.34375 45.62109375 C-33.2623522 40.9713031 -35.95287859 37.02094811 -37 31 C-37.58265625 30.98582031 -38.1653125 30.97164062 -38.765625 30.95703125 C-49.62310148 30.32538561 -58.81731398 26.05879903 -67 19 C-67.804375 18.360625 -68.60875 17.72125 -69.4375 17.0625 C-71.71074899 14.06181133 -71.9346106 11.72719578 -72 8 C-70.70080758 4.75201894 -69.69052626 3.41058318 -66.6875 1.625 C-63.16438629 0.80567123 -61.4798268 0.86236432 -58 2 C-56.5100813 3.08282195 -55.05432472 4.21336668 -53.625 5.375 C-44.96799777 12.35506637 -37.09381226 13.04341802 -26 12 C-19.18787666 10.36138032 -14.02692125 5.95370792 -8.67578125 1.609375 C-5.47660366 -0.31480189 -3.67400545 -0.45420397 0 0 Z " fill="#000000" transform="translate(304,177)"/>
<path d="M0 0 C4.95561628 1.05611495 7.41712951 3.53961869 11.2265625 6.765625 C19.48210685 13.30022506 28.55765405 13.91686803 38.8125 12.8125 C44.83026043 11.2510403 49.14524424 7.85227479 53.97265625 4.0859375 C56.63001114 2.24666426 58.5904969 1.74245645 61.8125 1.8125 C67.42426471 4.03602941 67.42426471 4.03602941 68.8125 6.8125 C69.36977054 11.50949454 69.51161724 14.55239055 66.5625 18.375 C59.06091081 26.08839876 47.82909473 31.62348182 36.99609375 31.87890625 C35.91521484 31.84603516 35.91521484 31.84603516 34.8125 31.8125 C34.60625 32.6375 34.4 33.4625 34.1875 34.3125 C30.96479509 42.51574887 24.41014613 49.47844384 16.8515625 53.98046875 C13.21886808 55.46277509 9.65153068 55.48873293 5.8125 54.8125 C2.49671924 52.14370085 1.92241641 50.49642436 1.25 46.3125 C1.97336455 41.81156501 3.29728492 40.65458879 6.8125 37.8125 C8.64352183 36.51729298 10.47695632 35.24291743 12.359375 34.0234375 C14.117695 32.7741727 14.117695 32.7741727 14.8125 29.8125 C13.88308594 29.37679687 12.95367187 28.94109375 11.99609375 28.4921875 C-3.26568076 21.19522886 -3.26568076 21.19522886 -8.1875 13.8125 C-8.74127603 8.90762657 -8.94389171 6.91270612 -6.125 2.8125 C-3.1875 0.8125 -3.1875 0.8125 0 0 Z " fill="#000000" transform="translate(118.1875,176.1875)"/>
</svg>
