<?xml version="1.0" standalone="no"?>
<!DOCTYPE svg PUBLIC "-//W3C//DTD SVG 20010904//EN"
 "http://www.w3.org/TR/2001/REC-SVG-20010904/DTD/svg10.dtd">
<svg version="1.0" xmlns="http://www.w3.org/2000/svg"
 width="512.000000pt" height="512.000000pt" viewBox="0 0 512.000000 512.000000"
 preserveAspectRatio="xMidYMid meet">

<g transform="translate(0.000000,512.000000) scale(0.100000,-0.100000)"
fill="#000000" stroke="none">
<path d="M1291 5105 c-279 -61 -489 -324 -491 -617 l-1 -53 -241 -285 c-132
-157 -260 -311 -284 -343 -130 -175 -130 -418 1 -596 69 -93 135 -137 324
-211 l166 -66 5 -1442 5 -1441 23 -23 c22 -23 26 -23 273 -23 l251 0 24 28 24
28 0 475 0 474 455 0 454 0 3 -476 3 -476 33 -29 32 -29 235 0 235 0 32 29 33
29 5 596 5 596 503 -572 c322 -368 519 -585 551 -606 94 -65 219 -87 326 -58
88 23 132 53 282 194 81 75 168 156 194 180 99 89 128 220 73 330 -51 102
-129 144 -267 143 -107 0 -186 -19 -280 -65 l-68 -34 -39 56 c-22 32 -123 176
-224 322 l-183 265 431 5 c467 6 460 5 562 65 75 44 151 146 174 234 14 52 14
374 1 527 -10 112 -29 159 -83 210 -48 46 -94 66 -164 72 -81 6 -154 -26 -223
-98 -57 -59 -124 -181 -146 -265 -8 -32 -17 -60 -20 -63 -2 -3 -68 5 -144 18
-152 25 -185 21 -216 -24 -32 -45 -11 -118 40 -144 11 -5 83 -20 160 -32 77
-13 143 -26 147 -29 4 -3 10 -66 14 -138 l7 -133 -904 1 c-1073 1 -1258 6
-1344 39 -137 53 -259 157 -323 277 -31 59 -62 143 -62 171 0 19 1151 17 1323
-3 143 -17 165 -14 198 21 36 38 33 98 -7 134 -28 24 -45 29 -135 39 -57 6
-124 15 -148 19 l-44 7 -93 380 c-51 209 -107 423 -124 476 l-32 95 195 295
c117 176 204 318 217 354 28 75 37 203 20 276 -32 137 -134 277 -247 336 -32
17 -237 99 -455 182 l-397 151 -74 74 c-152 151 -368 216 -576 171z m279 -211
c77 -30 151 -85 196 -147 34 -45 54 -92 95 -215 44 -137 51 -167 51 -237 -1
-128 -47 -233 -141 -318 -191 -173 -500 -129 -639 91 -38 60 -121 315 -129
395 -18 194 119 385 317 443 59 18 192 11 250 -12z m809 -415 c156 -60 304
-120 327 -134 112 -66 167 -206 132 -342 -7 -30 -66 -128 -171 -287 -87 -132
-162 -244 -166 -249 -4 -4 -23 14 -42 40 -18 27 -64 83 -101 125 -38 42 -68
80 -68 83 0 3 52 79 115 167 119 167 128 188 103 243 -12 27 -40 42 -288 154
l-105 47 -6 51 c-6 44 -35 156 -56 209 -8 21 -21 25 326 -107z m-1448 -460
l31 -66 -131 -177 c-150 -204 -157 -224 -98 -280 44 -41 188 -112 256 -127
133 -28 307 43 382 157 14 21 41 63 60 91 33 51 36 53 79 53 67 0 168 25 242
58 l65 30 49 -18 c115 -40 208 -105 324 -226 100 -104 163 -196 225 -327 38
-79 61 -158 140 -480 52 -213 95 -389 95 -392 0 -3 -228 -4 -507 -3 l-507 3
-61 245 c-74 296 -71 287 -99 305 -12 8 -224 94 -472 190 -247 97 -466 187
-486 200 -93 61 -139 145 -139 255 -1 108 20 141 267 434 l218 259 18 -59 c9
-32 31 -89 49 -125z m1256 54 l82 -37 -50 -70 c-27 -39 -60 -84 -72 -100 l-24
-29 -64 34 c-35 19 -66 35 -69 37 -2 2 4 15 14 30 9 15 33 60 53 100 19 39 38
72 42 72 3 0 43 -16 88 -37z m-1020 -313 c36 -21 70 -41 76 -43 7 -2 -2 -24
-21 -53 -49 -77 -134 -115 -209 -95 -71 20 -71 20 9 129 40 56 74 102 76 102
2 0 33 -18 69 -40z m-84 -950 l87 -33 0 -578 0 -579 -100 0 -100 0 0 616 c0
489 3 615 13 612 6 -3 51 -20 100 -38z m332 -437 c18 -76 39 -177 45 -223 28
-211 91 -350 214 -477 l50 -53 -177 0 -177 0 0 452 c0 248 3 449 6 446 3 -4
21 -69 39 -145z m3291 -68 c25 -17 33 -101 35 -372 2 -169 1 -172 -25 -217
-32 -55 -95 -94 -163 -103 l-50 -5 -6 113 c-19 324 3 438 104 553 43 49 69 57
105 31z m-2016 -990 l0 -105 -860 0 -860 0 0 105 0 105 860 0 860 0 0 -105z
m1093 -290 c147 -212 267 -389 267 -394 0 -4 -43 -48 -96 -97 l-97 -88 -31 35
c-33 38 -298 342 -613 707 l-193 222 248 0 248 0 267 -385z m-2613 -420 l0
-405 -100 0 -100 0 0 405 0 405 100 0 100 0 0 -405z m1520 0 l0 -405 -105 0
-105 0 0 405 0 405 105 0 105 0 0 -405z m1944 39 c35 -35 21 -67 -71 -156
-271 -262 -306 -288 -388 -288 -51 0 -111 28 -150 69 -29 31 -29 32 -10 50
121 116 259 239 295 264 70 49 154 76 237 76 52 1 76 -3 87 -15z"/>
<path d="M3518 2194 c-34 -18 -48 -43 -48 -84 0 -42 15 -67 50 -85 43 -22 76
-18 112 14 27 24 33 36 33 71 0 35 -6 47 -33 71 -36 32 -72 36 -114 13z"/>
</g>
</svg>
