<?xml version="1.0" standalone="no"?>
<!DOCTYPE svg PUBLIC "-//W3C//DTD SVG 20010904//EN"
 "http://www.w3.org/TR/2001/REC-SVG-20010904/DTD/svg10.dtd">
<svg version="1.0" xmlns="http://www.w3.org/2000/svg"
 width="512.000000pt" height="512.000000pt" viewBox="0 0 512.000000 512.000000"
 preserveAspectRatio="xMidYMid meet">

<g transform="translate(0.000000,512.000000) scale(0.100000,-0.100000)"
fill="#000000" stroke="none">
<path d="M2321 5109 c-398 -36 -836 -191 -1173 -416 -626 -418 -1021 -1053
-1130 -1818 -20 -140 -17 -504 6 -660 39 -278 121 -541 247 -794 331 -667 931
-1152 1657 -1340 509 -132 1067 -98 1560 94 349 137 639 330 907 606 205 210
340 404 465 663 119 246 190 474 232 741 31 200 31 550 0 750 -25 160 -77 365
-128 504 -44 120 -167 372 -230 471 -212 333 -537 653 -856 843 -474 282
-1010 405 -1557 356z m579 -184 c418 -61 826 -238 1160 -505 114 -91 322 -306
408 -421 246 -333 395 -694 459 -1109 24 -159 24 -501 0 -660 -24 -157 -71
-343 -119 -475 -47 -128 -153 -355 -165 -355 -5 0 -65 23 -134 51 -266 108
-562 194 -839 243 l-145 26 -287 288 c-159 158 -288 291 -288 296 0 20 364
636 374 633 6 -2 28 -29 49 -60 21 -32 55 -70 75 -85 34 -26 40 -27 140 -25
217 5 346 -50 467 -200 55 -68 92 -89 155 -89 84 0 128 37 188 157 221 444
138 962 -221 1374 -212 242 -527 421 -857 486 -118 23 -326 30 -444 16 -413
-52 -749 -279 -920 -622 -52 -103 -56 -135 -23 -199 29 -58 73 -87 145 -94
184 -19 256 -48 353 -145 36 -36 76 -85 87 -107 28 -55 68 -101 103 -119 18
-10 60 -15 116 -16 153 -2 153 21 -3 -249 -74 -129 -142 -246 -151 -259 -15
-24 -19 -20 -829 790 -448 448 -814 817 -814 820 0 14 190 164 295 234 330
219 673 343 1075 391 141 16 441 11 590 -11z m305 -585 c95 -14 175 -32 175
-40 0 -4 -26 -24 -57 -46 -154 -104 -401 -381 -580 -650 l-96 -143 -27 37
c-40 55 -142 146 -202 180 -70 40 -160 70 -250 82 -39 6 -74 12 -76 14 -5 6
36 85 78 146 144 212 392 366 660 410 41 6 82 13 90 15 37 7 221 4 285 -5z
m478 -158 c108 -119 53 -535 -135 -1009 l-60 -153 -70 75 c-146 157 -335 250
-565 280 l-52 7 56 86 c218 338 489 625 668 708 62 28 135 31 158 6z m-2037
-834 l832 -833 -216 -371 -215 -372 -91 -7 c-433 -32 -926 -147 -1333 -311
-75 -30 -140 -54 -145 -54 -13 0 -117 220 -163 344 -47 128 -98 331 -121 481
-25 165 -25 504 -1 665 55 359 185 700 375 985 76 113 227 305 241 305 3 0
380 -375 837 -832z m2476 457 c72 -96 157 -267 194 -390 25 -81 27 -106 28
-255 1 -143 -2 -176 -22 -249 -23 -83 -76 -208 -104 -244 -13 -18 -16 -16 -44
24 -16 23 -57 66 -92 95 -107 88 -228 137 -375 151 -44 4 -66 10 -63 17 171
409 251 697 263 949 l6 128 74 -73 c41 -40 102 -109 135 -153z m-987 -697 c28
-17 52 -32 54 -34 3 -2 -307 -545 -356 -623 l-15 -23 -59 58 c-32 32 -59 62
-59 67 0 6 179 320 337 590 7 11 41 -1 98 -35z m-545 -1076 l-137 -237 -97 -3
c-53 -1 -96 0 -96 4 0 3 59 108 131 232 73 125 150 258 171 296 l40 68 63 -62
62 -62 -137 -236z m635 -270 c-2 -2 -68 1 -147 8 -79 6 -207 14 -285 18 l-142
7 46 80 c25 44 71 122 101 174 l55 93 188 -188 c103 -103 186 -190 184 -192z
m-88 -166 c83 -9 184 -20 225 -26 l73 -10 374 -375 375 -374 -20 -22 c-17 -20
-26 -21 -109 -16 -114 6 -170 27 -309 116 -147 94 -234 123 -389 129 -90 3
-135 0 -190 -13 -87 -21 -194 -69 -262 -117 -113 -80 -224 -118 -350 -118
-117 0 -227 38 -337 116 -130 92 -263 134 -427 134 -172 0 -284 -37 -438 -142
-108 -74 -176 -99 -288 -105 l-90 -5 -121 125 c-117 120 -287 333 -281 350 4
14 152 75 306 128 352 120 805 205 1271 239 186 13 807 4 987 -14z m853 -147
c171 -46 526 -174 554 -200 5 -4 -15 -40 -44 -81 -58 -79 -182 -228 -190 -228
-3 0 -133 128 -289 284 l-284 285 89 -20 c49 -11 123 -29 164 -40z m-2007
-628 c31 -13 98 -50 148 -83 148 -98 270 -137 425 -138 156 0 271 35 414 128
157 102 240 127 389 120 107 -6 173 -27 261 -82 117 -74 197 -116 252 -133 32
-10 58 -21 58 -25 0 -14 -181 -122 -315 -188 -237 -116 -458 -186 -720 -226
-167 -25 -503 -25 -670 0 -257 39 -482 110 -710 221 -134 66 -325 180 -325
195 0 5 15 12 33 15 53 12 149 59 228 112 146 99 197 114 359 109 89 -2 128
-8 173 -25z"/>
</g>
</svg>
