<?xml version="1.0" standalone="no"?>
<!DOCTYPE svg PUBLIC "-//W3C//DTD SVG 20010904//EN"
 "http://www.w3.org/TR/2001/REC-SVG-20010904/DTD/svg10.dtd">
<svg version="1.0" xmlns="http://www.w3.org/2000/svg"
 width="512.000000pt" height="512.000000pt" viewBox="0 0 512.000000 512.000000"
 preserveAspectRatio="xMidYMid meet">

<g transform="translate(0.000000,512.000000) scale(0.100000,-0.100000)"
fill="#000000" stroke="none">
<path d="M2060 5114 c-448 -41 -849 -194 -1190 -452 -101 -78 -268 -238 -358
-347 -370 -443 -557 -1047 -501 -1621 58 -595 353 -1145 814 -1517 674 -544
1601 -647 2370 -265 55 27 127 66 159 85 40 25 63 33 72 27 8 -5 172 -184 365
-399 193 -214 381 -420 417 -457 217 -222 556 -222 762 -1 208 221 198 533
-23 750 -39 39 -245 227 -457 417 -212 191 -389 353 -394 360 -6 9 2 32 26 72
147 243 255 554 293 842 19 141 22 410 5 547 -97 820 -633 1513 -1405 1814
-128 50 -332 104 -479 126 -108 16 -388 27 -476 19z m351 -174 c493 -50 949
-271 1286 -624 769 -804 755 -2074 -32 -2861 -660 -660 -1690 -791 -2486 -316
-568 339 -931 909 -998 1570 -71 688 239 1395 795 1818 413 313 934 463 1435
413z m2035 -3798 c227 -204 422 -384 433 -401 48 -68 65 -122 65 -211 1 -71
-4 -94 -26 -142 -37 -79 -98 -142 -177 -181 -59 -29 -74 -32 -151 -32 -89 1
-144 18 -211 66 -16 11 -197 206 -401 432 -204 227 -381 423 -394 437 l-22 25
105 89 c98 84 220 211 287 299 l29 38 26 -24 c14 -13 211 -191 437 -395z"/>
<path d="M2026 4769 c-350 -37 -725 -192 -986 -407 -605 -499 -844 -1294 -608
-2031 207 -647 757 -1138 1424 -1271 204 -40 481 -44 678 -10 802 141 1418
773 1542 1580 21 139 21 401 0 541 -92 603 -452 1110 -988 1394 -314 166 -707
241 -1062 204z m354 -169 c514 -53 971 -325 1252 -745 215 -320 314 -697 286
-1083 -60 -837 -733 -1510 -1570 -1570 -667 -48 -1282 282 -1620 869 -85 148
-159 360 -194 554 -24 136 -24 413 -1 545 64 355 206 643 442 898 351 379 894
585 1405 532z"/>
<path d="M1430 4093 c-28 -10 -60 -46 -60 -67 0 -16 -15 -28 -58 -48 -72 -33
-134 -95 -170 -167 -23 -48 -27 -69 -27 -141 0 -71 4 -94 26 -141 54 -115 154
-184 289 -199 89 -10 103 -16 142 -57 52 -54 62 -126 28 -193 -31 -61 -73 -85
-150 -85 -102 0 -149 43 -170 158 -12 61 -37 87 -87 87 -23 0 -42 -8 -60 -26
-23 -24 -25 -31 -20 -86 7 -75 54 -174 103 -217 19 -17 62 -45 94 -61 39 -20
60 -36 60 -48 0 -53 77 -89 124 -58 13 8 29 30 35 49 9 27 22 38 64 57 64 29
135 99 167 165 21 42 25 65 25 140 0 76 -4 98 -26 145 -53 113 -155 182 -291
199 -95 11 -139 36 -167 95 -35 72 -23 144 35 198 56 52 120 61 190 27 51 -24
80 -68 94 -138 12 -66 15 -70 56 -87 68 -29 119 21 112 109 -9 112 -89 226
-193 273 -44 20 -56 31 -65 60 -9 26 -22 40 -46 50 -18 8 -35 14 -36 13 -2 0
-10 -3 -18 -6z"/>
<path d="M3094 3469 l-201 -201 -244 175 c-134 96 -259 182 -278 192 -66 34
-115 19 -262 -79 -157 -105 -175 -133 -123 -195 41 -50 71 -43 202 45 l113 75
237 -169 c131 -93 253 -179 272 -191 42 -25 108 -28 154 -6 18 9 125 109 239
223 193 194 207 211 207 244 0 28 -7 42 -31 62 -58 49 -64 45 -285 -175z"/>
<path d="M2075 2975 c-49 -18 -90 -62 -104 -112 -7 -24 -11 -210 -11 -510 l0
-473 -85 0 -85 0 0 278 c0 268 -1 278 -23 316 -14 25 -39 48 -66 63 -39 20
-58 23 -163 23 -78 0 -130 -5 -151 -14 -39 -16 -82 -61 -96 -99 -7 -17 -11
-131 -11 -296 l0 -269 -30 -12 c-56 -23 -70 -92 -29 -136 l22 -24 974 0 974 0
24 25 c37 36 34 86 -6 119 -17 14 -34 26 -39 26 -5 0 -10 181 -12 408 -3 458
-2 448 -79 499 -34 23 -53 27 -140 31 -159 8 -222 -13 -268 -89 -20 -33 -21
-47 -21 -441 l0 -408 -90 0 -90 0 0 491 c0 552 2 538 -73 587 -38 25 -49 27
-161 30 -87 1 -132 -2 -161 -13z m225 -625 l0 -470 -85 0 -85 0 0 463 c0 255
3 467 7 470 3 4 42 7 85 7 l78 0 0 -470z m688 -87 l2 -383 -85 0 -85 0 0 385
0 386 83 -3 82 -3 3 -382z m-1368 -128 l0 -255 -85 0 -85 0 0 255 0 255 85 0
85 0 0 -255z"/>
</g>
</svg>
