<?xml version="1.0" standalone="no"?>
<!DOCTYPE svg PUBLIC "-//W3C//DTD SVG 20010904//EN"
 "http://www.w3.org/TR/2001/REC-SVG-20010904/DTD/svg10.dtd">
<svg version="1.0" xmlns="http://www.w3.org/2000/svg"
 width="512.000000pt" height="512.000000pt" viewBox="0 0 512.000000 512.000000"
 preserveAspectRatio="xMidYMid meet">

<g transform="translate(0.000000,512.000000) scale(0.100000,-0.100000)"
fill="#000000" stroke="none">
<path d="M3725 5110 c-285 -43 -503 -233 -600 -524 -86 -257 -72 -768 36
-1301 31 -151 44 -186 77 -204 11 -6 253 -31 539 -58 505 -46 521 -47 547 -29
38 24 49 55 117 320 192 757 204 1078 50 1401 -103 217 -268 349 -489 391 -78
15 -194 16 -277 4z m225 -200 c155 -24 284 -126 359 -283 116 -241 114 -484
-9 -1032 -38 -171 -96 -394 -103 -402 -3 -2 -189 13 -415 34 l-410 37 -21 106
c-58 297 -86 602 -77 835 9 231 36 340 118 471 113 181 326 270 558 234z"/>
<path d="M1160 3431 c-203 -29 -369 -131 -479 -296 -123 -184 -180 -461 -152
-730 23 -211 107 -588 210 -933 39 -132 57 -167 96 -182 12 -5 236 16 539 50
481 54 519 59 541 80 30 28 38 54 64 190 50 268 49 321 -5 356 -69 45 -147 0
-159 -93 -14 -101 -44 -276 -49 -281 -9 -8 -815 -96 -822 -90 -11 11 -111 387
-148 555 -53 241 -68 354 -68 498 0 247 67 434 199 557 90 83 189 118 335 118
108 0 175 -13 255 -51 130 -62 230 -184 284 -351 44 -133 91 -173 162 -137 62
32 71 85 32 203 -71 217 -198 372 -379 460 -50 24 -122 51 -161 60 -89 19
-224 27 -295 17z"/>
<path d="M3194 2845 c-12 -8 -26 -27 -32 -42 -13 -33 -52 -430 -52 -529 0
-158 60 -297 179 -415 120 -120 252 -174 426 -172 216 2 423 132 519 326 47
96 54 131 81 422 32 337 38 327 -205 350 -879 83 -883 83 -916 60z m550 -230
c202 -19 371 -36 374 -39 7 -7 -16 -280 -29 -361 -21 -123 -111 -239 -227
-293 -51 -24 -69 -27 -162 -27 -96 0 -110 3 -165 30 -115 57 -205 179 -220
300 -4 29 1 135 11 239 14 156 20 186 33 186 9 0 182 -16 385 -35z"/>
<path d="M1879 2391 c-54 -54 -32 -140 40 -162 50 -15 97 8 117 57 18 44 10
77 -28 109 -42 35 -91 34 -129 -4z"/>
<path d="M1395 1135 c-253 -30 -475 -57 -494 -60 -52 -10 -81 -45 -81 -99 0
-90 51 -493 70 -556 60 -199 236 -359 447 -406 356 -79 713 207 713 571 0 39
-11 168 -25 285 -14 118 -25 223 -25 232 0 10 -13 32 -28 49 -22 24 -37 32
-72 34 -25 2 -252 -20 -505 -50z m436 -350 c18 -152 20 -202 12 -250 -29 -168
-155 -295 -322 -325 -185 -33 -383 86 -436 264 -13 42 -59 405 -53 411 3 3
771 92 775 90 1 0 12 -86 24 -190z"/>
</g>
</svg>
