<?xml version="1.0" standalone="no"?>
<!DOCTYPE svg PUBLIC "-//W3C//DTD SVG 20010904//EN"
 "http://www.w3.org/TR/2001/REC-SVG-20010904/DTD/svg10.dtd">
<svg version="1.0" xmlns="http://www.w3.org/2000/svg"
 width="512.000000pt" height="512.000000pt" viewBox="0 0 512.000000 512.000000"
 preserveAspectRatio="xMidYMid meet">

<g transform="translate(0.000000,512.000000) scale(0.100000,-0.100000)"
fill="#000000" stroke="none">
<path d="M2666 4939 c-79 -62 -197 -269 -249 -434 -23 -73 -56 -221 -72 -317
l-6 -38 -52 0 c-82 0 -290 -28 -417 -56 -177 -40 -369 -107 -547 -194 -175
-85 -200 -106 -188 -160 13 -58 34 -63 217 -52 214 14 415 -1 511 -37 l25 -10
-34 -90 c-57 -151 -94 -342 -94 -484 0 -48 4 -62 25 -82 41 -42 76 -34 148 33
190 177 392 321 537 383 l89 38 68 -27 c158 -65 358 -206 565 -399 66 -62 103
-69 143 -28 21 20 25 34 25 87 0 151 -40 353 -99 497 -17 41 -29 77 -27 79 2
2 28 10 57 17 100 27 249 38 408 32 176 -8 179 -9 318 -119 181 -144 321 -318
428 -533 75 -153 116 -272 150 -439 126 -624 -26 -1191 -437 -1623 -66 -69
-78 -87 -78 -116 0 -44 34 -77 81 -77 29 0 44 10 106 74 448 465 622 1094 487
1764 -51 257 -144 485 -281 692 -92 138 -290 341 -426 437 -212 149 -550 287
-850 348 -73 14 -310 45 -351 45 -16 0 -18 5 -13 44 10 70 63 224 107 310 51
100 109 181 194 272 75 82 84 116 41 159 l-24 25 -229 0 c-218 0 -231 -1 -256
-21z m264 -142 c0 -2 -25 -41 -55 -86 -107 -159 -182 -354 -212 -548 -16 -102
-16 -105 4 -131 26 -35 41 -38 204 -51 164 -13 324 -41 479 -83 131 -35 155
-48 88 -48 -105 0 -328 -69 -375 -116 -31 -31 -29 -52 12 -135 44 -87 92 -227
101 -298 8 -63 19 -66 -116 35 -127 94 -228 157 -326 204 -117 57 -163 67
-221 52 -117 -32 -342 -163 -501 -291 -34 -28 -65 -51 -68 -51 -24 0 40 219
97 334 56 112 51 139 -29 180 -89 44 -159 64 -327 92 l-40 6 53 19 c136 47
398 94 606 109 169 12 181 18 191 113 27 250 113 507 216 645 l40 52 89 0 c50
0 90 -2 90 -3z"/>
<path d="M821 3538 c-256 -268 -415 -614 -478 -1035 -24 -163 -24 -500 0 -633
73 -400 256 -748 544 -1037 565 -565 1433 -799 2248 -606 241 57 532 181 741
317 109 71 133 101 115 147 -24 64 -82 70 -156 17 -119 -85 -318 -187 -495
-255 -89 -34 -302 -88 -435 -109 -152 -26 -512 -26 -675 0 -550 85 -1018 337
-1338 721 -196 234 -317 482 -379 774 -25 115 -27 146 -27 341 0 174 5 239 22
340 63 368 187 636 414 893 64 73 78 94 78 122 0 40 -38 75 -82 75 -22 0 -43
-15 -97 -72z"/>
</g>
</svg>
