<?xml version="1.0" standalone="no"?>
<!DOCTYPE svg PUBLIC "-//W3C//DTD SVG 20010904//EN"
 "http://www.w3.org/TR/2001/REC-SVG-20010904/DTD/svg10.dtd">
<svg version="1.0" xmlns="http://www.w3.org/2000/svg"
 width="512.000000pt" height="512.000000pt" viewBox="0 0 512.000000 512.000000"
 preserveAspectRatio="xMidYMid meet">

<g transform="translate(0.000000,512.000000) scale(0.100000,-0.100000)"
fill="#000000" stroke="none">
<path d="M2047 5104 c-164 -30 -314 -106 -439 -223 -121 -114 -199 -233 -246
-381 -98 -306 -20 -655 196 -879 58 -61 89 -66 133 -22 45 45 39 69 -42 160
-62 69 -124 193 -150 301 -18 71 -21 103 -16 200 6 127 22 190 74 295 91 182
247 313 453 376 108 34 292 34 400 0 205 -63 362 -195 456 -381 47 -94 65
-168 71 -290 5 -97 2 -129 -16 -200 -26 -109 -89 -232 -151 -303 -58 -64 -73
-97 -60 -131 11 -31 47 -56 79 -56 33 0 115 86 177 186 191 306 178 694 -31
990 -57 80 -186 200 -266 247 -186 109 -410 149 -622 111z"/>
<path d="M2103 4566 c-95 -31 -186 -117 -225 -214 l-23 -57 -5 -967 -5 -968
-115 152 c-63 83 -137 169 -165 191 -101 81 -237 125 -342 113 -191 -22 -316
-158 -300 -325 8 -90 42 -163 139 -297 211 -293 300 -468 448 -879 105 -289
155 -385 289 -550 77 -96 143 -230 165 -337 10 -50 16 -130 16 -228 0 -147 1
-152 25 -175 l24 -25 795 0 795 0 28 24 28 24 6 194 c5 163 10 203 29 258 34
102 84 187 167 290 125 155 199 286 253 448 63 191 65 213 65 812 l0 545 -29
62 c-33 73 -104 144 -174 176 -67 31 -207 31 -274 0 l-47 -21 -6 39 c-10 59
-61 154 -103 190 -62 55 -136 82 -232 87 -98 5 -171 -17 -243 -72 l-42 -32
-48 37 c-110 88 -265 104 -409 44 -17 -7 -18 24 -18 557 0 364 -4 585 -11 623
-22 117 -92 210 -197 262 -46 23 -73 28 -137 30 -47 2 -97 -3 -122 -11z"/>
</g>
</svg>
