<?xml version="1.0" standalone="no"?>
<!DOCTYPE svg PUBLIC "-//W3C//DTD SVG 20010904//EN"
 "http://www.w3.org/TR/2001/REC-SVG-20010904/DTD/svg10.dtd">
<svg version="1.0" xmlns="http://www.w3.org/2000/svg"
 width="512.000000pt" height="512.000000pt" viewBox="0 0 512.000000 512.000000"
 preserveAspectRatio="xMidYMid meet">

<g transform="translate(0.000000,512.000000) scale(0.100000,-0.100000)"
fill="#000000" stroke="none">
<path d="M3505 5107 c-82 -32 -144 -95 -165 -168 -6 -19 -10 -82 -10 -141 l0
-108 -157 0 c-145 0 -162 -2 -209 -24 -59 -27 -116 -90 -132 -145 -8 -23 -12
-113 -12 -232 0 -207 7 -243 58 -296 20 -20 21 -32 24 -426 l3 -404 -45 -12
c-61 -16 -116 -76 -125 -134 l-7 -43 -71 7 c-67 7 -238 -5 -258 -17 -5 -3 -9
6 -9 21 0 31 -25 93 -48 118 -46 51 -49 52 -493 57 l-416 5 165 140 c218 184
483 448 551 548 64 95 116 204 136 289 21 91 19 248 -5 342 -58 229 -235 406
-449 452 -196 41 -408 -20 -562 -164 l-74 -69 -74 69 c-240 225 -602 236 -828
25 -130 -122 -193 -266 -201 -459 -7 -189 35 -322 158 -498 70 -99 302 -329
528 -523 l183 -157 -408 0 c-375 0 -411 -2 -448 -19 -83 -38 -105 -83 -105
-215 0 -281 104 -527 301 -709 130 -122 285 -201 458 -234 l91 -18 0 -87 0
-87 -337 -3 c-374 -3 -366 -2 -436 -72 -53 -53 -72 -101 -72 -181 1 -80 22
-130 77 -181 77 -73 27 -69 783 -72 655 -2 680 -3 700 -22 32 -30 104 -57 171
-65 l62 -7 6 -56 c15 -126 88 -277 191 -389 l57 -63 -54 0 c-76 0 -222 -33
-306 -68 -171 -71 -345 -216 -449 -372 -94 -141 -100 -165 -54 -211 l29 -29
1340 0 c1327 0 1340 0 1365 20 47 37 45 72 -9 160 -175 291 -457 475 -761 497
-46 3 -83 7 -83 9 0 2 22 26 50 54 100 105 181 268 196 394 l7 54 61 7 c67 8
139 35 171 65 20 19 45 20 700 22 756 3 706 -1 783 72 55 51 76 101 77 181 0
80 -19 128 -72 181 -70 70 -62 69 -435 72 l-338 3 0 87 0 87 91 18 c361 70
645 344 735 709 21 87 30 304 15 351 -16 46 -70 94 -124 109 l-42 11 3 401 3
401 25 32 c50 66 54 88 54 303 0 223 -4 241 -64 308 -62 68 -89 76 -276 82
l-165 5 -5 125 c-5 113 -8 129 -32 171 -31 53 -80 94 -139 114 -54 19 -795 21
-844 2z m798 -169 c41 -21 46 -39 47 -145 l0 -103 -425 0 -425 0 0 103 c1 105
6 123 45 145 28 16 728 17 758 0z m-3524 -173 c130 -31 238 -108 316 -224 46
-71 59 -81 100 -81 41 0 56 11 96 76 78 123 207 209 350 235 128 23 259 -19
352 -113 94 -96 137 -207 137 -358 0 -179 -87 -337 -305 -556 -115 -115 -614
-554 -630 -554 -8 0 -299 249 -475 405 -340 303 -460 488 -460 710 0 145 44
258 136 351 56 57 108 87 187 109 68 18 118 18 196 0z m4056 -270 c25 -24 25
-27 25 -200 0 -204 4 -196 -114 -250 -87 -40 -195 -69 -346 -92 -164 -26 -794
-26 -950 0 -217 36 -387 93 -438 147 -21 23 -22 33 -22 197 0 171 0 174 25
198 l24 25 886 0 886 0 24 -25z m-1699 -645 c69 -24 288 -70 333 -70 l31 0 0
-82 c0 -100 26 -164 87 -219 65 -59 91 -64 338 -64 247 0 273 5 338 64 61 55
87 119 87 219 l0 82 28 0 c65 0 297 52 385 85 16 7 17 -12 17 -315 0 -327 -2
-349 -39 -377 -23 -18 -1609 -18 -1632 0 -37 28 -39 50 -39 376 0 177 2 321 3
321 2 0 30 -9 63 -20z m1044 -150 c0 -48 -5 -64 -24 -87 l-24 -28 -207 0 -207
0 -24 28 c-19 23 -24 39 -24 87 l0 59 255 0 255 0 0 -59z m-1960 -754 c0 -44
-1 -45 -67 -89 -62 -41 -188 -162 -224 -213 -8 -12 -30 -29 -49 -39 -57 -30
-136 -119 -176 -200 -32 -65 -38 -88 -42 -160 l-4 -84 -57 -13 c-40 -9 -156
-13 -416 -13 -338 1 -365 2 -437 23 -350 97 -578 397 -578 760 l0 72 1025 0
1025 0 0 -44z m2730 -28 c0 -363 -228 -663 -578 -761 -72 -20 -98 -21 -437
-21 -209 -1 -376 4 -399 9 -37 10 -40 14 -53 65 -22 88 -70 177 -135 246 -62
66 -192 159 -262 188 l-39 16 21 23 c78 83 40 174 -93 222 -70 26 -75 30 -75
56 l0 29 1025 0 1025 0 0 -72z m-2289 -108 c48 -6 117 -19 154 -31 l67 -20
-21 -23 c-33 -35 -45 -80 -31 -120 12 -36 61 -86 85 -86 31 0 214 -103 266
-149 137 -122 179 -276 117 -423 -11 -27 -23 -48 -25 -48 -3 0 -24 15 -46 33
-40 31 -43 32 -117 27 -41 -3 -136 -5 -210 -4 -155 0 -174 6 -415 116 -253
116 -321 133 -429 104 -70 -19 -128 -62 -176 -128 -35 -48 -41 -38 -47 93 -9
153 33 238 153 315 33 21 67 55 89 89 89 133 246 229 420 255 72 11 72 11 166
0z m-425 -806 c38 -14 141 -58 229 -99 229 -105 251 -110 483 -110 160 0 194
-3 202 -15 13 -20 12 -529 -1 -609 -36 -222 -181 -394 -391 -462 -61 -20 -94
-24 -198 -24 -156 0 -234 22 -344 96 -125 83 -210 208 -241 354 -22 103 -22
682 0 746 29 85 99 148 166 149 15 0 58 -12 95 -26z m-525 -109 c16 -49 29
-93 29 -97 0 -5 -45 -8 -100 -8 l-100 0 0 88 0 89 58 10 c31 6 63 10 70 9 8
-1 26 -40 43 -91z m1850 75 c17 0 19 -9 19 -90 l0 -90 -85 0 c-47 0 -85 2 -85
4 0 2 16 37 35 79 19 42 35 83 35 93 0 13 6 15 31 10 17 -3 40 -6 50 -6z
m-2193 -92 l-3 -83 -170 0 -170 0 -3 83 -3 82 176 0 176 0 -3 -82z m2730 0
l-3 -83 -170 0 -170 0 -3 83 -3 82 176 0 176 0 -3 -82z m-2634 -305 c-8 -25
-14 -63 -14 -85 l0 -38 -611 0 -611 0 -29 29 c-36 36 -37 70 -3 110 l26 31
628 0 628 0 -14 -47z m326 -78 l0 -125 -46 0 c-39 0 -51 5 -79 33 -43 43 -52
79 -34 131 18 51 67 86 120 86 l39 0 0 -125z m1648 105 c70 -43 78 -136 17
-197 -28 -28 -40 -33 -79 -33 l-46 0 0 125 0 125 38 0 c20 0 52 -9 70 -20z
m1473 7 c46 -35 50 -88 10 -128 l-29 -29 -611 0 -611 0 0 38 c0 22 -6 60 -14
85 l-14 47 626 0 c477 -1 631 -4 643 -13z m-2449 -1090 c123 -14 263 0 366 36
l74 26 -7 -52 c-25 -181 -111 -304 -238 -342 -97 -29 -207 -12 -283 44 -73 52
-133 173 -150 300 l-6 50 73 -26 c41 -14 118 -30 171 -36z m-396 -72 c16 -78
44 -152 83 -215 17 -28 31 -52 31 -55 0 -3 -173 -5 -385 -5 -212 0 -385 4
-385 9 0 4 27 38 61 74 134 146 373 260 533 254 l49 -2 13 -60z m1219 34 c143
-44 276 -127 369 -231 31 -35 56 -66 56 -70 0 -5 -175 -8 -390 -8 l-389 0 31
46 c36 53 83 170 93 229 12 71 8 69 88 62 40 -4 104 -16 142 -28z"/>
</g>
</svg>
