<?xml version="1.0" standalone="no"?>
<!DOCTYPE svg PUBLIC "-//W3C//DTD SVG 20010904//EN"
 "http://www.w3.org/TR/2001/REC-SVG-20010904/DTD/svg10.dtd">
<svg version="1.0" xmlns="http://www.w3.org/2000/svg"
 width="512.000000pt" height="512.000000pt" viewBox="0 0 512.000000 512.000000"
 preserveAspectRatio="xMidYMid meet">

<g transform="translate(0.000000,512.000000) scale(0.100000,-0.100000)"
fill="#000000" stroke="none">
<path d="M2285 5114 c-22 -2 -107 -8 -190 -14 -303 -23 -431 -70 -584 -215
-144 -137 -217 -299 -228 -510 -10 -199 27 -438 102 -662 l45 -132 -37 -58
c-182 -285 -243 -679 -158 -1031 82 -340 302 -649 551 -773 l62 -31 -16 -40
c-9 -22 -21 -41 -26 -43 -121 -34 -470 -152 -591 -200 -493 -194 -642 -309
-790 -610 -106 -216 -151 -387 -162 -611 l-6 -132 26 -26 26 -26 2251 0 2251
0 26 26 26 26 -6 132 c-10 210 -65 423 -159 610 -149 297 -299 414 -778 606
-144 57 -569 200 -596 200 -8 0 -23 19 -33 42 l-18 43 73 40 c144 78 251 183
361 352 226 347 279 785 142 1184 -24 71 -97 222 -135 279 l-25 37 45 134 c76
229 114 470 103 668 -11 209 -87 374 -235 512 -163 153 -292 193 -702 219
-149 9 -514 11 -615 4z m784 -189 c174 -17 257 -41 344 -99 125 -83 223 -233
247 -379 8 -47 10 -114 6 -193 -11 -212 -49 -383 -127 -577 -21 -53 -39 -103
-39 -110 0 -7 21 -44 46 -82 97 -147 159 -299 190 -463 24 -130 15 -374 -19
-503 -79 -301 -268 -560 -482 -660 -134 -63 -142 -64 -675 -64 -540 0 -541 0
-686 71 -210 103 -396 364 -475 669 -21 80 -24 111 -23 285 0 178 2 204 26
291 35 129 89 252 154 351 29 44 56 89 59 98 3 10 -12 62 -34 116 -78 195
-117 369 -128 579 -7 153 7 240 56 342 66 136 183 241 321 289 62 22 251 46
450 58 137 8 642 -4 789 -19z m-509 -3300 c261 0 492 3 512 7 36 6 37 6 54
-37 l16 -44 -28 -26 c-43 -38 -179 -102 -269 -127 -70 -19 -105 -22 -285 -22
-180 0 -215 3 -285 22 -90 25 -226 89 -269 127 l-28 26 16 44 c17 43 18 43 54
37 20 -4 251 -7 512 -7z m-612 -264 c105 -71 216 -116 350 -143 l62 -13 -115
-115 -115 -115 -160 160 -160 160 37 53 c20 28 38 52 40 52 2 0 30 -17 61 -39z
m1327 -16 l35 -50 -160 -160 -160 -160 -115 115 c-85 85 -111 116 -98 118 145
25 321 95 408 161 22 17 43 29 47 28 4 -1 23 -24 43 -52z m-1622 23 c-38 -48
-245 -342 -257 -367 -34 -65 -25 -95 125 -420 78 -168 152 -330 165 -358 l24
-53 -641 0 -642 0 7 63 c31 280 152 569 300 719 112 113 348 230 746 369 179
63 187 65 173 47z m1959 -37 c377 -129 652 -260 757 -361 160 -156 284 -445
316 -737 l7 -63 -641 0 -641 0 24 53 c13 28 87 190 165 358 154 335 162 360
120 429 -21 34 -189 274 -237 338 -13 17 -22 32 -20 32 3 0 70 -22 150 -49z
m-1747 -331 c83 -83 165 -160 183 -172 41 -25 115 -28 159 -5 l32 17 32 -46
31 -46 -21 -236 c-12 -131 -25 -261 -28 -290 l-6 -52 -175 2 -175 3 -174 377
-174 378 78 110 c43 60 80 110 83 110 3 0 73 -68 155 -150z m794 56 c56 -56
92 -100 88 -108 -3 -7 -19 -32 -36 -55 l-31 -43 -120 0 -120 0 -31 43 c-17 23
-33 48 -36 55 -5 12 171 202 187 202 3 0 48 -42 99 -94z m834 -17 l79 -110
-175 -377 -174 -377 -175 -3 -175 -2 -6 47 c-3 27 -16 157 -28 290 l-21 241
31 46 32 46 32 -17 c41 -21 113 -21 152 0 17 8 100 86 185 171 85 86 157 156
160 156 3 0 40 -50 83 -111z m-839 -381 c3 -13 12 -108 21 -213 9 -104 18
-209 22 -233 l5 -42 -142 0 -142 0 5 43 c4 23 13 128 22 232 9 105 18 200 21
213 4 21 9 22 94 22 85 0 90 -1 94 -22z"/>
<path d="M2175 4679 c-143 -12 -211 -25 -260 -49 -71 -34 -131 -95 -167 -168
-33 -66 -33 -68 -33 -212 1 -234 25 -324 104 -377 55 -37 115 -31 230 21 157
72 286 104 452 113 194 11 382 -26 562 -110 51 -24 106 -47 121 -51 58 -14
150 32 180 93 26 50 41 166 41 311 0 144 0 146 -33 212 -40 81 -111 149 -186
177 -29 11 -95 25 -147 31 -117 15 -729 21 -864 9z m732 -169 c220 -18 271
-38 313 -120 23 -46 27 -153 9 -273 -15 -103 -16 -104 -77 -73 -159 81 -340
125 -542 133 -250 9 -407 -25 -696 -153 -14 -6 -34 135 -34 244 0 130 48 199
156 222 131 28 631 39 871 20z"/>
<path d="M1986 3209 l-26 -31 0 -399 c0 -440 1 -447 60 -467 35 -13 56 -8 88
21 20 18 22 30 22 114 0 51 3 93 8 92 4 0 50 -49 102 -109 100 -115 132 -136
177 -119 37 14 52 38 53 80 0 33 -15 53 -154 210 l-155 174 33 35 c18 19 88
97 154 172 112 127 122 141 122 177 0 48 -35 81 -86 81 -30 0 -44 -12 -141
-120 l-108 -121 -5 102 c-5 91 -7 103 -29 120 -36 30 -84 25 -115 -12z"/>
<path d="M2702 3214 c-62 -31 -106 -81 -128 -146 -13 -39 -15 -92 -12 -315 l3
-268 27 -46 c31 -53 77 -95 128 -117 53 -24 234 -22 280 2 64 33 95 63 125
117 27 49 29 63 30 147 0 90 -1 95 -28 118 -24 20 -38 24 -98 24 -65 0 -73 -2
-100 -29 -17 -18 -29 -40 -29 -56 0 -29 49 -85 74 -85 20 0 20 -4 1 -40 -33
-65 -200 -66 -234 -2 -16 29 -15 476 1 505 20 38 41 46 114 47 83 0 118 -20
129 -73 4 -17 9 -40 11 -50 6 -20 53 -47 82 -47 29 0 70 37 77 70 11 51 -21
136 -71 190 -59 63 -108 80 -234 80 -83 0 -103 -3 -148 -26z"/>
</g>
</svg>
