<?xml version="1.0" standalone="no"?>
<!DOCTYPE svg PUBLIC "-//W3C//DTD SVG 20010904//EN"
 "http://www.w3.org/TR/2001/REC-SVG-20010904/DTD/svg10.dtd">
<svg version="1.0" xmlns="http://www.w3.org/2000/svg"
 width="512.000000pt" height="512.000000pt" viewBox="0 0 512.000000 512.000000"
 preserveAspectRatio="xMidYMid meet">

<g transform="translate(0.000000,512.000000) scale(0.100000,-0.100000)"
fill="#000000" stroke="none">
<path d="M2078 5109 c-65 -15 -155 -67 -205 -118 -161 -163 -163 -423 -5 -587
34 -36 41 -49 31 -55 -8 -5 -20 -9 -27 -9 -22 0 -254 -91 -334 -131 -351 -176
-642 -431 -860 -755 -182 -269 -301 -576 -355 -910 -13 -80 -18 -167 -18 -329
1 -246 12 -340 70 -561 235 -899 1010 -1555 1941 -1644 627 -59 1269 163 1726
599 713 678 896 1736 452 2612 -267 527 -729 924 -1287 1105 l-87 28 39 41
c85 88 121 178 121 300 0 202 -122 359 -317 410 -46 12 -131 15 -453 14 -217
-1 -412 -5 -432 -10z m863 -174 c103 -35 169 -130 169 -242 0 -35 -6 -79 -14
-97 -22 -53 -81 -112 -136 -135 -50 -21 -59 -22 -458 -19 l-407 3 -47 28
c-111 65 -158 218 -102 330 32 63 96 117 164 138 14 4 196 8 406 8 317 1 388
-2 425 -14z m-121 -691 c891 -130 1599 -845 1725 -1745 21 -148 21 -410 0
-558 -125 -893 -807 -1590 -1705 -1743 -162 -28 -462 -30 -618 -5 -517 83
-952 329 -1280 722 -416 498 -569 1178 -407 1811 181 704 718 1258 1414 1459
284 82 576 101 871 59z"/>
<path d="M2520 4015 c0 -99 -11 -91 140 -99 268 -15 559 -117 810 -283 141
-94 342 -291 443 -433 163 -231 278 -545 303 -822 l7 -78 -731 0 -732 0 -19
38 c-23 46 -81 99 -129 119 -19 8 -60 14 -92 14 -179 1 -301 -166 -244 -333
63 -185 297 -232 429 -86 25 28 45 56 45 64 0 11 129 14 794 16 l794 3 27 25
27 25 -5 140 c-16 439 -201 861 -522 1194 -346 357 -739 536 -1272 576 l-73 5
0 -85z m59 -1741 c56 -72 -12 -164 -95 -129 -85 35 -59 155 35 155 31 0 44 -6
60 -26z"/>
<path d="M1127 3602 l-57 -57 180 -180 180 -180 60 60 60 60 -177 177 c-98 98
-180 178 -183 178 -3 0 -31 -26 -63 -58z"/>
<path d="M560 2215 l0 -85 253 2 252 3 3 83 3 82 -256 0 -255 0 0 -85z"/>
<path d="M1247 1072 l-177 -177 60 -60 60 -60 180 180 180 180 -57 57 c-32 32
-60 58 -63 58 -3 0 -85 -80 -183 -178z"/>
<path d="M3542 1197 c-29 -29 -52 -57 -52 -62 0 -6 80 -90 178 -188 l177 -177
60 60 60 60 -180 180 c-99 99 -182 180 -185 180 -3 0 -29 -24 -58 -53z"/>
<path d="M2430 515 l0 -255 85 0 85 0 0 255 0 255 -85 0 -85 0 0 -255z"/>
<path d="M621 4764 c-123 -33 -227 -121 -282 -238 -76 -162 -33 -369 101 -489
140 -125 358 -143 514 -43 237 152 264 492 52 679 -44 39 -132 83 -194 96 -69
14 -124 13 -191 -5z m219 -184 c50 -25 114 -99 128 -148 51 -170 -67 -332
-244 -332 -230 0 -339 277 -171 439 73 69 197 87 287 41z"/>
<path d="M4293 4765 c-78 -21 -142 -57 -195 -109 -94 -94 -134 -199 -125 -333
9 -154 94 -281 235 -350 74 -37 79 -38 187 -38 108 0 113 1 187 38 159 78 247
232 235 409 -18 262 -275 450 -524 383z m215 -184 c111 -57 167 -191 128 -307
-72 -217 -366 -236 -472 -31 -26 49 -30 139 -9 193 30 80 101 144 180 165 44
12 131 1 173 -20z"/>
</g>
</svg>
